<mxfile host="app.diagrams.net" agent="Mozilla/5.0 (Macintosh; Intel Mac OS X 10_15_7) AppleWebKit/537.36 (KHTML, like Gecko) Chrome/133.0.0.0 Safari/537.36 Edg/133.0.0.0" version="24.7.16">
  <diagram id="C5RBs43oDa-KdzZeNtuy" name="Page-1">
    <mxGraphModel dx="1673" dy="869" grid="1" gridSize="10" guides="1" tooltips="1" connect="1" arrows="1" fold="1" page="1" pageScale="1" pageWidth="1169" pageHeight="827" math="0" shadow="0">
      <root>
        <mxCell id="WIyWlLk6GJQsqaUBKTNV-0" />
        <mxCell id="WIyWlLk6GJQsqaUBKTNV-1" parent="WIyWlLk6GJQsqaUBKTNV-0" />
        <mxCell id="UXl0b42lht0FYfC2ThSm-18" style="edgeStyle=orthogonalEdgeStyle;rounded=0;orthogonalLoop=1;jettySize=auto;html=1;exitX=1;exitY=0.5;exitDx=0;exitDy=0;" edge="1" parent="WIyWlLk6GJQsqaUBKTNV-1" source="WIyWlLk6GJQsqaUBKTNV-3" target="UXl0b42lht0FYfC2ThSm-4">
          <mxGeometry relative="1" as="geometry" />
        </mxCell>
        <mxCell id="WIyWlLk6GJQsqaUBKTNV-3" value="Sink Message Interface Delivery Route" style="rounded=1;whiteSpace=wrap;html=1;fontSize=12;glass=0;strokeWidth=1;shadow=0;" parent="WIyWlLk6GJQsqaUBKTNV-1" vertex="1">
          <mxGeometry x="280" y="59.27999999999997" width="140" height="56" as="geometry" />
        </mxCell>
        <mxCell id="UXl0b42lht0FYfC2ThSm-16" style="edgeStyle=orthogonalEdgeStyle;rounded=0;orthogonalLoop=1;jettySize=auto;html=1;exitX=1;exitY=0.5;exitDx=0;exitDy=0;entryX=0;entryY=0.5;entryDx=0;entryDy=0;" edge="1" parent="WIyWlLk6GJQsqaUBKTNV-1" source="UXl0b42lht0FYfC2ThSm-0" target="UXl0b42lht0FYfC2ThSm-1">
          <mxGeometry relative="1" as="geometry" />
        </mxCell>
        <mxCell id="UXl0b42lht0FYfC2ThSm-0" value="" style="shape=image;verticalLabelPosition=bottom;labelBackgroundColor=default;verticalAlign=top;aspect=fixed;imageAspect=0;image=https://www.meshiq.com/wp-content/uploads/rabbitmq.png;" vertex="1" parent="WIyWlLk6GJQsqaUBKTNV-1">
          <mxGeometry x="20" y="53.27999999999997" width="124.33" height="70" as="geometry" />
        </mxCell>
        <mxCell id="UXl0b42lht0FYfC2ThSm-17" style="edgeStyle=orthogonalEdgeStyle;rounded=0;orthogonalLoop=1;jettySize=auto;html=1;exitX=1;exitY=0.5;exitDx=0;exitDy=0;entryX=0;entryY=0.5;entryDx=0;entryDy=0;" edge="1" parent="WIyWlLk6GJQsqaUBKTNV-1" source="UXl0b42lht0FYfC2ThSm-1" target="WIyWlLk6GJQsqaUBKTNV-3">
          <mxGeometry relative="1" as="geometry" />
        </mxCell>
        <mxCell id="UXl0b42lht0FYfC2ThSm-1" value="" style="shape=image;html=1;verticalAlign=top;verticalLabelPosition=bottom;labelBackgroundColor=#ffffff;imageAspect=0;aspect=fixed;image=https://cdn1.iconfinder.com/data/icons/hawcons/32/699613-icon-102-document-file-xml-128.png" vertex="1" parent="WIyWlLk6GJQsqaUBKTNV-1">
          <mxGeometry x="180" y="60.52999999999997" width="55.5" height="55.5" as="geometry" />
        </mxCell>
        <mxCell id="UXl0b42lht0FYfC2ThSm-20" style="edgeStyle=orthogonalEdgeStyle;rounded=0;orthogonalLoop=1;jettySize=auto;html=1;exitX=1;exitY=0.5;exitDx=0;exitDy=0;entryX=0;entryY=0.5;entryDx=0;entryDy=0;" edge="1" parent="WIyWlLk6GJQsqaUBKTNV-1" source="UXl0b42lht0FYfC2ThSm-2" target="UXl0b42lht0FYfC2ThSm-7">
          <mxGeometry relative="1" as="geometry" />
        </mxCell>
        <mxCell id="UXl0b42lht0FYfC2ThSm-21" style="edgeStyle=orthogonalEdgeStyle;rounded=0;orthogonalLoop=1;jettySize=auto;html=1;exitX=0.5;exitY=1;exitDx=0;exitDy=0;entryX=0.5;entryY=0;entryDx=0;entryDy=0;" edge="1" parent="WIyWlLk6GJQsqaUBKTNV-1" source="UXl0b42lht0FYfC2ThSm-2" target="UXl0b42lht0FYfC2ThSm-8">
          <mxGeometry relative="1" as="geometry" />
        </mxCell>
        <mxCell id="UXl0b42lht0FYfC2ThSm-2" value="Process Message Interface Delivery Route" style="rounded=1;whiteSpace=wrap;html=1;fontSize=12;glass=0;strokeWidth=1;shadow=0;" vertex="1" parent="WIyWlLk6GJQsqaUBKTNV-1">
          <mxGeometry x="600" y="59.27999999999997" width="140" height="56" as="geometry" />
        </mxCell>
        <mxCell id="UXl0b42lht0FYfC2ThSm-19" style="edgeStyle=orthogonalEdgeStyle;rounded=0;orthogonalLoop=1;jettySize=auto;html=1;entryX=0;entryY=0.5;entryDx=0;entryDy=0;" edge="1" parent="WIyWlLk6GJQsqaUBKTNV-1" source="UXl0b42lht0FYfC2ThSm-4" target="UXl0b42lht0FYfC2ThSm-2">
          <mxGeometry relative="1" as="geometry" />
        </mxCell>
        <mxCell id="UXl0b42lht0FYfC2ThSm-4" value="" style="dashed=0;outlineConnect=0;html=1;align=center;labelPosition=center;verticalLabelPosition=bottom;verticalAlign=top;shape=mxgraph.weblogos.json" vertex="1" parent="WIyWlLk6GJQsqaUBKTNV-1">
          <mxGeometry x="480" y="59.27999999999997" width="50" height="58" as="geometry" />
        </mxCell>
        <mxCell id="UXl0b42lht0FYfC2ThSm-24" style="edgeStyle=orthogonalEdgeStyle;rounded=0;orthogonalLoop=1;jettySize=auto;html=1;exitX=1;exitY=0.5;exitDx=0;exitDy=0;entryX=0;entryY=0.5;entryDx=0;entryDy=0;" edge="1" parent="WIyWlLk6GJQsqaUBKTNV-1" source="UXl0b42lht0FYfC2ThSm-7" target="UXl0b42lht0FYfC2ThSm-14">
          <mxGeometry relative="1" as="geometry" />
        </mxCell>
        <mxCell id="UXl0b42lht0FYfC2ThSm-7" value="BETWEEN&lt;div&gt;Effective_Date AND Expire_Date&lt;/div&gt;" style="rhombus;whiteSpace=wrap;html=1;" vertex="1" parent="WIyWlLk6GJQsqaUBKTNV-1">
          <mxGeometry x="800" y="30" width="150" height="116.55" as="geometry" />
        </mxCell>
        <mxCell id="UXl0b42lht0FYfC2ThSm-22" value="" style="group" vertex="1" connectable="0" parent="WIyWlLk6GJQsqaUBKTNV-1">
          <mxGeometry x="589" y="193.27999999999997" width="200" height="140" as="geometry" />
        </mxCell>
        <mxCell id="UXl0b42lht0FYfC2ThSm-8" value="interface_delivery_route" style="swimlane;fontStyle=0;childLayout=stackLayout;horizontal=1;startSize=30;horizontalStack=0;resizeParent=1;resizeParentMax=0;resizeLast=0;collapsible=1;marginBottom=0;whiteSpace=wrap;html=1;" vertex="1" parent="UXl0b42lht0FYfC2ThSm-22">
          <mxGeometry x="1" width="160" height="90" as="geometry" />
        </mxCell>
        <mxCell id="UXl0b42lht0FYfC2ThSm-5" value="Amazon RDS" style="sketch=0;outlineConnect=0;fontColor=#232F3E;gradientColor=none;strokeColor=#ffffff;fillColor=#232F3E;dashed=0;verticalLabelPosition=middle;verticalAlign=bottom;align=center;html=1;whiteSpace=wrap;fontSize=10;fontStyle=1;spacing=3;shape=mxgraph.aws4.productIcon;prIcon=mxgraph.aws4.rds;" vertex="1" parent="UXl0b42lht0FYfC2ThSm-22">
          <mxGeometry x="140" y="50" width="60" height="90" as="geometry" />
        </mxCell>
        <mxCell id="UXl0b42lht0FYfC2ThSm-23" value="" style="group" vertex="1" connectable="0" parent="WIyWlLk6GJQsqaUBKTNV-1">
          <mxGeometry x="1010" y="43.27999999999997" width="200" height="140" as="geometry" />
        </mxCell>
        <mxCell id="UXl0b42lht0FYfC2ThSm-14" value="delivery_route_master" style="swimlane;fontStyle=0;childLayout=stackLayout;horizontal=1;startSize=30;horizontalStack=0;resizeParent=1;resizeParentMax=0;resizeLast=0;collapsible=1;marginBottom=0;whiteSpace=wrap;html=1;" vertex="1" parent="UXl0b42lht0FYfC2ThSm-23">
          <mxGeometry width="160" height="90" as="geometry" />
        </mxCell>
        <mxCell id="UXl0b42lht0FYfC2ThSm-15" value="Amazon RDS" style="sketch=0;outlineConnect=0;fontColor=#232F3E;gradientColor=none;strokeColor=#ffffff;fillColor=#232F3E;dashed=0;verticalLabelPosition=middle;verticalAlign=bottom;align=center;html=1;whiteSpace=wrap;fontSize=10;fontStyle=1;spacing=3;shape=mxgraph.aws4.productIcon;prIcon=mxgraph.aws4.rds;" vertex="1" parent="UXl0b42lht0FYfC2ThSm-23">
          <mxGeometry x="140" y="50" width="60" height="90" as="geometry" />
        </mxCell>
        <mxCell id="UXl0b42lht0FYfC2ThSm-26" value="" style="shape=image;verticalLabelPosition=bottom;labelBackgroundColor=default;verticalAlign=top;aspect=fixed;imageAspect=0;image=data:image/png,iVBORw0KGgoAAAANSUhEUgAAAXgAAARUCAYAAAB8ywhMAAEBqklEQVR4nOy9Z5fcRraueX7KzJk7c8bcuWfNdEvdre5Wtyg6kaL3nqI3JYqeovde9BS99977oqfOh1mr/xOmHkgb2hkZQAIJVGUWsD88K6uACCAQQLyxY8cO4N/+8z//MzAMwzDKx7+1ugCGYRhG92ACbxiGUVJM4A3DMEqKCbxhGEZJMYE3DMMoKSbwhmEYJcUE3jAMo6SYwBuGYZQUE3jDMIySYgJvGIZRUkzgDcMwSooJvGEYRkkxgTcMwygpJvCGYRglxQTeMAyjpJjAG4ZhlBQTeMMwjJJiAm8YhlFSTOANwzBKSuEC/2+z7hmGYRhNYAJvGIZRUkzgDcMwSooJvGEYRkkxgTcMwygpJvCGYRglpdcK/KZ//k+GYRhGFybwhmEYJcUE3jAMo6SYwBuGYZQUE3jDMIySYgJvGIZRUkzgDcMwSooJvGEYRkkxgTcMwygplRX4P+z9/3qUVt9owzCqhwl8LxT4Mz/OCe4c3xfcOro72Pz1fyvkmCd+mBQe887xn4Ltg//v38+1em7w6vH94P65Y13b/0fLH1jDMNJjAt8LBf7uqUPB+/fvQ7Z9838VcsxrP22Mjrl37F/DbVv7/Ufw7s3raPvZtfNb/sAahpEeE3gT+BCfwG/++n8JOp8+irafWDKl5Q+skY2bh3cGj6+eD+6fP9byspSRg9MGhPULxzrGtbw8LibwJvAhPoGH/VP6hfvOrVtYmDvI6Dle3L/1631997blZSkjxxdNiNrN+Q3ft7w8LpUX+CyV1VN5GtGTAm/0bkzguxcTeBP4pgR+S9//NTgyd3g4yYnvm7+3Dfw/w31pBH77oP8e/LxgdHB2zbyQYwvHBjsSJknjBH7X8D8GB7qGoQe6LHnZtrX/f/y6rYtdIz6LPeaOIf9PlG77N/89Vxk39/n3cDjMsXZ8+5/htt0jPw9OLpsWnF//fbB/8tc15do94vP4cnXlj8o1qL5caUlTJjcP9+vn+aPDiXJGRUxuJ3Woe8b8NTz+T+O/jE2zd9zffk0z7u/Rtv2T+oTbXr94Ft1XueZ9E/9ZyDNTZL3tHPaH4OSSqeGzfnj2sGBLv/+oyUOZTy6dGtYZ+7d5nqcavvr3rrr7IryGc+s7QvcidYjbsVE+6vPE4slhvp8Xjgn2jP5LsLlre80z1FUvlP/KztVR/d46sqvhc0U7Cp+PDYuCU8umd6Xt33XO/9mbdlfXM8yx5DliTuzQzMFhuc6umR+bT2MCn+HB7Kk8h2cNqfF9C6+fPw0fjkYCf3Hz0uBt56u6/EyYXtq63HvOOIEnqka2S2M8OndEtO3+2Z9jrwP/r6Sj3HnKuH9K3yjNld1rg4cXT9bk43i6XA+69seV69q+TVG60ytnNi1UacpUc81b/NcMDy+e8orps7s3wv2dz57EluPlw7thmpeP74f/I6C+c0R1/Lbemm/mmSmk3roE8u7JA3XnffHgTthJ7ewyEu6dPeq9Dowf3/F/mvCP4Omtq948bzpfBkfnjfTmOzC1X/Dq8QNvvsdXz4WCq+9lUh0j4PrYdBJPbl72pn12+1rYGbnl0deNf/+tCngAt9PxYQKf4cHsiTw8CK9fPk98eDSuwPPQN8oT9v6u6GUQ+C39/reojIiFz5rCX6/TaPFqpoxaFHwgUDXlevc2Km8NXY2i8+nj39N0CUgRQhVXJkmLRd/omh9fu1BnuTYt8O/exQt8l1AU8cx0V70JXM/Tm1cS07gTm3QK7968SczDfT/+/YSafEfmDAuf06R8b16+iJ4p7m1SWkYacmys+efiKovhxf3bNeHJUNOxvasvmwl8i8U6a55tA/6PqEHD83u3gjOrZgf7Jn0VHP9hYvDgwolEgceCfacehCu71gQHvxsUHOqCv/UDzgOtz51F4OH6/i3RdobO7rXgUpL9jDjyltEVBfZf3bMudCnoIbEu1+mVs+rKxblkf9LooxmhiiuT9tPC9X2bQzcD+RECPVq7d+ZIzdC7GYGHncP+39Bd9Eodm/9h59DfO7U8z0xR9db5/MmvLpRxfw9dI29evazZz8ji9IqZ4X5cFM/uXI/23f55b82x9WiADvPo/NHRcR+cPx7tY8RUI6anfx8Vs74ElxEuv0Mzvw2e3v59NHBh0+IwPR0xdYmlLvuu7d0Q1fHW3zpqDJ2Hl09HaTjWyaXTQpcT14z1LvseXT4Tds5egSdvV2eHa+/g9IFdmtAnVV2bwLeRwOOblZuJJbp71J9q9mOhPnWGeVrgeUDcB1HDUDsS3a6GoPdlFXh8h5EodT2I7rluHtoR7Ufw8paxRhS6rFN9TI0ul89No68T4S1MqBLKxPBe0tEB+MqsrU5935sVeKHRJGueZ6aIesNq1vM7cHzRxJpn3O1YmF+JLN8Hd2r2Ic4I+d0uwXYX5vG/1DOjGOa52I6oynoP9rt++r1j/hoaKRz33NoFTlmTJ1kPd3UQsp8Fg+6IcVdXR/LqycMojZ5r0QL/qKuTwADMWtcm8Bkqq7vzXNyyLNH6DB+2LvH1CnzXcE18qDRq7zm6LEP8+KEYPKoVg6wCz7Fk2Om6abZ0WS1vfnOVcL4ovDJHGbUo0MnF1qMul+umUe4ZrETXHZKVNGVCLN6+7oyuJ26S7/KOVdGxjn0/PtrerQKf85kpot4edXV+7n5cFZF133W/vNfcda2hde+4mxqhLfWoIw2v8Um0PRyRppjAhEYCr11zjMJ9x8Aq//3cv89VaYGPmzdoROUFvp3i4PXDt2/CP2PTvVE+ehF4Zv618F/atsKLTqMtnMwC3wUWn+/BxOKKhq1dx5XtecqoReHq3vWJ9ajLpTvKQ8o9c+PgtkKFKq5MWGSS5k6CBUy0hqS7vPPHaHt3CnzeZ6aQevOMaOgEZf/DmMly3C9JAk/EGW7Cs6vnhf5yJsFvHNpecy16pHRbPedhh9dVp1f3rA/vS1LETiOB18fl/vvqV4/wcPNEeqAE3vXPp8UEvo0EXhoqyPDRx6MrZ+sEnnA7/YCmAT+xHLMZgSdEUibz7is3jW5IOlQwTxm1KFze8WNiPYZD+N/Kpd00+hoR+yKFKq5M+H4jAd2+MvZYemT2QK067U6Bz/vMdFe9aYFn3sl3jDiB3zrgfw/dNO88k5IuWuCZL3HdnwLnQKh9fu9GAs/kaZb61derBb7Z0WblBT5LZXV3nudqgjVpAdOTG5fq0hFNoB8UWT7tEj6wnS/Dv4mxlmM2I/DAZBX7cNMQ6457RmKvESedNk8Zswh8TbnETfPVv0cTjlhnaYfgeYQqvOaFY6M0WJFxx2LSTdLpSenuFPi8z0x31VvTAt91j/WkpTyXiOzj6xfC1zXECbyc9+j8UeFcAxEzdULf+Sqc5NV5Ggm8btN0IL76fXL9QlT/TGxLXhP4kgk8lsfvllJ/bxo9IaQFnodVtiW5AuJoVuBxzch+FqoQHRI98OtrH/g8Zcwq8PhRJT1umoPffRP9f3HrsqYaSzNl2qUmBJPeB6MtfT3ZKQKPuHjzdnVU4kfPKvB5n5nuqrdmBZ7Xakg+5liOdD2LOioFdJSNK/C19frvYad7dfe6mqieh5dO16RrJPA3j/y+FoT4/Cz1ZAJfMoEnZK6RYGj/do2l39XQxTdP2F3cA4GVzeIRd1FNswLPzL4IDCF++LZ/FZR3YahebaNpvoxZBV6XCzcNvs3fG/afm2osLmnLJJOUXLs3Nt+pZzpJ2f5I+Wd9ebVrJ1ng34Xui6LuR3fWW7MCf37j7yGLhKLWHbdL7PX8lZ5kpW7AF1vOqCWy4rvOp9NogfddC3MAsp/Vwb5r4XqpXyBSTrabwJdM4Bn+ReLd1SCPzK4NDyM2V8/21wh8F3oIeu/04TrrBTGQoSfit0W9PKxZgQdtpTSyVpstY1aBB5aOu+XyRW00S9oy8S59bQG618wIQ5cxbvLbDWOkbrQI+AReuywOO89T3memu+qtWYHXC7bc5w9RZiJc17MI/KEZv0++M7+lRVbaXVTHD2s1RrvgKJNbTh22S1kZSbrlur5/8++jgI2/r4A1gS+ZwHOz9WsIaFBM7jDTzkPwyvP6Ai3wP034Z+grlX0sjb68fVU4dOTh1q4d4tT1ufMI/CEV6yswgedL22wZmxF4Xvnglisu/LQZ0paJobn26bLYhbBI8jA5rVdQXti8pCbvqeXf1XT6LORigQzW4LPbtcvxfQKPaMt+nh+iVnAHFfHMdFe9NSvwe8fUhhDjdjq9alYYu07H6j4LIvCM9vT9Ieac0EWeHxYa6oVoOsIpvJZJfWruD+XlXTF6dKANDeqaxVkcn/fuPLl+MdrHfJF2G5nAl0zg5WFzJ4o0LIB6oZY9u5Oxh2cPbbjkmkkdeXGZkEfg8VdKXLI8xEkPZDNlbEbgw4lV9W4RxKDhS6oKFCoNo7NGS+jpxN18WJM+cRK0MPkEnnkRN4/7Lppmn5nuqrc8UTR3PO+10QLaqUbAWkx5FUOjyBtWkmLN15b1vwXP796sS6vfRcOoR6+ijSub7njBBL5kYZICYX7hZJDzPhEedpZd3/p5z68PRZdg1PlV//nrawKkAWhYNMKDxxJsN0/0Vryuc+qXKsmK1Lh3zgiEAMp5CJNsdI1Zy7i367oljWvlJqE7Lj5JWIRANVsmhFTHPAtY1sRqu+4RAWFlJNfpuOeIDEEsxSDg1RZ1+bssSEYBYimy6IrnpohnprvqjXqQxWGsSPUd48FvL3YjYqsmb1enzghEFrQJTFbjohI3DYLqzhGFH+/oqoN3zku9iFIiAioudJn3R9E5MxkbvhCsqw25AQZbuww35oHc1zBQDl6Z4a7mhTsn9v/Wzl8nhk0nYQLfhgKvHwoEHUtjaxPLlIntpTHtGfXnbnntaxF0dxn1Gx71akAsIuY4miXPgh86ShZAcc0sVd+U4qVRIV1izbNAvmZec0xHEU4mJliDje5HK+stK7zqmuvYmfGFcnQwiDbvlMkyasFSZwQejqpjwnBJgwHFRD/nKGJOI4nKCrxRfvTqUIbRWkh98wZZKPLtir0Jq7fehQm8US6Iltiz/tfwQuXicv2bJlTNYfXWuzCBN0oFvkpXVFhA5vq3cVXwKtlmyfMe+d6M1VvvwgTeKBVbfnv/NuGmTPb63lVvGFXBBN4wDKOkmMAbhmGUFBN4wzCMkmICbxiGUVJM4A3DMEqKCbxhGEZJMYE3DMMoKaUTeMMwDCMZE3jDMIyS0msF/p///KdhGIbRhQm8YRhGSTGBNwzDKCkm8IZhGCXFBN4wDKOkmMAbhmGUFBN4wzCMkmICbxiGUVJM4A3DMEqKCbxhGEZJMYE3DMMoKSbwhmEYJcUE3jAMo6SYwBtGAmPGjAkOHz4cXLlyJVixYkXw1VdftbxMhpEWE3ijW/j666+Dhw8fBk+fPo0YO3Zsy8uVldu3bwe//PJLxJw5czLlX716dU0dHDp0qOXXZFQHE3ijW+jbt2+NMMK0adNaXq4sDBs2rO4a9u3bl+kYO3furMl/6dKlll+XUR1M4I1uoQwCD/fu3au5hoULF2bKbwJvtJJKC/xn2zuDP+z/V/ibJR95GtHqG9tqyiLwkydPDk6fPh364Ddu3JjZB28Cb7SSygr8l8Mm1gjy30fPTJ3XBL4xZRH4vJjAG62ksgL/5yUnagSZ/9PmpTNw+euUFdGx0owIZsyYETZ+Yfv27V7rcPny5TXpFi1aVLN/1KhRwY4dO4Jz584Fd+/eDW7evBmcOnUqnNwbOHCg99zr16+vOSbHGDFiRLBmzZrg7NmzwZ07d0KrddOmTUG/fv1ir6FPnz5heYgyQbjOnDkTXsfIkSNTCzzHmD9/fnD06NHQSsYlcvXq1eDYsWPBDz/8EB4n7TWMGzcutLLPnz8fXLx4MZg3b17uBrJ27dqa8xBV46ah7rgH1Nnly5fD+li8eHF4P03gjVZSWYH/455fIjHml//zVOSfVl7MNBpAoFwBnDBhQk0aBOL169c1aXQUxrJly4JPnz7VHUd49eqVN3Kls7OzJh2iSFrfMR4/fhwKmHsMomSuXbvmzfPhw4dg1apVDQW+f//+wY0bN2LLD0TifPvttw2vYffu3cHHjx/rritvA3n+/HnNMRFuvZ9OJO4e0NkyKWsCb7SKSgr83yZ01Iix/I0V3kwl6mOkHQkMHz68ThgQfZ1m6tSpdaIxa9ascF+SsGiePXtWJ9CuODaCEYFbfle40qAFnpEB1m6afFj1gwYNynwN3S3wjBrcDrgRJvBGT1JJgRdr+/NNj8L/+eV/tjdTiXoU8I9+36TO51rAbuPfsmVLzf6XL1+GVj2W/vv372v2vX37NnTTcAwsaNcKxuKW48aJo2sBa7QVvWDBgszi7gr8yZMnvefHPeReG2DpaxdWGoHfsGFD7gaSJPCUNWsdmMAbPUnlBB4BFmv7ixm/CgC/si2LQId55+6oO15afvzxx5rGjzBrn7fbAezfvz/cjptGb3/z5k0wfvz4KB8+bde6nzt3brTfFUfS4u5BQDkOPuwkcT548GDd/p9//jkcKQwePDj03ScJvG/0giuIvOyPc90woom7BsB3P3PmzPA4lEV3as0SJ/BDhgypOz/3gXrmHk6ZMqUuxNIE3uhpKifwWsy/HDQy3MavT6QbRcbQGYgvX0YDWcAqdoVOVkoyQepa1CKQL168qNnuc0XgVtFp9u7dG+1zxZEJTZ0XkXSFSU/uuh3PrVu36sT0yJEjsQLv889Pnz69Jj/uD7dumMCNuwas6aQJ4WaJE3hcZe41dHR01ORl/uPdu3cm8EbLqJzAizsGYf587a0IEXEt1I0EXkfiZAmz1Fy4cMErxFjhejvL3LGwEVKfdYwYatz9J078PjfgiiMRN7pMnMN1k4iwUQYs1UYdDFFCcQKPUOvtnMsXQYRVr9MRaRN3DVu3bu2WBhIn8OvWravZjpD7roHIIBN4o1VUSuC1pZ6EWPZJ6InVv3QcaPoG4BrRAsCwnu3uJOauXbvC7b7l82nQwuKK4/fff19XLneUkOSa8K3uHDp0aKzAuy4muWYXt/PDdRR3DW74aFHECfyBAwdqthOi6svvXqsJvNGTVErgEeLIUlfWu2vFpxFsPRLI6rfX4IpxJ0UR8UePHtVsmzhxYpj+m2++8Qo40TIadzux2XLOPAKPG8QdIRCr7+bHlx8n8IxS9HZE1Fc3rh9eR/OkuYYiiBN4N76dOvbld11lJvBGT1IpgZdol7hQRomuabRQSfvxmw2t1LBARouA68IgCkandzsENza7EXkEHiiP3sekq5t/6dKlsQKPS8fd5y7K8rmCZJI57TUUQZzAM2Jwr4HRjXsNrpvJBN7oSSoj8NqlQhy8L41ejZrkU9eLpHyrWrP645mcS3KvuP7l69ev14kGK0J1GiZrySfoBU95Bd4NccSi15OkjEAI6YwT+NmzZ9ftc9/S6OsE9Eih1QLPqlm3fLiUtB/e7ahN4I2epjICLxOiSStWdVRM0oKlot9Fg9uDOPY4gXeXxzMp6qZhEpWJTVmu71r5TApK/rwCv3nz5rrzM8nIqwrAzesKPJ2RrwPAr821sSrVLT//457Kcg1FECfwTES7ZQR88XSATK76JrtN4I2epDICL8LdyL+epiPojpeNEUfuE0Xf5B3iwqKmJKtfg5hmFcckgced4s4RpEHH0hNm6BNIHwil64ZqtcCDr6NthAm80ZNURuDbHRbI+AQhbrk9Vr8bgueDkQGvvNV58wo8MInqxnhr3C8huQIPhIImrZ4ViJt3y9cOAg+EbiaV3V3sZAJv9CQm8G0CVrnvhV++F30JAwYMCH3X7mQkIL64PNyJPyCmXqf1vXXRnRzk9QRuGlxCLHLS6RBsJl05r2uhuy9TAzo2d05BYPQSN4Gc5hqKwB2puCGhdLREBbmdHRPRlMl1Z+HCavWzZlQHE/gSwCt1mURlKT9L5Jnk7MmPQ/MiMDqi0aNHN/16AFb1MtIAroNraLY8iC6TzHlI6lh9cN3y2mV55YJhtBoTeKN0+KJ0spL126uG0Y6YwBulwwTeMH7FBN4oHSbwhvErJvBG6cAPzkRvHnyTyobR2zCBNwzDKCkm8IZhGCXFBN4wDKOkmMAbhmGUFBN4wzCMkmICbxiGUVJM4A3DMEqKCbxhGEZJMYE3DMMoKSbwhmEYJcUE3jAMo6SYwBuGYZQUE3jDMIySYgJvGIZRUkzgDcMwSooJvGEYRkkxgTcMwygpJvBGaq5cuRI8efIkYv78+S0vk2EY8VRa4D/b3hn8Yf+/wt8s+cjTiFbf2O7gxYsXNd8tXb58ecvLZBhGPJUV+C+HTawR5L+Pnpk6rwm8Cbxh9AYqK/B/XnKiRpD5P21eOgOXv05ZER0r7YhgwoQJwc6dOyNWrlwZ9OvXL+jo6AgOHz4cukROnKgtV58+fULXyNGjR8P99+7dC65evRocO3Ys+OGHH4K+ffvWnYc827ZtqznXoEGDatJ89dVXwdatW2vSDB48uCbvp0+fagSe80raYcOG1Z131KhRwY4dO4Jz584Fd+/eDW7evBmcOnUqWL16dTBw4MBueaDXr19fcw2UgY9wr1mzJjh79mxw586d4PTp08GmTZvCuo47TjP1bBjtRmUF/o97fonEmF/+z1ORf1p5MfNoAKHTgnn//v1QfPS2Dx8+ROn79+8f3Lhxo2a/y8OHD4Nvv/225jwDBgyoSzd58uSaNAiWm2batGnevD7mzJlTc7xly5bVdQiaV69eBWPHji38ge7s7Kw5z8aNG8Nz+crw+PHjUPzdYzRbz4bRblRS4P82oaNGjOVvrPBmKlEfI8tIwBV4HyLwWJuXL19OJbZYm9pC72mBnzdvXqK4C8+ePfMKbB5cgW8EIwqdP089G0a7UUmBF2v7802Pwv/55X+2N1OJehTwj37fpM6XReBPnjxZt+/jx4+hy+H9+/d1+7BAcbuQN4/As51jcR53P2LKdsDdxHH4dcvz9u3b0E1z6dKl8HpcS/jrr78u7IGOE3jqKq6OtSWep54No92onMAjwGJtfzFjQ7iNX9mWRaDDvHN31B0vLT6BRwDXrl0bjBkzJvjmm29C3/bw4cPrLGLcC/jIOU6cS2Hq1Knh/jwCr9OkmWQ9dOhQTZo3b94E48ePj/bj13avZe7cuYU90K7Acy7cRYgw5Th//nzsdeatZ8NoNyon8FrMvxw0MtzGr0+kG0XG0BmIL19GA1nwCfyiRYvq0q1ataou3fTp02vSMJnoitP27dvDfT0p8G4afOBuGtwiOs3evXsLe6BdgWdSVO+fOXNmbJ3nrWfDaDcqJ/DijkGYP197K0JEXAt1I4HXkThZwiwFV+Cx3n3RGQiIToerwOcWwNrU6YgAYXtPCTyuFp8LBEHUuPvdSKE8uAJPHbtldF0tixcvLqSeDaPdqJTAa0s9CbHsk9ATq3/pONBU5bsC/+DBA2861+3B5J4v3YULF2rS4Y5ge08JPO4kn8A3At98UQ+0K/Dff/99XRr3OkTg89azYbQblRJ4hDiy1JX17lrxaQRbjwSy+u0FX5ikLx0uDJ3u+fPn3nSuf1giRHwC7/qN8S/nFXjmDHwCTrSMxt1OzH9RD3Qegc9bz4bRblRK4CXaJS6UUaJrGi1U0n78ZkMrIa3A48d2RdNdKIQrgQlNnWb//v3hPp/Au66LcePGZRZ4Fma5ZXWjZEQ8e4o8Ap+3ng2j3aiMwGuXCnHwvjR6NWqST10vkvKtas2z0MmXbvbs2XXCs2/fvpo0PnESCxtRevfuXc0+whZ1/oMHD2YWeJ/lff369Tr3C6tCdRpi5lk1KxS54CmPwOetZ8NoNyoj8DIhmrRiVUfFJC1YKupdNGkFHoF8+fJlnbAcOHAgPMbu3bvrLGf+x2Uix/CF9xHbjYCdOXPG61pxBZ6Ydb2fTgPrFYETS9cXGcQk6owZM8JRAgLplnXdunWFPdB5BL6IejaMdqIyAi/C3ci/nqYj6GmBh1mzZtWJSxxEqriuEYQ4Td4kgeddLnFpZSUrUSqMDtKeA0EtUiDzCHwR9WwY7URlBL4dySLwwCKhpBWZAvHcbt4hQ4YET58+jc3jhv75BB4rPO4VBPpVBSz35wVdjcrJClc3micveQU+bz0bRjthAt9CWGGpBeP27dsN87Dq0/VzC7yxMcmiZHUsrhrXQiXMjwU87nZ5/YAGkcflwkQjYo9I88t2nY6JXdw/7oQk4NrB7UGnU3Sdup0Y78Vx07id2YIFCwqtZ8NoF0zgeym8PwXrFwh59L2uNw4sbMR7ypQpud6IiM8al0zSu1iIr2cSlTJyPsrppqc8jADyUPRLy4qoZ8NoNSbwRsvxRa9kxY12MQzDBN5oA0zgDaN7MIE3Wo4JvGF0DybwRsvBf85Cqzz4JkoNo+qYwBuGYZQUE3jDMIySYgJvGIZRUkzgDcMwSooJvGEYRkkxgTcMwygpJvCGYRglxQTeMAyjpJjAG4ZhlBQTeMMwjJJiAm8YhlFSTOANwzBKigm8YRhGSTGBNwzDKCkm8EYp4Huzhw8fDj/2vWLFisTPCBpGVTCBN0oBHyzXHwDhO61Z8vNt2YcPH4Yf7Rb4lmyrr8sw8mACb/R6+BB23i888XFw9xjTpk1r+bUZRh5M4HsxuCOePHkSMX/+/JaXqVXcu3evRpwXLlyYKb8JvFFGKi3wn23vDP6w/1/hb5Z85GlET9y8Fy9e1AjS8uXLW/5AtYrJkycHp0+fDju9jRs3ZvbBm8AbZaSyAv/lsIk1gvz30TNT5zWBLx8m8EYZqazA/3nJiRpB5v+0eekMXP46ZUV0rKwjggEDBgRLly4Ndu/eHVy6dCm4e/duaI1u3bo1/Ji0tkb79OkTbNu2Ldi5c2fw6dOnGkG6evVquB3wS+tzkA8XztGjR0MrF5cG6Y8dOxb88MMPocD5yrZ+/fromDBq1Khg3LhxoZV8/vz54OLFi8G8efNq8jBh+f3334fHvnbtWngurmv//v3B1KlTu+VBXrt2bU05iapx01AHixYtCqNtKM+ZM2eC7du3ByNHjjSBN0pJZQX+j3t+icSYX/7PU5F/WnmxqdEAroVHjx7ViYvmwoULweDBg8P0dAZJaX1RJP379w9u3LiRmJ4Ikm+//baufJ2dnTXp6IQ+fvxYsw2xl/QDBw4M7ty5k3iurBOgaXj+/HnNORYvXlyzn06HzsZXng8fPgSrVq0ygTdKRyUF/m8TOmrEWP7GCm+mEvUxsowEhg4dGopLGsHGCiZPVoHv169fcPny5dTnGDRoUE0ZXYH3IQKPFczoIM25GIUU+SA3Eng6lTTlMoE3ykQlBV6s7c83PQr/55f/2d5MJepRwD/6fZM638qVK2sEBZcLQrRp0yavUE6ZMiUUUaxxn5WMGLMdJkyYEJ7j5MmTdemwwEnz/v37un0cW7uE0gj8hg0bwrQnTpzwdhpsJ8rH3bdkyZLCHuQkgcfNlVXcTeCNMlA5gUeAxdr+YsavwsSvbMsi0GHeuTvqjpeWs2fP1ggK/nHZh8gijA8ePIhwrdJGk6zDhw+v89M/fvw4cvfEuW60n9wn8PjuZ86cGR5nxIgRofsDn797Lnzdchyfi+TmzZuFPchJAn/w4MG6a/j555/DsnMNdKgm8EYZqZzAazH/ctDIcBu/PpFuFBlDZyC+fBkNZIFJSC0o7969C90drKBME+bXSOB9fuXp06fXpGHS1BVmJh5lvyvwWP64fdyyuKORt2/fhqKu0zA565bnm2+ydahxJAm827HcunWrrmxHjhwxgTdKR+UEXtwxCPPna29FiIhroW4k8DoSJ8vEquATYOH169dhlAppxOJ2aSTwCLXej0vG13Fg1ceNJFyBJ7LHVxb3XEDHofFdZ1GvA4gTeK73zZs3Nfv0pLAwY8YME3ijdFRK4LWlnoRY9knoidW/dBxoqvKxIhHxRr5gfOaEAbr5Gwn8oUOHavbLRK0LUTo6HWWSfa7AE2boO4Z7rrS4I4pmiRP4IUOG1J3Tt8qVCW8TeKNsVErgEeLIUlfWu2vFpxFsPRLI6rfXIPKId6PQQiBeXedtJPB79+6t2Y8I+srg+uFPnToV7XMFnvh23zHcc8GzZ8/qYDuuKPl//PjxhTzIcQKPO8kdPfgWhFEOE3ijbFRK4CXaJS6UUaJrGi1U0n78ZkMrfeAPR8SJpHn16lWd4Bw/frwmvSvw+MH1flwR7jGIU9dpfC4MFiTJ/rQC754Lt09PPshJPnhi/PU+Jl3d/Cw0M4E3ykZlBF67VIiD96XRq1GTfOp6kZRvVWtaf/yyZctCH7uAm0D2YdkTZaIFh8lBnd8VeB21ArNnz64TLXeRka8T0BZuWoH3nQu/tk6DNb158+bQjw9uh5SHJIF3Q0Wx6LVriAigly9fmsAbpaMyAi8TokkrVnVUTNKCpSLeRYOAu+KJgBNpglXNr7vCFTeIPoZrmeL6wPpGoLHUWZrvE64DBw4Eq1evDlelugut+F9HtqQVeN+5mCimLFwLYZWuK4hRihvN0ixJAk+n4tYBdcWrCsDtKE3gjbJQGYEX4W7kX0/TERT1sjEE1icscREn7oSkG0evkZWss2bNSr1alvO6sfZpBR6w2NOeC4g/L+pBThJ4OrtGr4MwgTfKSGUEvh0hwqPRO2JEePfs2VMX4oigxnUG+l00vGTMfX+MD9xEbhmzCLycK65MGtYAFPlZvUavKmASFas9rjzuF6FM4I0yYALfYnBtbNmyxbuUH0HCD49/Oy4/Is+KVyZKEVYWGPHr+r/nzp0bXL9+3StuvL3SFUSBT9fptO6bI32QJq7jun//ftDR0VH4N1NdC90XCkmd4AbT6ej4mHSls3VHH/K6B8PorZjAtxG8SIzXBPCGydGjR2cWQToLfNpJ+XhjJMcHzuW+VrhIEE0518SJE8NXI7hpEFFGG82CCyprPfFCNV5TQB0XNQdgGO2ICbzRUuJGFVmIW+lrGFXHBN5oKSbwhtF9mMAbLcUE3jC6DxN4o6UQj88kZ7OwcCvuc4OGUXVM4A3DMEqKCbxhGEZJMYE3DMMoKSbwhmEYJcUE3jAMo6SYwBuGYZQUE3jDMIySUjqBNwzDMJIxgTcMwygpvVbgWz0kMgzDaBdM4A3DMEqKCbxhGEZJMYE3DMMoKSbwhmEYJcUE3jAMo6SYwBuGYZQUE3jDMIySYgJvGIZRUkzgDcMwSooJvGEYRkkxgTcMwygpJvCGYRglxQTeMAyjpJjAG4WyZs2a4NSpU8Hx48eDr7/+uuXlaUf69esXnDhxIqynVatW9dh5hw0bFly5ciV4+vRpsHLlysz5hwwZEpYZFi1a1PJ6NBpjAm8UytmzZ4Nffvkl5Jtvvml5edqRb7/9NqqjkydP9th5t27dGp33zZs3wVdffZUp/8SJE6P8e/fubXk9Go0xgTcKxQS+Ma0S+NWrV0fnffz4sQl8Bai0wH+2vTP4w/5/hb9Z8pGnEa2+sa3CBL4xrRJ4XEObNm0K9u/fH0yePDlzfhP43kdlBf7LYRNrBPnvo2emzmsCH48JfGNaJfB5MYHvfVRW4P+85ESNIPN/2rx0Bi5/nbIiOlaaEUH//v2D6dOnh4wYMSI23dChQ6N0PsGcOnVqsGLFitAyW758eZgubujdp0+f6FiIDNsGDx4cLFy4MNi4cWOwePHisBE3Knvfvn2DefPmBWvXrg3Wr18f/j1w4MBwXxqBZ/uCBQvCCdkNGzaE5x03blzs+XzlHjVqVHjdlHvKlCmFNAbqbfz48cHSpUvD43Z0dARjxozx1qe+f3LtLgMGDPCm8Qk8dUI9Up/Uy9y5cwufpOY6pDw8V3Hpxo4dG9UBv/JMmMD3Pior8H/c80skxvzyf56K/NPKi5lGAzRmaSwXLlyITXf06NEoHYIm2xGeu3fvRvs09+7dCxupeyw6A0mze/fummNrTp8+HQq/rzyzZ88OXrx4UZens7MzLF8jgd+2bVvw7t0773mJ8PCdV5cbYSGdzsfkYd6GMG3atOD58+fect24cSMYOXJkTXqiSGR/XCQM4ui7d67Ak//169d156U8M2bMKKyx04nKsQ8cOFC3nw6F6B5fHZw/fz6YP3++CXwvo5IC/7cJHTViLH9jhTdTifoYaUcC+EOJZKCxfPz4MRg0aFBdGhqcTiPiR1omyXwNUU+iuWKphbIRhMK55aFTkfKkwRV4LMJGeW7evBnWTZZy5xV4rGXqN+kcXLeMHqAogW8EHSejlSIaeyOBZ1vacpnA9w4qKfBibX++6VH4P7/8z/ZmKlGPAv7RL73f+eDBg1GDwb3i7tdWPpYx2xD9a9euRdvv378fLFu2LJg0aVL4i/Uu+0iHe0OO5wrl+/fvQzfLhAkTQteELg+wTfLibnj48GG0j7+JymCyDhfL5cuXEwWeNHofYoKwUibcEnpUgLWo3SJuuT99+hTs27cvdKHgbvB1jlnQo45jx44Fw4cPD10wjFaoX9m3ZcuWKE/RAn/p0qXghx9+COsTF43uwCmD2+k1Q5LAExevy8OzMGfOnLB+6UDdUZcJfO+gcgKPAIu1/cWMDeE2fmVbFoEO887dUXe8tNB4pMH43DTahYKYsW3WrFnRtmfPntX5UlnMosUS8ZZ9WigRSToQ95wXL16M0iDKsh2fubZmXasSAbpz506swOPmkO2Is68uPnz4EKXRx3fLLXVRBHSAcl5+Xb83oxY6AASYjki2FynwjFp853379m2Uhs4w77UmCby+d0TZuHn19ZrA9x4qJ/BazL8c9KtflV+fSDeKjKEzEF++jAaygJUqlprrpqHBi1+WYboIgHZzaAHW6HhnrHrZroUSq9CXl5GEz2LFd95I0LSAaIGn7IwW2MYqyrjJQ+YFJK9eKanLjRAV2QC4B69evaoZSaWJDy9S4ONcMIyuJA2T6HmvNU7guR/iosJoiLs/zBeYwPcuKifw4o5BmD9feytCRFwLdSOB15E4WcIsNYioT4yx2HwWFb5x2X7mzJlg586ddcRZy1ooGR34yqNHCNu3b4+2azeGHhW46MlCEXjS6zLH5cUyl3SIva/cPusyL7pOpRP66aefwvLEuX+KEviXL1/GlktfdxHhlHECj3svzf3RHY4JfO+gUgKvLfUkxLJPQk+s/qWjfsIqLYRI4nag0eB7lu3aPaPDABtNrrrgG5e8WjB27drlLY92G2mBf/LkSbSdMMm467l+/XqdwGuhowOKy6sFCJdIlnLnARF33UsCbhs6AHdhUFECT0RQXLmY95B0zHnkvc44gU97f5iTMIHvXVRK4BHiyFJX1rtrxacRbD0SyOq3d5GwP4bJiKJ2z7gN+8GDBzXuCqx1l1u3boX7+Vs3xDwCr8+btIDp9u3bdem0ZZ4kDNqSlEnltOXOC3XOPAMhor5IISYZGd1I+qIEnnsUVyadrgjXVJzA62tJuj8WJtn7qJTAS7RLXCijRNc0Wqik/fjNhlZqcM1Iw0EUtHsGn7tOS5SH7EuzKEmTR+D1eUnjy6snLLXAE0Pus8xdtCBq/39PCLwGHzydDSKmJzqvXr0apdGiqCdfNSziaiTwHD/O56/dZUeOHMl9XXECP3r06FT3h3kAE/jeRWUEXrtUiIP3pdGrUZN86nqRlG9Va1Z/PENxCUPDTUNj5m9cN0TF6LTaD7pu3Trv8bBGebUr6PC6PAKPiDXKqzsm19JnophtjEx0PLlGT+LpqJHuFHjElfoHn9CyYEy7ayQNIYQ+sYy7nqRJVj0y0CCikoaJ87zXGifwXJM8f4xeeG7cvHTeem7HBL53UBmBlwnRpBWrOiomacFSd7yLRlvISdaUFmAEx13pSGM9dOhQlGbz5s3RvjwCr61JOh4ETucjdlxHo7gCr8MvsYR1fD7g5tB5dSfQnQI/c+bM6NjMH7jx5lyX7GfyVbZrkabzcl9XwH2RuZVGAs9EqxvuijtE548bNWUhKUxSr61w10+AjnAyge89VEbgRbgb+dfTdATdIfB6AkvwhUEi4LozwPJieTkWHla2+N9FiOPiybMKPOfVkTScl8lHJuXoUBApt/xa4HEnad82YZqIBuVg1KJXkrorU7tT4LHcdbkQN+qS+8GvXlOgI3tA72Pym/S42xBPLc6NBB44FvmoT+YB9MIiRgJZX+3rI0ngqWPtXmPBHNcL7qshTOB7D5UR+HaHBqzfhUIDj1u9iAsG695tdBoEZsmSJTX58gg8IIZ6pawLQvno0SOvwAOjAC0iPugs3DJ1tw8et5cryC5McmLN63yule2iRTpO4JlEj3s3j5y3iFWs0OhVBZQxqQ608WAC3zswgW8jsN6kAcXFqQu4BIhx15OAIuysikUU3Ty8eiDOShYIB5Q0vsU1hHViYbrCRjgmAiIvq0LI6RDc/Lh2tC9XYARAmVzXQNpy54WOjRWlbgdEeChiFhcayiiLl77p+mBRF52jfj0DryGQPIRlyoiF+8zoxrWSOR4jJLdTyQOT3VJOdzQi4CpzX7rGvAmjQ72eYceOHS1vL0ZjTOB7OVjzNFwiIVje3lPfQaWDQdBxAcW9LjcJRA7BID8Tyc26ILBu6TSaxZ3wpYOhHrNeF50ZebgPzd4DzscxqFe3cyz6OpPgXtCRcy08W0W4h4zWYAJv9Gp8cxdZwD3T6muw6zS6CxN4o1dTFeGrynUaxWICb/RqcGXwRapmSfqyUTtRles0isUE3jAMo6SYwBuGYZQUE3jDMIySYgJvGIZRUkzgDcMwSooJvGEYRkkxgTcMwygpJvCGYRglxQTeMAyjpJjAG4ZhlBQTeMMwjJJiAm8YhlFSTOANwzBKigm8YRhGSTGBNwzDKCkm8IZhGCXFBL6Xwbc5+bA1H2TmA8lZ8/Nln2fPngUXL17M9J1Oo/cwZMiQ8PmARYsWtbw8Ruswge9lIMryGbaTJ09mykvn8OHDhyj/+vXrW349RvFMnDgxusd79+5teXmM1mEC38vII/Bff/118OLFiyj/smXLWn497czRo0eDGzduBJcuXWp5WbJgAm8IlRb4z7Z3Bn/Y/6/wN0s+8jSiu25YHoGHqVOnBvv37w+tdwS/1Q9gO/Po0aOwnj99+tTysmTBBN4QKivwXw6bWCPIfx89M3Xe3izwRnpM4I3eTmUF/s9LTtQIMv+nzUtn4PLXKSuiY2UdEcCgQYOCWbNmBevWrQsnT6dPnx4MHDiwLp1P4Ek3d+7cYOPGjeGk2rBhw2LPM2LEiPDYWPJ6+8iRI8PtU6ZMCf//6quvwv8py4YNGxoe183P6GDGjBlh3qVLlwZjx46tSf/NN98E8+fPD0cSK1asCMaPHx+es1E9UW7Sb9q0KVi+fHl4zrh8vmuaNGlSsHr16nCyec6cOWE53HyTJ08O871+/Tqqa/4H8hfdCDkfdcT9W7JkSVhXaeqCdJKPX4Sd7SbwhlBZgf/jnl8iMeaX//NU5J9WXmxqNIAQHjx4MGqQGiZEESLd2F2B37ZtW2hhunmvXbsWDBgwoO585JE0OormwoUL0XYE5+bNm97y7Nq1y3sdOj/C+e7du5q8lBHXENeCMGvxFB48eBAb2TNmzJjg7t273nq6d+9eXQfilglx7uzsrMv76tWrmkiTPn36eM8hfPz4sbDGN2rUqODOnTve81A/HR0dsc8MkVS+fOfPnw87ThN4Ayop8H+b0FEjxvI3VngzlaiPkWUkAAhxkqCAFlUt8I24cuVKnZ89jcAjeknHXbNmTd116PyuuGtI5+uQtFi71iujm8ePHyeWif2DBw9uqkyUZ8KECWEeBD6pfHRyRTQ86r7RNQHWuZv3wIEDqZ8BE/hqU0mBF2v7802Pwv/55X+2N1OJehTwj371Q/44GO5rUV2wYEEYyjh69Ohg69at0b43b95E1rgr8IgRaXFDYOVu3769RqBcV0wagYfnz5+H7hOOiyV5+vTpmnPiftHHdfMfP348cgXpvMK5c+eCmTNnhsKqrxW4DjkuHZTuBO/fvx9G/1B3/NIhyD7SIdBxZSL2f968eaHlvHDhwuDp06fRPsoo+XBFkebly5fRfv6HJDdVWrjHt2/frumcGKkxclq8eHFw9uzZmg5F36eVK1fWXBOjP0ZM1DX16HZkJvDVpnICjwCLtf3FjA3hNn5lWxaBDvPO3VF3vLRs3rw5aohbtmzx7idED6SRuwKPP9nNpy08d38agUdUxG8tYFUjkJIGF4Her/MjUNoK529XiN2RBSGJsh8/tGxnXkK2s0Br6NChNfkQXB36KZa4WybO2bdv35q8dD5aZN167K5J1tmzZ0fnffv2bU2HJvV1+fLlKA3PgezTLh1cXu6xcTeZwBtC5QRei/mXg0aG2/j1iXSjyBg6A/Hly2ggC4ivNETirVmB2CiPFnisNd9kHNa1pDl8+HDNvjQCj1/fd25cIDI6ePjwYc0+1wfv5kWMZL9vBS4Tpz63BH/LdqzbRvWoY/t1mb7//ntvXjoNEXG3LrtL4HXH7uuggclwLHKQ0RKdInMA0tnFhbnqe2wCX20qJ/DijkGYP197K0JEXAt1I4HXkThZJlaFcePG1bhTaLxMkhFJw3Ddl0cLPD52XxpcCZLm2LFjNfvSCLxPoAWEXURPT+Lq/PjM3Xy4jmT/d999V7efKCCfwLPcXrafOXMm2LlzZx10jpJm37593jIhmL7r0e4fVzC7S+C5DjmnRL6kQbv0OEZcOtw9JvAGVErgtaWehFj2SeiJ1b90HGj6BhBREjeph8AQDqiFJ00c/PDhw3MJPPnjyqvFSbtxdH58zG4+LfD4i939cQKfZiJSg2sjbZlAu0J6SuC17991GyVBKKTko2OLS6ddQCbw1aZSAo8QR5a6st5dKz6NYOuRQFa/vYsMx7WfWsOEpIhPTwg8k7xxZdXp4vzdRQo8oZOyHf8z1rrLrVu3IjeXFrR2FXh9n32jnTi0fz1JuC1M0hAqJfAS7RIXyijRNY0WKmk/frOhlXHg58bXrN0OIH7YnhD4uPhrILqGNEzEakHsLoGn/M24M9KUCVoh8EeOHKm7r2mg45V8Se/HYdRnAm9AZQReu1SIg/el0atRk3zqepGUb1VrWn88w3P82HHio/3PNFq29YTA//zzz97j6hWShPnpfd0l8NqfzNyEr1wIMxPUoM9dpMD7Fo01C5PMck5fJAwwB0PoJi4x6oZtTAJLGCShs75JecJEtXFgAl9tKiPwMiGatGJVR8UkLVgq6l00MsGHNeyL8tCWnkSH9ITAA3MDOh9L+rU/3I3O6S6BJ61sp55cixfRO3ToUJRGhxTmFXjtShGRLQLEW9e1+852OhNd10QYuc8MuHH/sHv37ppjm8BXm8oIvAh3I/96mo6gKIEn9l0aIpYZjRP3CAueWCgk+4iukXem9JTAI6b4/llFS2SKnhhkUZYbldJdAo+AazcN9UQMPuGFLMQS/7tY2kQQpS0TJAk81y/7WPREPegY/TzotQrUNWsHuJ6ffvqpRtw5r56IJXZfv9OfTojnBoiq0vfQBN6ojMC3IwisnkT0gWjpD3P0hMBr0XShs/H5jbtL4AHhxefcqJ5c8c0r8DpqRV9/EfeejkuvWPWBG8YXsqrXDPjQ988EvtqYwLcYhIdGKJOX2lJlCO6KIVEXstiF1Z++YyLcEnqJ+0LvkxWjHENHcGgxZLUoFqG2FIHOiNGF75zyOgLy+EL/9MSfL8ZfL87yLf7hjZlY0Kz8dIWdsruvZEhTJhAr/f3793XuDkSYVwOIYJKmqHfRyL2nnt0Xr/E/15QUzYQf331myIcxQHSTbNuxY0fLn3GjdZjAtxG4YXAx0LDTvC62SHzWLoLHWxopE6Lf02XygZXNa4CpI5b499RHS+hgZEIcsKybxX1jJteAy4triluQ5YP7Ifmok3a4P0Z7YQJvhKRxZxi/ohcSNQORQa2+BqMamMAbISbw6TGBN3oLJvBGiAl8enDV8LrhZnHfiGkY3YUJvBFCBAqTvbzjxHy5hlEOTOANwzBKigm8YRhGSTGBNwzDKCkm8IZhGCXFBN4wDKOkmMAbhmGUFBN4wzCMkmICbxiGUVJM4A3DMEqKCbxhGEZJMYE3DMMoKSbwv8H3WL+YsSH408qL0ef9NGxjH2lI2+obZxiG0YjKCzxiLd9hzQJ5TOgNw2hnKi3wf5vQUWeti5X+99EzaxDr3rXqOUarb6JhGIaPygr8XzoO1Ij1F3N3pLLIQ1dOV1qdl2O1+kYahmG4VFLgtbh/vulR8OWwiZkrjjzkbbXI8+HsjRs3BidPngxu374dXL16Nfw+Z9Y07cawYcOCK1euBE+fPg0/fN3q8hg9z5o1a4JTp04Fx48f77Fv75aNygk8LhUt7nn86OTVIt/T7hqE+86dO3WfhJswYUKmNO3I1q1bo7K+efPGPkJSQc6ePRs9A3yQvtXl6Y1USuARZPG5pxF3Ee5GxxSR59g9OfG6fv36GtHGOj9w4EAwePDgTGlawdGjR4MbN24Ely5d8u5fvXp1VObHjx9XSuCnT58e1g0sWrSobe9Rd9MdAt8uddtTVErgdbRMGrdMGoEHjqWja3rq5p04cSJqAMuXL286TSt49OhRWKZPnz559/Nd2E2bNgX79+8PJk+e3PLy9iSLFy+O7hl10K73qLvpDoFvl7rtKSoj8FjWekI1TeWkFXjQE689ZcXfunUraoC4YppN0wpaLR7tTLuIUKvvkQl8fioj8IQ5ZhXgLAJf04F0nauZmzF16tRgxYoV4YOHtc1w0ueaIB37nj9/Hj2s/A/sS5vGhQ6go6MjWLduXQh/p3XlYGUvXbo0nMzlA95jx471lp10lOH169d15Zo0aVKUjryyfejQodH2cePGRduT3DZy/b65hjzX2QyUc/z48VH9cL4xY8bUlZ8yUObdu3dHdXPs2LHoen0dNMegrjkmx162bFl4zXGTkkyuc6wpU6aE/zNSmjVrVph37dq14fHS3qMi6Nu3bzBv3rzw3LgT+XvgwIHhvjQCz3bKtWrVqjD/7Nmzg2+//bYuXTN1m6VNtiuVEXiJYec3beVkEfhmzwE09rt379ZNhMK9e/fCBqwfVF86zahRoxqmcRsMk5rv3r2rS/fhw4dg+/btsWXnXL5JXEAgEB5J26dPn8Qyffz4MUqLkMt25gxku4xIIK6jQsQkDR1cEdfZLNOmTavpZDX4gXU007Zt2xLrx7U4J06cGPvccI3z58+vK8+FCxeiNPiguW6dj44h7T3KC2L84sWLunN0dnaGopok8JST+qI8vnKeP38+GDBgQNN1m6VNtjOVEXiZXM1iXWcVeBklcK60ebAcmERMevjYLxYm6RuJtxa4OMRKAqynRulJ45YdS6lR2QHrkPQIPMP9uHSIjRw7TuA5lmzfs2ePt043bNgQpdm7d2/u62yWuXPnxgqQQISQWJw6csgH1yXHxsp2xdmFunYnErXA++4Fwpn2HuUBAeXaG92POIE/c+ZMwzwYA4wQstZt1jbZzlRG4EWsWZWatnKyCjzHzpKHxnTt2rXoobl//344xGYYzC+WguwjHQJJvuHDh4eWs34I+R/YlzYNMCTWDRpBnDFjRgh/azFAsCQfQ3sicvQDjzgiPPg5tfWFKIiIEd9OGV6+fFlXLvbJ8eMEnjRSXmLkfcNlXS6s3DzXmQddB7gDqPf+/fuHliv3WvZt2bIlqlPqAWtS9u3bty+qH/bLsU+fPh2luXnzZrBw4cKwznCPEfUi+1hLoMukBR4YfRFv/t1330WT2WnvUbNgWT98+DA6Nn8TNSXPzuXLlxMFnnuq79fmzZtDlxPuEyx13XFwf7PUbbNtsl0xgY9BR8akrcysAo/vUx6WZ8+e1fiapaHpIazrTxYhYzged45GafTDLEKjwW0h+xEV2Y5Iyfa3b9+GFpnOh/Dqhkoj1PsbTeDFCTxoAXPdNCNGjIj20RjzXmez0PDFwubX9YlTX3QAXAu+Y70vzUQgHQZ5z507V+dz5n99brFiQQs8daLdGC7dNcm6YMGCqAyIMQKr9yO2rttPCzzPHtcOdAzu8XWHjeWepW7ztsl2wwTeA+IuLp3PdrxJXZlZBV67G3jwfGl0PDgWhN6XV+ARYfFH05h9+UmDT1QsZtmOYEu5fI0MEFsaGIglJeQReN1ImTTT+3TcvwhnnutsFo736tWrqCxM0KWdnCsi0kOPHrSAaoH3+eiz3KNm0f5wJkcb3X9X4BuBta1HTlnqNm+bbDdM4B20uPOb5TUGWQWeZdjyoOBT3LlzZx1MxOkhpc6fV+CJ7NCNyHd+0GnEWtQ+UHGDZCGPwGPhMWoQMdbCqcNChwwZkvs686Dvr5T1p59+Cieek0JWswg8cykShUJHivXKAiV93jiBb+RD7i6B151PkgWso3h8Ai/RSUzIIszcw4MHD9a0mawCn7dNthuVEfg0k6x5xB2yTrKmmaDU4PLQ+fMKvH7Y04Kfk7yIlWzTLoC05BF4OHLkSLRfQv60e4YoiiKuMw9xr4kAXCeIiW8RVxqBx7WCeCVNiDYSeO3Tb+YeNcuTJ09SPTvXr1+PFfg5c+Z4I3Bcsgp83jbZblRG4BuFMOYV9zTncHnw4EH0oCAEsoRaIxYpf+uIEMgr8ERY6IfVd36xVsjP3xIepiebmllAlVfgcfnIfnHTaPeMjh7Jc515wfeOzxm/vi9qhPPh99V5GokQlquufyBaB3Hifus5inYUeP3cJ7le9GS5Tkf9uB0b7jUmRJlX0HWTVeDztsl2ozICn7TQqQhxb2ahEw+fPEzNuDnyCryOl2c4muXc2oJ2/etpyCvwiJyMIsRNQzQJ/yOkWrzyXGeRUEb8w4iCuJiAt3vqdI1EiIll2c9xsGbdaA4dZdNuAq+f+7iRkp6kdgX+4sWLNQLuToTi9mlW4PO2yXajMgIf96qCIsQdmnlVgY7LZkWlLw0WIL5kcBtkEZOs4udkuBvX4GlcnF/7bJkck7LzvhhfPtwPCA2i6oYeavHwRXI0EnjQk3XaSj906FBh19ksnJPrAt/kKiMEKS9CptNoEdq1a1ddXj3B7asbxFH7r4sQ+KRom6zokZbv+oDnRVvoIvCu8PvmSvTxkwTed+68bbLdqIzAg/uysaLEvdmXjWG96EbuWsI0esRK0rihhkWESerhPCF3riWI0IprgWNIuB/irRugu6AGQdD+TCbC9H49jPbFnacR+LgVuz6rsNnrbJaZM2dG58OX7AoBMfGy343aYRJW9jEqcY+tRch90yPPDB2uro9mBb7RPWoWHYpI58EIxK0bHYGkBV5HOwErhXVerHftm3cFvlHd5m2T7UalBF6/LvizrS+6/v6v3OKe53XBPCx6SIiw8PZHwrCwQvSyfBqCGy9chMAzDNVL91meTaSAvMlRW0tEZ+i8CK9uDERHUG4iRbS4s2DGnUxDZPV+ohFYpCP70wg86Ik4iHu1cJ7rbAY6OO1zxzfMfSWGm18tQm6op+48ue9M5BElIvefGHp9zYyQ5JnB3eN2eM0KfKN71CzcHx1Jw31hwpn7gXjqBVauwIN+QyqdI5Y4BgTPnTvP4Qp8o7rN2ybbjUoJPOgPfvwqyv9ViLg3+8EPLEV3UsyFB8nXsIoQeMCCarSkngdbv97A11B90OBcCw148ZabNs27aFz42pM+hm8RU97rbBYs7UZRLkzk6ZXF8kzolZ6C9hknLdXnnNrKbVbgG92jPNABuhPF7nMjLiJX4LGy9RyGi47wcgU+Td3maZPtRuUEHvQn+7DkW/3JPgQF68h9aHmIaJBxL9WS1ZkMZ+OOnSYNEEstk5QarCkefpbY+/IhElig2ucL/E/ZR48e7c1H54A4i0X0/v37mvec8D4dEUfXwtXQ8MX6Jj2hkt1xnc2CGHE+970xhAoy2RoXJoiVjjXLM0Ferk3e6SP1h8XrWruIF+4UcdOQT79eQCZf3RWuzdyjvHCvKI/bCWJV08GLpc453TkAXDHUq+6w+Zvrpu7kmMTFZ63bPG2y3aikwEM7fnQbywFhQxR5CFvxHUpCHlk8gtWXZbKRstJgKXsjkXWhMdGAe3LCqtF1UhYs/mZxJ//w+XNPOV+WEQL1St3QkcWthKW+Oa4s7OoO9D0qum44NoKetW7kPtFmyJ91PUaaum2HNpmHygo84FIRn7xADDthjqxKBSx1ftkmce6/u3d+6fHvsBo9g37XTjMU+VbKdsPqpvdQaYEHLHIdXZMW8vTk91eNnsVEzOqmDFRe4IXQ9fKble5a9WKti3Vvwl5+GLrzCt5mcRfflAmrm96DCbxhGEZJMYE3DMMoKSbwhmEYJcUE3jAMo6SYwBuGYZQUE3jDMIySYgJvGIZRUkzgDcMwSooJvGEYRkkxgTcMwygpJvCGYRglxQTeMAyjpJjA/4a9bMwwjLJReYG31wUbhlFWKi3waT74IdgHPwzD6G1UVuDb8ZN9hmEYRVJJgdfizoezW/3R7TzwbVE+GHzy5Mng9u3bwdWrV8NvSGZN027woegrV64ET58+DT/83OrylI01a9YEp06dCo4fP96j3xlt1XmrSuUEHpeKFvc8fnTyapHvaXcNwn3nzp26T6LxxfksadqRrVu3RmV98+ZN7EeRjeY4e/ZsVL98dLrs560qlRJ4BFl87mnEXYS70TFF5Dl2T068rl+/vka0sc4PHDgQDB48OFOaVnD06NHgxo0bwaVLl7z7V69eHZX58ePHJvAFUyaBnz59evgswaJFi1pet+1EpQReR8ukccukEXjgWDq6pqdu3okTJ6LGsnz58qbTtIJHjx6FZfr06ZN3f79+/YJNmzYF+/fvDyZPntzy8paNMgn84sWLo2PyzLS6btuJygg8lrWeUE1TOWkFHvTEa09Z8bdu3YpEEldMs2laQSOBN7oXE/hqUBmBJ8wxqwBnEfiaDqTrXM3cjKlTpwYrVqwIH1KsbYaePtcE6dj3/Pnz6MHmf2Bf2jQudAAdHR3BunXrQvg7rSsHK3vp0qXhZO6SJUuCsWPHestOOsrw+vXrunJNmjQpSkde2T506NBo+7hx46LtSW4buX7fXEOe62yWtPcW+vTpE13jt99+G26jfAsXLgzrF0GbOLHxCLRv377BvHnzgrVr14auOv4eOHBguK87BT7vednOta9atSrMP3v27KgeNNQJ6Xbv3h0d89ixY1HdxRk0We5Fb6cyAi8x7PymrZwsAt/sOWDMmDHB3bt36yZC4d69e6FY6ofal04zatSohmncxsWk5rt37+rSffjwIdi+fXts2TmXbxIXEHHEU9IiXEll+vjxY5QWIZftzBnIdhmRQFxHRYSQpKGDK+I6myXLvRW4LkmDeDFf4ct/+vTp2I4JUXzx4kVdns7OzlDcukvg85yXqJpt27aFz4Hves+fPx8MGDAgSk/apOfJteabuRe9ncoIvEyuZrGuswq8jBI4V9o8WBlMIiY9qOyXhkz6RuKtBS4OsagAS6tRetK4ZceqalR2wOokPQKPSyYuHSIrx44TeI4l2/fs2eOt0w0bNkRp9u7dm/s6myXrvRW0wDeCkEP3vAgZkUdpj1GUwOc975kzZxrmoYNnhEB6HWnlg+cg773o7VRG4EWsWZWatnKyCjzHzpIHi+XatWvRA3b//v1g2bJloauCX6wK2Uc6BJJ8w4cPDy1n/cDyP7AvbRpg+KxFF0GcMWNGCH/LdtLMnTs3ysckKBE5unEgjrhgcCFoSw3hliE28e2U4eXLl3XlYp8cP07gSSPlJUbeN7TW5RJXRrPX2SzN3ltwBf79+/dh3eJuGj9+fHDw4MGa/WyTvFi4Dx8+jPbxNxFJcl8uX77cLQKf97zcJ30PNm/eHEyZMiV0n2Cp646DeybPIM8Nlrrs27dvX/Q8sT/vvejtmMDHoCNj0lZmVoGfNWtW9GA9e/asxtcMiJke7rr+ZBEyXA5x52iURj/4W7ZsqduP20L24xKQ7QzFZfvbt29D603nQ3h1o6bB6v2NJlnjBB4IrZR9rptmxIgR0T4abt7rbJY891YLPPVD5+Qe/+LFi1EaBFS2L1iwINqOKCJ0Oh+i57rUihD4vOfleeK+Ah2De3zdCWO5632NJlnztrPejAm8B8RdXDqf7XiTujKzCrx2N+hGqtHx4Fgbel9egUeExR+N4Prykwb/qVjMsh3BlnL5GiQgtjRGEKtLyCPwukHjo9b7dNw/f+e9zmbJc2+1wGNt+vIyOejrsLRfmknKRnVblMB393mxtiUfE6lxz4NP4PO2s96MCbyDFnd+s7zGIKvA4z+Vhwr/486dO+tg8YYefur8eQWeob1ucL7zg04jrhbtL00T0eGSR+CxBhk1iBhrN40OCx0yZEju62yWPPdWCzwTrL7ja6tUTw5r11iSJaqjmIoQ+KLOy73kfjEhizBTT7ikdF1lFfi87aw3UxmBTzPJmkfcIeska5oJSg0uD50/r8DrhpEWfKLkRVhlm0x6ZSGPwMORI0ei/fhq2abdM0RcFHGdzZLn3mqB37Vrl/f4lM8n8E+ePEl1X65fv16owBdx3jlz5ngjcFyyCnzedtabqYzANwphzCvuac7h8uDBg+ihwj8py601YpHyt44IgbwCz7Ju/WD7zi+WDfn5W0LJ9MRUMwuo8go8Lh/ZL24a7Z7RS9bzXGez5Lm3eQRenzdJuPVEdBECn/e8iLQbYYXLDBcV8yf6ecsq8HnbWW+mMgKftNCpCHFvZqETD6o8eM24OfIKvI6XZ+ia5dzagnb962nIK/AM5WUUIW6amzdvhv8zyScRFHmvs1ny3Ns8Aq/PGzcKIUqEyKYiBT7vefWkMcdyJ0Jx+zQr8HnbWW+mMgIf96qCIsQdmnlVgY7LZkWlLw0hXviSQYsWFDHJKj5Rhsbu8QUaIufXMcJMpEnZeV+MLx8hckSkIKpu6KEWeL14RWgk8KAn9rSVfujQocKus1ny3Ns8Aq9HMXF5uRfaUi5C4POc1xV+3/yHPn6SwPvOnbed9WYqI/DgvmysKHFv9mVjupHygLuWMMKEWEkaN9SwiDBJHXJ47ty5uhhghFZikDmGvMMb8daN1X2LH6KtfZ9Mmun9esjtiztPI/BxK3Z9FmSz19ksee5tHoHXk690nvi1dT7WQLx69apwgc9zXh3BBNOmTavJi/WuffOuwLNaWvYxiiu6nfVmKiXw+nXBn2190fX3f+UW9zyvC+bB0sNHhIW3PxKyhcWil+XTaNzY4iIEniGrXrrPUm6iCuRNjtqyciM6EF7dcIikoNw//fRTjbizqMmdeENk9X4iF3iHjexPI/CgJ+0g7tXCea6zGfLc2zwCz3l1RAvnJYqEa0XE9AKzIgU+73n1W09xuXHdGAU8S+7qWFfgtbFBXTJJSgSO1GnedtabqZTAg/7gx6+i/F+FiHuzH/zAUtTWpQ8eOi1+QhECD1hbce//EGgE+vUGvkbtg8bpWnPAi8nctGneRePC1570MXyLmPJeZ7M0e2/zCDwwetIjJN89ERdZUQKf97xcj4S++tBRW67AU896Fa2g/fF52llvpnICD/qTfVjyrf5kH4KCBes+4DxwFy5ciH2plqzOZOgbd+w0aYDVkjJJqcHyoqH079/fmw9/JVEsOr4Z+J+yjx492puPzgFxFuuJ5fj6XTS8T0eiKtzFTBpEQqxv0hMq2R3X2ZP3Vsftu6s2BW21+iYWqQfmP9zIFKxbOk+xmKk73xxIs+Q5L64Y7o3uhPmbERYrpeWYxMW752U/IwXqmWOTVt6BlLed9WYqKfDQjh/dxspA2BBFHthWfLOSkEcEhmFqlslGykrjpuyNRNaFhkdj78nJrUbXSVmw+JvFnShs1b2lbhFWrjNpZIK4NnutvjmPtOf1Qd1TV+TPusaCeuVZouOPewVwO7SznqKyAg+4VMQnLxDDTpgjq1IBS51ftkmc++/unV96/DusRs+g37XTDEW+lbIncOcysoBF3OryG34qLfCARa6ja9JCnp78/qrRs5jAm8CXgcoLvBC6Xn6z0l2rXqx1se5N2MsPw3y+oNQs7kKddgeffrPXSohkq8tv+DGBNwzDKCkm8IZhGCXFBN4wDKOkmMAbhmGUFBN4wzCMkmICbxiGUVJM4A3DMEqKCbxhGEZJMYE3DMMoKSbwhmEYJcUE3jAMo6SYwBuGYZQUE3jDMIySYgJvGIZRUkzgDcMwSooJvGEYRkkxge8FrFmzJjh16lRw/Pjxwr4fuXjx4vCYJ0+erPkmKV8ievbsWXDx4sW674oahtG7MIHvBZw9ezb6PBofEy7imAcOHIiOyceN2cbHjvkivWxfv359y6/dMIzmMYHvBfSUwDM6ePHiRbR92bJlLb92wzCapxIC735fNalC+ObqZ9s7a9LzLdYvB41seNws58lCTwk8TJ06Ndi/f39ovRflDjIMozWYwCu+mLsjVqz56Lb7se0yCrxhGOWhEgIvJAkvFrq22P8+emYIf8v2v3QcSDw++yXtn5ecyHQj+vbtG8ybNy+c5MR65u+BAweG+9II/KBBg4KOjo5g3bp1IfytJ09d4gR+xIgRwfTp00NLXrb1798/3Absjzvm0KFDo3S+cmYpY58+faJjyWTvqFGjghUrVgQbN24MpkyZkrpc5Jd0lCFvo/nqq6+C8ePHB0uXLg3LwnWMGTMm3N4oL/XKNWzatClYvnx5WKY0+RhNzZ07N5xw5/ng7wEDBsTeMxg7dmy4fcKECbHH5TpIk9TJ571vpF24cGFYV0zuT5w4MVU98wwtWLAgbBOcd9asWakMnKxtocyYwP+GWO8+S/3ztbfCffzGHRtBb1bcZ8+eXeP7Fjo7O0MxaCTwW7duDd69e1eXnwnT7du3e88ZJ/BE1ch2aaB0NrLtwoULsddx9OjRKB3lzlNGxErS7N27N7hy5UpNPo6ny8X+uHIdPHgwSvfjjz/majDTpk0Lnj9/XncdcOPGjWDkyHpXHtAB3L1715vv3r17oRhnfT5evnwZ/PDDD2E0lHvP4OHDh+G2V69exR77yZMnYRquybc/z33bvXt3zTOhOX36dKLobtmyxXteOHfuXKzQN9MWyowJ/G+IQPtEXLtukvI2I+40/Ddv3ngfZB/ug4110ygPadzzZhF4omukjB8/fvRawViYOo0bepm1jFoofNCQdbk+ffrkDevEOkYIJQ2jjGYbC1Yz15ZULsrjloP6evz4cWI+9vsEr9HzwTXpyKciBb477puGjslXJkYojfJybcOGDSukLZQZE/gUJFnwTMpqvztp/jplRarjMsSWRigP7erVq4PJkyeHQ9nLly8nCjwWLA1c9mHpzpgxI4S/tQggTvrcWQQetBWMa8G9Fm1NM+LIW0ZXKNi/b9++cLitXS26XKtWraorF+eR/UmjjzTokdSxY8eC4cOHh24iLOz79+9H+7A+JQ8d37Vr16J9pCM6adKkSeEv1rvsIx0ujrTPx6VLl+qej6IEvqj79v79+1BUcRPhDtL3C9imz7to0aKa8zICoCzc823bttWMZChHEW2hzJjANwCxlnxY8u5+7XfXpLHk8S9qyw8fs96PhXrnzp1YgdfCoUVFYEgq+xkS631ZBZ4GliSUeiiOCOctoxYKGqU+pkaXy+em0deJKDbbUBBesZT5dSOMsLTpABBdvX4Av7GcnwVk7ggCK1SLlvaXN3o+mLe5fft2twh8UfcN4XXzsogu7p7g5pJ9hw4dqsuLYIuQUye0kbxtocyYwCfw5bCJoU8+tMw3ParzzQPb6ASYkP3bhI4wnZyHbUnHxyJJsj4B8fUJPK4H8TU+evTIm5c0+PFJ8/Tp05p9WQWeY4mbwXXTIHavX78O93E+Eb88ZdRCQScXV4e6XK6bRrtn3r59G4lBM3AshFKPYtJMjjKx2KiDwSqXNHrtQZrnA9EvWuCLum+MVnx5qbu40Q4WP9vp9OjAfPmpI1x0mzdvDjvevG2hzJjAx4Boi7jzi9inyaejcRpF3eghf1Kkg4inFniGtrph79y500tc488q8EBj9AkRQ17ZTgy9bM9TRi0U+pg+dLm0EGr3zJEjR3I3Fj2ZKULx008/haOLuOgcnefMmTPe69dWK26orM+HdGJFCXxR941Rne+celSjJz65Rtmu3XyNyNsWyowJvAftlski7kKaqBvduCDOWoHr16/XCTzWoH5g04A7Q47ZjMATjifD4/Pnz0fbtXuG8EXZnqeMWih27dqVWI+6XNpNQ8cgx0Ds8zYWRNx1mQm4bRBz/OM6T6PJVRfmXbI+H9oXX4TAd/d90241LfAYDVqk096XvG2hzJjAO+iImSRxj/zyMzbU7RM3TSOBf/DgQZ1w+9B+VknHZJR+YLECfbCP4St/61C8ZgQeJFwRNw1l0e4ZBEWnzVPGLAKvyyVuGu2ewdJO405JA9eLbxw/ri+6hevAQvXdYzoH3/XfunUrqh89cZj2+dAGQBEC3933LU7gGQnJ9kajtqKes7JjAq/Q4Y6NLHdx37iTqdpF02iilUiMRhaFntzTDV37Xhn6Z73xzQq8trJY6KPdM/ibddo8Zcwq8Nqvi5tGu2e6K/6ZToNoGEQZH7+c7+rVq957nHaBT5bngzLoc/sEHlGLyyu+ay3w3X3f4gSekZivDhuRty2UGRP439DijgXeyC2j02PFy2RrlklWHe8b1xi0gGqBp3GK5cyEVNwEIumHDBlSF2PdrMATuieigJsG37ZYzm5ccp4yZhV4XS6seXzZkn/06NG5GwrXwjnANxrAIpTz0SFLGh2bzapK37EZFXD9oOtIPx8sGvLlJURTPx/6nmnfvu9e6gl8d5K1O+9bnMCDTGRzL+NWJ+/ZsycU8sOHD4d1l7ctlJnSC3za98U0SuemR9Ddl5JlDZPUk00I5Jw5c2r2E2etIzfcobr2vbK6T8dQSwMWNwINRof2NSvwoC1LgbL40jZbxqwCH1cuRK6IhjJz5szomLhEXBHhXsl+HaWhxQzhd+cCECfCASUNkSFxz4cbckiH6j4fcRPpbugg9Uy4q0/gu/u+JQk855J9uCbduQdWIut6lnLlaQtlxgQ+ZTqf9Y/I63fVAKLv88v7oHHrSAkePCbqmGCi0evoCJ/AM+TXy7JZCk9e3nOCD1O7dtyIhjwC71qNEBcC2GwZmxF4X7niwguzguWufe7EXRPeyDn51bHs2trmHuuOh7o4ceJEmAcLXfzvIuI61r2Z50PfM14XoY/NIiNcbIwk9AIrn8B3531LEnjWE0g4IxD2SH1u2LAhFG59Xr0qNU9bKDOlF/h2B+FwG5sGUeEh9wk8YPU3Wj6PiMiLy4Q8Ao/w6Pex0LCSYsybKWMzAu+Wi0ZdxMvFBARFr5b0wUQq1rzOh7XoW3Wq4bhLlizJ/HxQr1oQ9T3jnuDLTnq24gS+O+9bksDLfi3IPnDRuM9cs22hzJjAtwH4GonKcMWDkDnEF4tPBEveIKhh6H7z5s26hxkLDwuG5fRuHqwiERb9giwJeYx754yg44rTWERZy6hjm1nUkrYudWhk3LtO8oD4cB2uABGNwmRrXDgjosK8gJ4QlfrHVeK+CTLN84FY4fKJe9mYnJf9uhMA3B+cUzoPNwKqO+8boaSShmP40uAS06tTpa5YPMVkflxUVDNtocyYwLcRNEYEnWF6M1YGgkwDI3+7TiR1dxn1Wyfnz58fbcfaw8JrFlc48fHiTsh6r7Dm6VCZ+CV/Fl+wfj5055sk8AKCSD43b7vctzgYscp5s6xE7g1toScwgTdKg46jxiLVVp7PP5+Fdn4LYRqBN6qJCbzRq0HEeV0A0TLaheH6s03gjSpiAm/0avB5u2J8/PjxujA55i74qlCz5HmPfHdjAm/EYQJv9GrkfeuEEzLZ63tXfdlhqT4TvEycJ72zxqgeJvCGYRglxQTeMAyjpJjAG4ZhlBQTeMMwjJJiAm8YhlFSTOANwzBKigm8YRhGSTGBNwzDKCkm8IZhGCXFBN4wDKOkmMAbhmGUFBN4wzCMkmICbxiGUVJM4A3DMEqKCbxhGEZJMYE3epQhQ4aEH6gA3mPe6vK4rFmzJiwbHw3J8r3UvAwbNiz8nuzTp0+DlStXtrwejHJgAm/0KBMnToy+PsRHKlpdHhc+HCLl44PPPXXerVu3Rud98+ZNzfdkDaNZTOB7IdOnTw+/QQrtaAUnUVWBb3TPVq9eHZ338ePHJvBGIVRa4D/b3hn8Yf+/wt8s+cjTiO68aYsXL47EYNOmTS1/iLJQVYFvdM/69esXbt+/f38wefLklteDUQ4qK/BfDptYI8h/Hz0zdV4T+OYxge9998zovVRW4P+85ESNIPN/2rx0Bi5/nbIiOlbWEQEMGjQomDVrVrBu3bpg1apV4ZB+4MCBNWkGDx4cbufjyiIWx44dC7cBx3CPy1B/7NixQUdHR7Bx48Zg2bJlwYQJE2InEEeOHBkea8qUKVH+SZMmhS6EtWvXBnPmzEklfJxz6dKl4Tn5RdjZnkbg85YZa5i6JC9ldt0dfJh63rx54b7169eHf0tdFy3wae8ZZZRtQ4cOTbw+6mHGjBnBhg0bwrqlrnR6yj1//vzw2lasWBGMHz8+lctn6tSpYXo6ID5ezjnNVdS7qazA/3HPL5EY88v/eSryTysvNjUaoLEePHgwavyaDx8+1AjUtm3bvOniLEPE9O7du9607969C0XALc+FCxeiNDTwzs7OuryvXr2K9f1zPSdOnPCe8/z58+E5kwQ+b5kpF/Wm82mRmj17dvDixYu6Y3OdiFvRAp/2no0bNy7aduDAgdjro4OlHvQxPn36FLp2uE6E+fXr13XnefDgQfDtt996yzhmzJjYOr93715dB2L0Hiop8H+b0FEjxvI3VngzlaiPkWUkANeuXUsUANi1a1eYVkda+MCik+Pix3WFzgVhcIVai4krJG5erGr3ehCnRtcTJ/BFlJn9bh4ReISMCJW05StC4NPes7QCn3RPSOe7fi3WrkXOCIJJ3aQysp+RSKvFyshOJQVerO3PNz0K/+eX/9neTCXqUcA/+qUXBVwf0oiwihcsWBC6F0aPHl0XNjdgwIBw36hRo0KrT/bt27cv3Absl2OfPn06SnPz5s1g4cKFoYgsWbIkuHTpUrSP2GtdJi0mcPHixdCFwfE5BnHaso9z6LzEb+u8jEywOBkJcD2uOLkCX1SZ79y5E8azf/fdd9GEJfX38OHDKA1/43ZiP/7xy5cvd4vAp71naQUeiNGnTnGp6DoTzp07F8ycOTPsgN0Ohk5OjstoSxsY9+/fD91hPJf80iHIPtL16dOn5YJlZKNyAo8Ai7X9xYxfrSd+ZVsWgQ7zzt1Rd7y0bN68OWpAW7Zs8e5H2EAPr9NM2OHnJR+N3R2a879Yyvzik5Z9Wkxo1HofICrastP7EFbZh8vALROWd5LAF1VmxNw9N52n7jARV70fodXlL0rg096ztAKPC0lb4fztCrE7V3H06NFoP52lbGeeQrY/e/aszvfP4ivtzvKN2Iz2pnICr8X8y0Ejw238+kS6UWQMnYH48mU0kAUd+0x8NKs80+QrIiJD+5q12Gkx+f777715EQP24w4QsUFUPn78GIlF3IToyZMnYwW+iDL7fPSgfeFMYvvSaJFtV4FnROTmpTNNujbmFmQ/E8+ynb9lO+Vr9Ixi1RdVH0bPUDmBF3cMwvz52lsRIuJaqBsJvI7EyTKxKtCotc8UgWQikkiapFjoLAJPdIhEjDBcR1S1RZckliNGjPAeUw/rRci1u+nMmTOx5aEcjQQ+T5njfMW6c0iyRPUEZTsKvC9Savv27dF+3FLu/rlz53oFnlcy6Hu2c+fOOjA8tGupu4TI6B4qJfDaUk9CLPsk9MTqXzoONH0DiHqImxh79OhRKAauNZxG4HFT4PJImnRrJJbap6/R/mopG+F6sg1hiLteoljiBL47y/zkyZMojet20ly/fr2tBd53fVrg8c27++MEvtHkqgv3vaeEySiGSgk8QhxZ6sp6d634NIKtRwJZ/fYuWMpYqtqXqsEnrUW+kVi4flkZHdCgb9++XTNhWZTAa/96kuslLkyyu8tMmGAa4eZcVRF4XSfMP8irFDS3bt0K9/N3Oy5MM5KplMBLtEtcKKNE1zRaqKT9+M2GVsaBiwEx0ENjYGGLpGkkFnoi9O3bt6Hf1o2A0NEXRQg8kT+yDTGOuz4dTaIFo7vLzMggSQSB8+kwzbILvK4TWYhmlIvKCLx2qRAH70ujV6Mm+dT1Iinfqta0/nhcBRL+6NuvfaRaFLRYSIy8RkfnuGIBCJn2NRch8FjgEgZJlIpvwpjz6o5LC3x3l5lVnUl1BloIu1PgfedvhcDr+RDmfXzl5v5yLyGubo32pTICLxOiSStWdVRM0oKlot5FI5OVWI2+iJUjR45EDVBHMLCEX7YTL+7m0w3XtaYRYh11UZTA6+sBX9y0Xq7vCnx3l1mHBOLjd6NRhg8fHq5F6C6Bb3TPWiHwpJXtPIN6lCj1fujQoSgNnXB3ipFRPJUReBHuRv71NB1BUQJP7Ls0HqxfBBAhIGabxSyyD1+0FhsibLRYIbg0XBE9FrNooSJCgnA3rNirV6/W7CtS4HGzaBcHPnWuCVic5J5XC3x3lxmx0pE01DcjJCaEEbGXL1/WnaNIgW90z1oh8NSJdtNQJ7xmQupd/O9SZnftgNH+VEbg2xEW7+iJLh80LBqbzoeo6lWZgnbjIJBJx9TvmClK4EHHXPvQouFO2nVnmQF3WNxENuBaInKpOwS+0T1rhcBLudwJbF/d6wVSRu/BBL7F0GARuufPn9c0Kqwp3BxxE4JYvFieTEhiNdMIXesM69S1TBEZGry4PMjHikXJJxOZ7mpRDVE9pHn//r13+TqLbdzrwX9OR0UMumzbsWNHTb7uLLNAxBLp3VBMOi1EVl6UxrF8K2LzkHTPeGOklIkRj87X6Pr0xLVv/QSuF9mPde7uZ90BMe6UyxV2OhdGZq1uJ0ZzmMC3EViMWKZEpKR9TSsWGEJE3rg8iBrHTbtStggoC+flWhCvrK+d7e4yI2oIOudwX8usoQPGX98svjc4prlnrYByca+4Z3RGPflNWqN7MIE3jAT0wqxmYPK41ddgVBcTeMNIwATe6M2YwBtGArhSeG1xs7hvaDSMnsQE3jAMo6SYwBuGYZQUE3jDMIySYgJvGIZRUkzgDcMwSooJvGEYRkkxgTcMwygpJvCGYRglxQTeMAyjpJjAG4ZhlBQTeMMwjJJiAm8YhlFSTOANwzBKigm8YRhGSTGBNwzDKCkm8IZhGCXFBN6ogY9ZX7lyJXj69GmwcuXKlpenjPCVp2fPngUXL170frPVMIrCBN6oYevWrdHn5t68edNWH4UuA3zE+8OHD1Edr1+/vuVlMsqLCbxRw+rVqyPxefz4sQl8RqZPnx7cuHEjZNGiRXX7v/766+DFixdRHS9btqzlZTbKS6UF/rPtncEf9v8r/M2SjzyNaPWNbRYszE2bNgX79+8PJk+e3PLy9DYWL14ciTf16EszderUsH6x3hH8VpfZKC+VFfgvh02sEeS/j56ZOm+ZBd7IRxqBN4yeorIC/+clJ2oEmf/T5qUzcPnrlBXRsdKMCPr37x8O52HEiBGx6YYOHRql++abb2r28T/bV61aFVqDs2fPTpy0GzlyZJh+ypQp4f9Y67NmzQo2btwYTvzhjgE5H+f2HYc0Y8eODTo6OsK8uBkmTJgQa4265yX/pEmTQncQ550zZ07dtfkgzYIFC8I869atC8ueJh9gNa9YsSIU3eXLl4flKdL9NHjw4PCYu3fvjgT+2LFjUV0OGjQoSsv9Zhtl0sfo06dPlF7u4/Dhw4OlS5eG93fu3LnhPdN5qEeuZ8OGDeF+fZ44SMO9ow6Bvyl/dwiM0VoqK/B/3PNLJMb88n+eivzTyouZRgPz5s2LhODChQux6Y4ePRqlQ6DYhpBu27Yt+PjxY7RPc/78+WDAgAF1x+I8kgb/sJ7sAwRv3Lhx0f8HDhyoO8bEiRODu3fves/77t27YP78+YnnRbw6Ozvr8r569crrsxa2bNkSHt933nPnzsUK/ZgxY2LLe+/evbCjKqIhcT985/BZ8ydPnoy26w4ZwZftdBSnT5+uOw7zIrjOhgwZUlOvGjrAuHIyie6rR56F7du3t1yQjGKppMD/bUJHjRjL31jhzVSiPkbakQCWGFEqNC6E2md5IeQ6jVhZZ86cSRQTuHXrVtC3b9+a42lB+PTpU12eRgKPsLidggvHdYVanzdOpCUvIwG3HrBeG13vw4cPwxBPnY86RRCT8rG/COtVRx/5wMKWtGkEPonnz58Hd+7cSUzz/fff15UR4W907KTOweh9VFLgxdr+fNOj8H9++Z/tzVSiHgX8o186lwEcPHgwalgMs9392so/e/ZsuA0LWgvi5s2bQ9cHljFWpHQIMGPGjJrjuRYfIrFmzZrgu+++iyZUkwReW5Q3b94MFi5cGKZfsmRJcOnSpWgfcfRJ5yX+m2sbNWpUeAxi7mUf59B56Sx0Z8SIhrxyvToiZe/evVE+Osdr165F++7fvx+6knBp8Iv1LvtIh3skT0Oiw+Z6sNTluPv27Qu3gXatpBV4RjqUlTrGTfP27dua/XSWrFVgP+4qrlH2nThRa2hQZ7oeqSueD+Bv/Uzh6mm1MBnFUDmBR4DF2v5ixq9WFb+yLYtAh3nn7qg7XloQKWlYPjeNds/gJ2UbfnbEFPBhu3l0Y8Wq1Pu00CJqPjdOksDjU+a8uERcXz//i3XPrx49uOd1RxZa2LCo9T7CDWXfoUOH6sqLQIlw0bmJkCJ4ko9FRe58Ata+7hx8I4dmSDPJmkbgGbG5PvoffvihRuBdIca3H1ePurPD3eWWCfdMXCdr9F4qJ/BazL8cNDLcxq9PpBtFxtAZiC9fRgNZwCUiLgTXTYMF+vr168iSSxtOh4UqDRVB1vu00Pp85dDIB58EowzJi9XqO6/PdQCIsFiQMvnJNb9//z7cjhi7HYOAlUtnxmhGLHEmf+WciK4vn475LyoevSiBp2Nz8+FKkv0vX770Hhv3jXSy+jkT19ijR/7nlDQyN8KIqoi6MFpP5QRe3DEI8+drb0WIiGuhbiTwOhInS5ilBmvKJzJYZ7KdmGk3Hw1y/Pjx4cQrYrZz587Q5aMt3iSBj/M7pxH4gQMHhkN+/LUIK6MGPdpIEvi4iCFtYUpnhlXtuqjScurUqSgvcxbUj4uuK9wpRTSoogTeVx7qJc4NJuA6cwWe50TfG19dgE5jr1AoB5USeG2pJyGWfRJ6YvUvHdksXQ2CJy4Gol9kuxZMCS8UCCvU7oU4kgTeDbcTkgQelw7H9E3QusQJfNx5L1++XCfwdHhalLLUa6PJVRfOX0SDKkrgd+3aVZdPC3xceX0Cr8uUFtyHrRAko1gqJfAIcWSpK+vdteLTCLYeCWT127tgjYmbhnA/7Z4hOkSnpbG6AsvQmgk2rGA9eVikwDNi0MeW8iKkt2/frplkLUrgmXdIGsUk8eDBgygvk8ny+gANkUbs5289QZuHdhR4Jqr1vfHVhYxmcOXwd1Hho0ZrqZTAS7RLXCijRNc0Wqik/fjNhlZqtKVKtIR2z+B+0WmJQNEC7k4eardGkQKvxYdoDkYRbuSJjrIpQuD1pOHVq1cz1SnXLnmJPOqpBtWOAs+9kHy4q3qqLozWUxmB1y4V4uB9afRq1CSful4k5VvVmtUfj+tDJsFw0xw5ciT8G0tdx3YjqDoO3ecn1THjRQo8E5i+7bpsMuooSuCBBVBiWcb57/fs2RMK1+HDh6O8Ouab1Zq+fKRlwRDElSsrWuB9Ig09LfCMvuTe4NqLu1ZGj9SFrWotD5UReJkQTVqxqqNikhYsdce7aLTFKeD20Gl0pANMmzatZj/Wu/bNFynwWjB95cKFUrSLBgjJlO24gtxImh9//DHaT/SHjCp0CCpi564JoMyEXUoaOrAiGpR2KyG2vjQ9LfCgXWjUqTv64r7LGgo6U3sJWjmojMCLcDfyr6fpCLpD4IlvdwXeF97HAhYtaAgBkTQ//fRTzSKnogWeJf/62FjMhBkyYsB94pa9KIHnvLpTI8yPZfysDEWo9IhGr8JEwHWniWhRd1Jm8b/LSEmXNw8sGNPH5bpws+njt0LgcVPpVcS8voGJa3lzqK5HJvhbLUxGMVRG4NsdBElimEWQfGKIZequaNToVaFFR9EkvSIBMdNCXJTAyzU3ekUCZXOPzXHcyV9fuVmJW9R95JxMjLvnyfoumqIFHpg3iXt/kUDHRxhsq9uDUQwm8G2EjkVOsqJwxdCQdWPlbywxLF6JsiEuXueTSVB3pamGNz9KfixlvY9OiDKyyEaLAoLGxLC4ady5gzTnFVcMC5t8rw2YOXNmTay8nIfoISzkuDdDIlbElLudInnpeNzVokXAPcD9wzm5Zs6lJ8slBNZd3Kbj1d1VyP8/e+fZJbeNhOsf5bjrtfZKVrayRznnNCsreJRGOcvKtq4sWTnnnHPyR/8n3vPQp3ir0SCboWe6m6wPz+luEiBBsPmiUCiAQL3IxC/qy3duicjC5+7bz/wFaQQ03FMaIVY5bfVzYDQPE/gOBosVQcbqjhPOvoIBT6x0BuX687wMBCKE7voujcD6pa66urpCAXZ7CRwLCzcvvgFvzsEAOmVutzdj0bBIPdqgankxgTeM/+MfA8mCrcJotCMm8Ibxf0zgjXJiAm8Y/+efuQgsXZyXuLdfGUYrMYE3DMMoKSbwhmEYJcUE3jAMo6SYwBuGYZQUE3jDMIySYgJvGIZRUkzgDcMwSooJvGEYRkkxgTcMwygpJvCGYRglxQTeMAyjpJjAG4ZhlBQTeMMwjJJiAm8YhlFSTOANwzBKigm8YRhGSTGBN9qClStXBn/++Wdw6tSpjnhHKO9wPXnyZFjmdevW9fv5eQ/swYMHg6tXrwa3bt2KXtLd6nIZ7YUJvNEWHDlyJHr9HS8Rb3V5GsFLtqW8NEr9ee5ffvkl+Pz5c80rA8+cOdPychnthwl8B3P8+PHgxo0bwaVLl1pelqKYwKdj4MCBwfv376Nzv337NrTY6QG1slxGe1Jpgf9q9+vgi8N/h59Z8pGnEf1x8x49ehQ+yFhzrf4jFcUEPh0TJ06Mzvv48ePghx9+aItyGe1JZQV+wNhpNYL8fdf81HlN4JuPCXw6lixZEp33wIEDbVMuoz2prMB/u+pkjSDzO21eGgOX72b2RMfK2iMQZs2aFfT09ATbtm0L/axz5swJu+RuuhkzZoT73rx5Ez3M/Ibp06fXpecYkyZNCrq7u4OtW7cGa9asCaZOnVpn/TUbyrl69erwnKtWrQrL4LsecAWedHwyUNjb2xvWTZryjhw5MrzOTZs2hfA97aDtiBEjgmXLloXnI++CBQvCbb60aYR05syZ0X0ZPnx4obocPXp0eJzdu3dH58VFJ8dnf9pyAT0BuTf81+R/Q727xzQ6l8oK/Je//hWJMZ/8LlKR36y9mKs3ADxsd+/erRk0E+7duxcKo6QdNGiQN53w6dOnmmNPmzYt9tj4cpcuXdr0P9VPP/0U3Llzx3tOGiVE182jBX7x4sXB06dP6/J+/PgxWLFiRex5iSTR/mmdD2FMKvOOHTu8eeHcuXN1Qt9ISCmLPj8NVJE6PXz4cOJ9F2u+UbkGDx4cDsj6jnH+/PmGPQSjs6ikwP9naneNGMt3rPA8laiPkaUnAFic+FKTHl72ixWKwLsRFK6YybGxoPmddGyOlSSaWUFgGl0PYDnqfFrgGzVghAi658XqbpSXNL4yb968uWHehw8fBmPHjq25zjghpbHQjejChQsL1ytim1S+X3/9tWG5sM4ZkG1Uvybw5aGSAi/W9tfbHoW/+eQ32/NUou4F/HeIv0vvA5fDtWvXogfq/v37ofuE7jKfWO+yj3SIO/kQGqzkly9fRvv5DVqETp8+He2/efNmsHz58tDtgbuEyBvZd+XKlab8mYjBvn37dk3DhKjS0BDlcfbs2ZqGCDGSvK7AE9uNpc814SqhbmTfhQsXas6L1akbPYRp3rx5IVoYSUPvQOelcdN5cXtwPFwUu3btCl68eOEVvDghxb2mxX3u3LlNqdthw4aFdbFx48aa8sh9Z39SuWD79u01dUF+6nb27NnhPiJyfL0Co3OpnMAjwGJt/3velnAbn7Iti0CHeRfvqTteWni45GF69uxZMGbMmJr9iLUWGPzmen+jQdYTJ06EQo6LQYsp8Fusez7puhf9M2GpSlnfvXsXup70fizIy5cvR2kQFdmnBR5rmZ6Nzjt+/PiovK9f145x6EYS69ktl/Zb0+jpfYSZyr5jx47V5aWRkAYAAaQRk/pzhZReiWwjbVG3jA9canIOeh7u/iSB1z0rmRiloWfkNpTNLr/Rv1RO4LWYDxg5IdzGp0+kG0XG0BiIL196A1nQgiBxzC4bNmyI0mDV631Fo2i0RY0VWPTPpC1Eyu1Lg1AjLoB4ynYt8Fu2+BtKZm1KGump6Lhw6sOXjzQ0CqTBty/b6UF9+PAh3E5DGtfIUe+Ul+uTXpQrpNrNw7l8g93NIK/A02DqBjTNYLcJfOdTOYEXdwzC/HXvrQgRcS3UjQReR+JkHVgFppPLw8TA1969e+vQFuahQ4dq8qcVeCI4cDvgLkGoeHBxRejueDMEXg/eMbibJa8WFi38GnokbnmnTJlScx2+OgSdRnoz9IhkG41dlvJqIXXpyzDPvAKve1fc+7jjY2iYwJeHSgm8ttSTEMs+CT2w+q/uI7kqP81gpAb3hs7fSODxyyKKSYOyzRR4HfmS1eWTJg7+t99+qyuvFqS04F8nL5a5bhiylDdJ4PsiMknIK/CEQsr2pIgi6sYEvjxUSuAR4shSV9a7a8WnEWzdE8jqtxcePHgQPUyEFWKtuzDYyH6+uw9cksDTBdeDtECEBI0KA6F6kLVZAq/P5/rQG5FX4Bkk1dfhq0PpBeHK4buEnTKIK/kIQ8xS3iSBx/+uQ1ubSV6B18KdFB+vGwIT+M6nUgIv0S5xoYwSXdNoopL24+cNrQTtcsjq0oAkgWeAT47NgCcDaOI/FnSUTTME/vfff2/oZokjr8DzKdtkwa20MB4gefHvZ8nrCjyCrucb4OcuOrnJR16BpzcnPTkG9GWw2EWHUZrAdz6VEXjtUiEO3pdGz0ZN8qnrSVK+Wa1p/fE6dpuZk740DAQyoxDch1ILvITJCXrAE/F0j4vY65mwzRB4Zp02sogJmaRhQYx1yGJegaenItfBQGmccDFRiTp0Z7W+evUqsu4RfF9eYswpL+eX2bRaSMV/T34ZzJXtcYOZeSkSRaN7WBgXbl49oG8CXw4qI/AyIJo0Y1VHxSRNWGrWWjS620wIoGv1Ig6E7kkaHVYI+oF147t14+GuNslx3ZmRzRB4xFsf051ARSOkxx1YlkH25RV40O4mQkLdngrHkxhvhFwveUB6yYvryh07WL9+fbSfMYa4KBpJz2CmHvPwhSMWoYjA6zEHYP4D/ymg0XXHakzgO5/KCLwIdyP/epqGoFkCj9BqNw3iQxcZS4qHV/zvYqW7IqzFiUlPRNkwiYl9etVBcV/IcXW4YTMFHrRQ02hhxXJOXk6hxZ3yajEtIvC4t/QyA7hKGDRl0hENmZ7N60aQUE/a6qZXtH///jBUk/rVefVM2CQhJa++b80cdC0i8LBnz566e6/R98gEvvOpjMC3K1iT7oCnCyIhwq1hsSg3rV6LJm7NETmmFrZmCTyNlo6v94E17S43UETggePpafY+aDB9fnF6Uo2WdKAutfunkZBqX3YzB12LCjz3hxm67qxVrp9GkQXSTODLgwl8G4DoYH0zGOqKMNPy42ZE8rCuXbs2svSZtKPXomE/D61e0gAYAMSlI24azqOXOCgKQogVrH38wG+up6urqy4P6aUsEyb4w1QblZdYf5ZkcMWZ68eaHzp0aGyZ58+fXzMjVs7DEglMSHN96UQJSYPiiyvnXNqFRm+gGXWrZz/7XsnXqFz6HtGQ4lKiBySNF0srmMCXBxP4NgJrHnFDAHEdZFnOl0YCH3fcICMDgFi9SUvAkhdLOC/ucgiUn/NyPXEDmH0BIscEKK436/tdGYyVvHF1mYdm120eZClqiGvQ9bIOvl6j0VmYwBsRerZjHuJWazTao271eA8DylrkGTymAdBuLlsPvvMxgTci2kGEyko71K1emkF4/vx5OPnLdeNlnVNgtCcm8EYELh6WFM6Luxqm0X51y+xdif2PA997s+P3jdZgAm8YFYNxCUJmiVwiFp6BbwZkWWu+L5Y4NlqHCbxhGEZJMYE3DMMoKSbwhmEYJcUE3jAMo6SYwBuGYZQUE3jDMIySYgJvGIZRUkzgDcMwSooJvGEYRkkxgTcMwygpJvCGYRglxQTeMAyjpJjAG4ZhlBQTeMMwjJJiAm8YhlFSTOCN8NVsf/75Z8iKFStaXp6qwnrs3IM//vgj0/t4DSMOE3gjmDZtWs3bfFpdnqpy9uzZ6D7w8u9Wl8fofEzgDRP4NsEE3mg2lRb4r3a/Dr44/Hf4mSUfeRrR6hubBRP49sAE3mg2lRX4AWOn1Qjy913zU+c1gTf6AhN4o9lUVuC/XXWyRpD5nTYvjYHLdzN7omNl7REIM2bMCFavXh1s3bo1WL9+fbBkyZJgyJAh3rSDBg0K5syZEzJq1Khw208//RT09PSE+WfOnFmXZ9KkSdHx+UTY2Z5W4HkhM8fftm1b8Msvv4TnHjhwYNPKlwfOP2XKlOi6uru7g4kTJ3rLNXTo0KhMw4cP9x5v2LBh3jS+6+Hl1cuXLw/Pu3Llyqg+kxg8eHB4X3t7e4PNmzeH3+U8aQSe7ZRh3bp1Yf6FCxdG5dFMnjw5Km/cPQLuA2nSlN3oPCor8F/++lckxnzyu0hFfrP2Yq7eACBId+/ejR5uzZs3b8KH2c2D2GpRvnLlSk2+nTt3RmmJyDh58qT3+OfPnw+WLl2aKPBJ5bt3717YcBQpX15mz54dPH/+3FuuGzduBBMmTKhJT4SQ7PfVKdBQSBoaI9/17N+/Pzh+/Lj3vKdPnw6F33dsxPjFixd1eV6/fh2eK0nguYe7du0KPn36FHsfaZwk/a1bt6J98+bN85ZnzJgxwefPn8M0r169arkYGc2nkgL/n6ndNWIs37HC81SiPkaWngAQovjkyRPvQyvwELrhi1pwfGgBPXLkSGJajSvwI0eODB4/fpyYh/2uqGUpXx4WL14cK3bC27dva6zbZgl8Iwh1dI9LI0l50h7DFfgzZ840zIOo00MgPb0K2X7o0CHvtW7YsCFKc/To0ZaLkdF8KinwYm1/ve1R+JtPfrM9TyXqXsB/h6T3neJ+uXPnTvSQPXz4MHzopk+fHroaEArZ9/Hjx7ArLXldwaER4EEmH+kQZtKtXbu2Jh0P8qJFi8I0iOz79+9jBR6r8dq1a9G++/fvB2vWrAnLxyfWu+wjHW6MrOXLi7Z2T5w4EYwbNy50wWAlU07Zt2PHjihPMwX+w4cPoZtl6tSpoYuIetX72SZ5say5t+59xiWHa+fy5cuJAq9daNTj9u3bI9cKVr1uOMRaHzt2bGSd02vwuWmuXr0a5eP6Wi1GRvOpnMAjwGJt/3velnAbn7Iti0CHeRfvqTteWhAjecBwxeCj1vt5KM+dO1cjZLJPCw4PMsLpO4duQA4fPly3X4ueK/ALFiyItj979izs0uu8iIh2OSB2WcuXBxoSGjxp+NxJQVjLNACXLl0K/dS+ay0i8FwPvnM378WLF6M0CLdsX7ZsWU2vwr3PbkPvCjz/E64FaBjc83LPfD0j0rvCL9BzlAaABqe/BMfoXyon8FrMB4z8x0fLp0+kG0XG0BiIL196A1lgsLKR4PCgiytCP4hacBAHX16ET/Ii0HGzI0+dOuUVeN3N14Kl0d18rPos5csLDR8+Yzk+A75JA4lCswSeHoIvL+Xw9Rywshudl0HRJBdNEvSofEYA9yzOTaPvGz2CZt4fo32onMCLOwZh/rr3VoSIuBbqRgKvI3GyDqwCA3LykCVFMYjLAYtLBtK04Pgsc9APPj7cuOPjavAJvHYRkX/v3r11MJjpE5E05SuCLhs8ffo0OHjwYNhTiHP/NEvgGWD15dU9nt27d0fbtTtJ93Jc6MUlCbxEDEkkEvWPa0jfAy3wuKzEBee6aWTQm//U+PHj+1V0jP6jUgKvLfUkxLJPQg+s/qv7SK7K14OrMjjmQ1vYRI6wTQvOvn37vPm0WCEGccfXriIt8I0GV13wJUveNOUrAiLuujUE3DY0APi4dZ5mCXzc9eAT9wl82vt8/fr1WIFn3MQXgeOiBR50tI+4abR7BqHvb9Ex+o9KCTxCHFnqynp3rfg0gq17Aln99oIepEzqkmsLUCz9NIKjBS0pvj0uTPLBgwc1bhYsRRcJx+O7ztvXAg+4nPBv0xPyRahgvWJV++qjPwVe12PSfb59+7Y3Ha4WEWSB0Ep6dgxu6/+RK/CIutvDYo6FbNNuNaN8VErgJdolLpRRomsaTVTSfvy8oZWgrSsdIeMiFqAeUEwjOF1dXVEaBtzijq/HArRIIxZuw5KW/hB4De4HXFKU/927d9G5iRSRNFrg9eCrZsuWLU0XeF2PcfdZDxy7Aq8HbzmWO9iN2ydO4KkX3FfaTSPuGRpAHTtvlI/KCLx2qRAH70ujZ6Mm+dT1JCnfrNa0/ng90BXnQsHnKmlu3rwZbU8jODzM4oPFwqVr7qZBWLQPVwu89s1v2rTJew4aHI4LetZtXwo814UwgW9wlYlX2l0jaXBzyHbmBviOrd1hzRJ4GpNGeYnr1xa6CLwr/L5Zq/r4rsADZZH9NHLSG/ClNcpFZQReBkSTZqzqqJikCUvNWovGDb1DgPR+prDr+Gk9WJlWQHUcuxurDszK1MKiBV4LFiLjhtohnMeOHYvS6GiMvhT4+fPnR8fGb+0u50BMvOzHepXtiKN2cbjLFXB92hXSLIHXg6+++0x5dVSQFnjqmLLKdhmDEbDetW/eJ9q6J6dxy2GUj8oIvAh3I/96moagWQLPw6vdNFjbDA5izeMv1YNzhDkSdy550woo6bQFiL8WUQd3+QBX4Cmfdi9QPpY8oOeB1ainwyNcOr67LwUey1373Gm4KBODxXxqweM6dV69j0Fk0uOHxqJ3/dzNEnjqUY+j6PtMA/ny5cu6+6BdNHqZCRoszk/ZiBpyxx7irHLdS9PumlYLkNG3VEbg2xVcHBcuXPBaWALhc8RJ63xZBBQxSDq+Fmp3MJby6QkzPhDGVatW5S5fHnAfuYLswsAw1rHOx4ByUj49s7dZAg80Snow1AWhfvTokVfgOa4eV3ARH3uSwDOorPO4DZ9RTkzg2wAefoTVtcYQIsTfDfcD7ZtPs64LD7i7MBcNB5a4HqTbs2dPXV5cGfQoXJGR8vmmuWctXx4QPsYldA8F6PlQn3EhiUSlsHiaFnqWHkCU9eSgn3/+OdP1cJ8kDQPX7n7izYn4cRsYwktpwMVS53rcwU/uEdeq19/hO247Zu7KMePWlKHB0Od0DQajnJjAtxFYy4gAPlMEpdkRDnTJ5fistJi1i075yEd+RCXve0MRK/y/efBFoTCuQHlwEcUtA+yD+iUP19Of70CljAhs1vIC4w3cA/InxdS7zJ07t6Zn01/XarQWE3ij39ETerJCL6LV5e80aLz0pLC4ZSeM8mECb/Q7JvD9A9E7hH3qKByismxwtTqYwBv9Dr5q3oSUBz0z1UiGKB3dOCL0SRPqjPJhAm8YJYXVLXnTE0tOE/njLlNslB8TeMMwjJJiAm8YhlFSTOANwzBKigm8YRhGSTGBNwzDKCkm8IZhGCXFBN4wDKOkmMAbhmGUFBN4wzCMkmICbxiGUVJM4A3DMEqKCbxhGEZJMYE3DMMoKSbwhmEYJcUE3jAMo6SYwBvB6NGjgz///DNkxYoVLS+PYffKaA4m8EYwbdq06K0/Bw4caHl5DLtXRnMwgTdMNDoIu1dGFiot8F/tfh18cfjv8DNLPvI0otU3NgsmGp2D3SsjC5UV+AFjp9UI8vdd81PnNYE37F4ZnUBlBf7bVSdrBJnfafPSGLh8N7MnOlbWHoEwY8aMYPXq1cHWrVuD9evXB0uWLAmGDBniTTto0KBgzpw5IaNGjQq38VLlnp6eMP/MmTPr8kyaNCk6Pp+IBdvTisasWbPC42/bti18oTPnHjhwYNPKl4UJEyaEx5bj/PDDD8G8efOCLVu2hNfGter0I0aMCJYuXRps3rw5LMOUKVNiy573nvjKxTmmT58ebNiwIejt7Q0WLVoUlqXReYvcK45PGdatWxde78KFC6N7oBk6dGh0j8aPHx9bFvJKupEjRxa6b0b/UlmB//LXvyIx5pPfRSrym7UXc/UGYOLEicHdu3ejB1fz5s2b8EF18yC2+kG/cuVKTb6dO3dGaRG/kydPeo9//vz5UPiSRCOpfPfu3asT06zly8OFCxeiYyGa79+/rzn+58+fg8OHD4cCS2NEPbplf/DggVf48t4Tt1wI4uvXr+vyv3r1KjYCpsi9Iu+uXbuCT58+xeYfNmxYlJ7GSvZxf+Lq+ujRo1E6GrlWi5aRnkoK/H+mdteIsXzHCs9TifoYWXoCQNjbkydPvA+kFitXELSA+tACeuTIkcS0Glc0sNgeP36cmIf9P/74Y+7y5UELqSvuGtJRf3H7aaBcSz7vPclSLvJPnTq1Ln+Re3XmzJmGeW7duhUMHjw4TE9P5O3bt1F5fI0ddfPy5csozZgxY1ouWkZ6KinwYm1/ve1R+JtPfrM9TyXqXsB/hzTufgs8YHfu3IkevocPH4Zdebr03d3dYayz7Pv48WNoEUpeV0B5+A4dOhTm013ptWvX1qTDGsPiJQ0i64qQFg0swmvXrkX77t+/H6xZsyYsH5+Io+wjHW6ZrOXLixZS+OOPP8Ljct7Tp0/XCdu5c+eC+fPnh6LKdet9WOvNuCe+cl28eDG0lHFPLV++PHj69Gm0j3LqvEXulXbdUNfbt28P3UTkxaoXIQdcWZJPW+e+XglpdWPZasEyslE5gUeAxdr+97wt4TY+ZVsWgQ7zLt5Td7y04BuVh4duPyKg92M9IUyS5sSJE9E+LaA80IiP7xxarHBZuPuxQuNEY8GCBdH2Z8+e1VlvY8eODV68eBGl0RZp2vLlRQvp2bNna6xwvruND42Vzn/8+PFo/6pVq5pyT9xycV6xln31Qs+nWfeKcl+6dCmEBsnNS1rJp3tPNACy3eem0T2KlStX9pkQGX1D5QRei/mAkRPCbXz6RLpRZAyNgfjypTeQBQYrk6wnYMBMfKpYk7JdCwXC4MuLqEleBNoVOeHUqVNe0WCAr9HDjZhIGqz6LOUrguuDd/cjkEl1y0Cr7Oc6m3FP3HL973//8+bnXkjDJw1T0XvVCHogvkaJ84sLznXTaPfMu3fvEgeXjfakcgIv7hiE+eveWxEi4lqoGwm8jsTJOrAK2pUgURI+cI3IAyiDZFpAfdYe6Ica/2zc8Ynu8ImGdkeQf+/evXXcuHEjSoMLRvKmKV8RtJD63D27d++O9s+dO7du/+LFi70CX+SeuOWKi0zRbi8R8qL3SkCUiRCSaCXuEW4YfZ/cXseOHTu8jZp2z/z+++99IkBG31IpgdeWehJi2SehB1b/1X0kV+XrgTy3K6/RVtvs2bPDbVpA9+3b581HeJ2k4UGPO752S2jRaDS46nL58uUob5ryFUELqc+y1ALv+skhTuCL3JM05QLqyRX4ovcK6Mlol1kcrsDTEMlAtHbT6F6Q9tsbnUOlBB4hjix1Zb27VnwawdY9gax+e0H7iZNio/Exu1ZlGgHVPtuk7nxc6B1hhNrNghXoQlQG+/mu83aqwBe5J2nKBT6BL3qvcKG50UKEaNLToMegr8sVeJAwVnHTaPcMA8Np5gwY7UelBF6iXeJCGSW6ptFEJe3HzxtaCXqgzydCgliVRG2IIKQR0K6urigNg29xx9d+Zy0aCEEad4WPThX4IvckTbnAJ/BF7xXROlrA3QFxBsCTBJ65ArIfN412z1CXzb5/Rv9QGYHXLhXi4H1p9GzUJJ+6niTlm9Wa1h+vByjjuuX4UyXNzZs3o+1pBBSrS0LrCJMjvttNQ2ij9s9q0dD+3k2bNnnPgUBxXNCC1qkCX+SepCkX+AS+yL1iOw2NbPfFszOjNUngGUeQ82PNM54i6Wl8mn3/jP6hMgIvA6JJM1Z1VEzShKVmrUXjhhK60SDDhw8PozQkjR6sTCugekDPjVWH/fv313TrtcDrEDoExPXDIkrHjh2L0hB7nbV8eekrgS9yT9KUC3wCX+RecR/0jFk9JgBY79o37xN40D02gQalP4TI6BsqI/Ai3I3862kagmYJPA+mdglgQRG5guWIBaUH/AidI+5c8qYVUNJp6w5fLEIB7vIBrsBTPv3QUz6m0WPlYhGK/13EUMeMd6rAF7knacoFcQJf5F7p5Q3wmVPnRNIcPHiwZpJTksDrAVwhLlTU6AwqI/DtCg+4O/vRhQk3kydPrsmXRUB1zLcPLdS+9U3wCSflR9z1ZKGs5ctDXwl8kXuSplwQJ/BF7hXXSKx6XD49gzZO4Gncnj9/HqWjsbHFxTobE/g2AP8nD6traSGcCAYrGrp5tB84zbouWGL64RWRwhLXA3B79uypy4tbAuvVFRApH2JetHxZkXh1RMgXzqgHI331pwcRfTM/89yTNOUCmQn74cOHOjdMkXvFPsYE9GJjfMeNxHIMEmVDXHxcverQSHourX42jGKYwLcRWHPEJDOohUDqCTTNAAtNjs+ytllD3ygf+ciPYMTNtmwEQoRvOw9JkS2deE/64l7RcyAPPYykWH4f2hVESGZ/1rXRfEzgjX7n+vXriW6IJOhFtLr8ZYX1gqSeGUi22PfOxwTe6HdM4NsHRJyBWKJl9EQpd0zF6ExM4I1+B/81S+fmgRUuW13+MoELx21EWXrZNzZgdB4m8IZRYWTNf5ZeIDyUGa2tLpPRPEzgDcMwSooJvGEYRkkxgTcMwygpJvCGYRglxQTeMAyjpJjAG4ZhlBQTeMMwjJJiAm8YhlFSTOANwzBKigm8YRhGSTGBNwzDKCkm8IZhGCXFBN4wDKOkmMAbhmGUFBN4wzCMkmICbwSjR48OX7AMK1asaHl5jHg2btwY3ideypH3nbhGdTCBN4Jp06ZFb/M5cOBAy8tjxMOLOeRejRgxouXlMdobE3ijYwWeNxDxLtFLly61vCz9hQm8kYVKC/xXu18HXxz+O/zMko88jWj1jc1Cpwr8o0ePwjLzsuhWl6W/MIE3slBZgR8wdlqNIH/fNT91XhP49sAE3gTeSKayAv/tqpM1gszvtHlpDFy+m9kTHStrj0CYMWNGsHr16mDr1q3B+vXrgyVLlgRDhgzxpuWt93PmzAkZNWpUuO2nn34Kenp6wvwzZ86syzNp0qTo+Hwi7GxPK/CzZs0Kj79t27bw5cyce+DAgU0rX5Z64rhv3ryJyi3nmj59epRu6NCh0fbhw4d7jzVs2LCGabJeu8D+KVOmRHXe3d0dTJw4sWG+wYMHh/e+t7c32Lx5c/hdypZG4NlO+datWxfmX7hwYXQPNJMnT46uPalM3CvSyP/F6BwqK/Bf/vpXJMZ88rtIRX6z9mKu3gDw0N+9ezd6cDWIGA+qmwfB0aJ85cqVmnw7d+6M0hJtcfLkSe/xz58/HyxdujRR4JPKd+/evbDhKFK+LNBw+MohfPr0KUpLRJBs99UhIL6SBgFvxrXD7Nmzg+fPn3vzMW4wYcIEbz7E+MWLF3V5Xr9+HZYvSeC5z7t27QrrIO5e06BJ+lu3bkX75s2b5y3PmDFjwh4SaV69etVywTKyUUmB/8/U7hoxlu9Y4XkqUR8jS08ACFF88uRJomjxgLnhi1pAfWgBPXLkSGJajSvwI0eODB4/fpyYh/0//vhj7vJlAYEXwfHx8ePHKG1Rgc977YsXL44VWeHt27d1VjWNCdvT3itX4M+cOdMwD6JOD4H09Cpk+6FDh7z1s2HDhijN0aNHWy5YRjYqKfBibX+97VH4m09+sz1PJepewH+HpPeL4n65c+dO9AA9fPgwfKBwM9CdJ95ZCxfdZMnrCiiix0NKPtIhTqRbu3ZtTToe0kWLFoVpENn379/HCjwW4bVr16J99+/fD9asWROWj08sWNlHOsQ3a/nyMHbs2NDd8/Lly+j4/Ab2SboiAl/k2rWVfeLEiWDcuHGhuwjrnOPIvh07dkR5sKy5/+5/AXfUypUrg8uXLycKvHazUdfbt2+PXCtY9brhEGudupLGkl6Dz01z9erVKB/3tNWCZWSjcgKPAIu1/e95W8JtfMq2LAId5l28p+54aeGBl4cHVwwCpffzwJ07d65GLGSfFlAeUoTTdw7dgBw+fLhuvxZBV+AXLFgQbX/27FnYXdd5EQjtTpg6dWrm8hWh0SBrEYHPe+0IPY2xNMruZCSsdBoAQjvxj8v2ZcuW1Vj37n/BNQZcgee/xDGBhsG9Tu6rr/dEelf4BXqX0gDQ4PSFABl9S+UEXov5gJH/+EH59Il0o8gYGgPx5UtvIAsM2DUSIB5i6e7rh0wLKA++Ly/iInkRqbiZj6dOnfIKvO7CY0X68uouPJZtlvIVpS8FPu+10yjjq5btDMg2GlQFrOxGZWVQNMlFkwQ9D5+hwLXFuWn09dEj6It7aPQtlRN4cccgzF/33ooQEddC3UjgdSRO1oFVOH36dPQAJUUoSLceIZNBMi2gPssc9EONfzbu+ERr+AReu4jIv3fv3joYMPQJRJryFaUvBb7Iteu88PTp0+DgwYNhLybONaXdOron5KIjh3wCL5E7Eq1EOXHL6bJqgcd1JG46100jA+PU7/jx4/tNlIzmUSmB15Z6EmLZJ6EHVv/VfSRX5evBVRn48qEtbKIz2KYFdN++fd58Wrx40OOOr11FWuAbDTC64CeWvGnKV5S+FPgi146Iu+4UAbcNDQC+9Tz/hevXr8cKPGMrvggcFy3wwIxg2SduGu2eQej7U5SM5lEpgUeII0tdWe+uFZ9GsHVPIKvfXtADdUndbW3diaWfRkC1wCXFt8eFST548KDGzYIV6CKhdnzXeTtd4ItcO+AOw69OL80XGYPVjJ/fd76k/8Lt27e96XC1uNFFhFbS+2MQWP/XXIFH1N2eCPMwZJt2vRmdRaUEXqJd4kIZJbqm0UQl7cfPG1oJ2nLSETIuYt3pQbs0AtrV1RWlSVqvRY8FaKFCCNyGJS3tJvB6QFOzZcsWr8AXuXYX3B64y6jbd+/eRcclQsV3vrj/gh7AdQX+4sWLNQLuDgrj9okTeMqHG4l94qYR9wwNkY6dNzqLygi8dqkQB+9Lo2ejJvnU9SQp36zWtP54PYgV50LBnyppbt68GW1PI6A8qOJfxYqk2+2mQTS0f1YLvPbNb9q0yXsOGhyOC3rWbX8LvE+EcFlIGZgL4DuGdn9pgc977dQ5ZQHf4CoTo7S7RtLQADWqL+LrtYUuAu8Kv2/Wqj6+K/Cwe/fuaD8No/QGfGmNzqEyAi8DokkzVnVUTNKEpWatReOGEiJIej/T03VstB6sTCugOpbbjdeG/fv314iGFngsSS1Gbhgd4nTs2LEojY606A+B124HxM/dj9Bpd4W7FAHXo90aWuDzXvv8+fOjbfjL3aUmiImX/VjNsl2HZfr+C+TT0Tla4CkL1yfbZZxGwHrXvnmfaOvensYth9FZVEbgRbgb+dfTNATNEngeTO2mwdpmAA5rHl+oHngjzFFP4kkroKTT1h2iiKiDu3yAK/CUT7sOKB9LHtDzwCLUU90RJR273R8Cr+cIMOmJOlu1alVNGi1sDJxSdnzKWPSuz1oLfN5rx3LXPncaVfIwkM2nLg/3QJ9Pj7Xo/wINiZ7U5XPR6KUoaDioc66H6B13DCDOKtc9Oe2uabVIGfmpjMC3K3TzL1y44LWeBELjiIHW+bIIKA960vG1WPkGC/VkGB8InCus/SHweoBU0GvRAAPISUsb6Jm87lIFea8d907SOYGBW6xynY/GQfdKXBBqcUu5Ak+PQ/v3XcTHniTwDETrPLoBMjoTE/g2gAcbYXUtLUQC8XdD6kD75tOs68LD6y5+RcOBNaoH4Pbs2VOXF9cG1rErIFI+3xT2rOXLA9YlSzFIA/Xhw4eatWgEIkxYMEyLLmnxO+uJPj///HNTrh0QXMZMdO8J6JVxr+NCIYk3J/LGbSAIw6SRF0ud47rjDtxHzqnXweE7rj1m0Mox49aUocHQ53SNCqPzMIFvI7AYecDxhyKQzY5eQBDl+KxmmLX7TfnIR34EI+87QREifLt5iIswQYipr7jllYH9uFIof9ay5712xjxIz3mTliP2XQ8CmzUfUAeUlfxJMfUuc+fOrelh9OV/3egfTOCNfkdP1skKlnSry19GaLD05Ky45RmMzsIE3uh3TODbB6J3CBXVUThEbtngajkwgTf6HcYUli9fngs9+9MoDlE6ugFF6JMm3RmdhQm8YVQYVrvkTU+EnBLt5C5TbHQ2JvCGYRglxQTeMAyjpJjAG4ZhlBQTeMMwjJJiAm8YhlFSTOANwzBKigm8YRhGSTGBNwzDKCkm8IZhGCXFBN4wDKOkmMAbhmGUFBN4wzCMkmICbxiGUVJM4A3DMEqKCbxhGEZJMYE3gtGjRwd//vlnyIoVK1penrJQpXqt0rV2EibwRjBt2rTojT4HDhxoeXnKQpXqtUrX2kmYwBv2cFq92rWWlEoL/Fe7XwdfHP47/MySjzyNaPWNzYI9nFavdq3lpLICP2DstBpB/r5rfuq8JvCG1Wt1r7WTqKzAf7vqZI0g8zttXhoDl+9m9kTHytojEGbMmBGsXr062Lp1a7B+/fpgyZIlwZAhQ7xpBw0aFMyZMydk1KhR4TZemNzT0xPmnzlzZl2eSZMmRcfnk4eS7WkfzlmzZoXH37ZtW/iyZs49cODAppWvEZMnTw6PRz359nMd7KecSfmnT59e+PqK1uuECRPC40s9cB7KtWHDhqC3tzdYtGhRMGLEiIbnHjlyZNDd3R1s2rQphO8//vhjw3ycb8qUKVG5yTdx4sSG11vkP8Sxyc+5yL9mzZpg6tSpwQ8//FCTbujQodF/Z/z48bFl4X8l6aiHPM9c2amswH/561+RGPPJ7yIV+c3ai7l6A8CDdffu3egB0bx58yZYt25dXR7ESD9QV65cqcm3c+fOKC0P0MmTJ73HP3/+fLB06dLEhzOpfPfu3Qsf2iLlS4uU4fPnz8GwYcNq9tGgvH37Njr+2LFj6/I/ffo03Pf+/fsaIctzfUXr9cKFC9E+BOr169d1x3j16lViRAp1yLW4+T5+/Bjs3r07Nt/s2bOD58+fe8t948aNsPFp5rUCDUBcHXMN5Je0GDayj/9N3HUcPXo0SodB1BcC2elUUuD/M7W7RozlO1Z4nkrUx8jSEwDCy548eeL94wsImvugawH1oQX0yJEjiWk17sOJZfT48ePEPOx3rcYs5UvL4cOHo/wLFy6s2YdI6uNjHer9WIJakIpeX9F61QLvE2l977Fy3XNj5Tc6J2ncfIsXLw4+ffqUmI+GUnpdzbhWelw0Omn/4/RapbFmu1sWoIF++fJllGbMmDEtF9N2pJICL9b219sehb/55Dfb81Si7gX8d0jjbrXAH/nOnTvRn/zhw4dhF52uOt1YYoplHw8IIiZ5XQHlT37o0KEwn+6yrl27tiYdVg/df9L4LED9cGK1Xbt2Ldp3//79UDgpH59Yt7KPdFjRWcuXBW3Z7dmzp2YfFqs+H9am3k95Zd/GjRsLX1+RegUt8HDx4sXw+nBjLV++POptwOnTp+vqgfrUx543b14I33WdI+g679mzZ6P9J06cCMaNGxe6RGgwuX7Zt2PHjqZdK+WXfTdv3gyvD3fZqlWrgkuXLkX7tLWurXNfD5Zrlf3UZauFtF2pnMAjwGJt/3velnAbn7Iti0CHeRfvqTteWnio5E+KK4aHW+/HSjl37lzNAyn7tIDyICOcvnPoBgQL2N2P1RT3cC5YsCDa/uzZszorCTfIixcvojTa0kxbviwgRGIJIrh63+3bt2uug/rUbpjff/892odLpuj1FalX0ALPtQwePLhmv64/ehB6n26UtBALurHTjQMNlNQfn67vm3qhAUB0N2/e3LRr5X/LMfkvu9Y4v3WZpB50j8znptE9ipUrVxb+b5WVygm8FvMBI//xNfLpE+lGkTE0BuLLl95AFhjMS7JSgIE26VJj4ct2LQA8gL68PMCSFwFzH2jh1KlT3oeTgbBGDxE9Dkmj3SJpypcHsfgQAxmAxn0iFq0WTj3YKm4Y3GFFr69ovYIu5//+9z9vfo4tDaQ0VnyKxfzokf8/Rxrx6dMT0Nvx68t5GUhuNKjajGtthO5ViJFDueSeuW4a7Z559+5dbCCCUUGBF3cMwvx1760IEXEt1I0EXkfiZB1YBd11lWgEH9J11oOLWkB9VhXgapA0Z86ciT2+9ufqh1O7iMi/d+/eOhiUkzS4YCRvmvLlActSjjt//j91jjjLNrr+YhGKnx9LXLsXil5f0XoFLfBxkSLaUhdhJfJFW8u+MoNOo8VRX7M0AAcPHgx7WD63WTOuVRg+fHjoXiIt94Z0x48frymP7sXSO/EZQNo9Q8+sL4SxLFRK4LWlnoRY9knogdV/dR/JVfl6cNXtomu0dUQEBNu0gO7bt8+bjzA2LQRxx9euIv1wNhp8dLl8+XKUN0358qAFbteuXeG2//t//2/4+8GDB+Fv/Nn8Rpz5rRuAZcuWFb6+ovUKWuDjLFDO5wq8vpa06LEbRFy7XDQ0jDQAOgy1GdeKUYKbRo8bxKEFnoZP8mg3jR5sR+z7ShzLQKUEHiGOLHVlvbtWfBrB1j2BrH57QQ/iJcU86y6sWPppBFT7RpO6zXEhbgimbEcUEEyXW7duRWKq8/aVwNM9lxA/HnrdXd+/f3+YRqxJxAFBO3bsWPgbV4MOr8x7fUXrFfIKvOvv9pVZeh24cvjuhnlyLBo6epA6tFQgH+MTzbhW7o/+n8t9oHFl3EQPsroCDxJeK24afb/pfaSZp1BlKiXwEu0SF8oo0TWNJippP37e0ErQ3VNtZbmIpa8HxtIIaFdXV5SGBynu+HosQD+cWF1uw5KWvhJ4+O2336L60OcRUdLXjUAxduFagUWur2i9Ql6BRwBlW5LLJC0ywYry4c+WY1+9erUp16rvD8cn+kZHI4F2VboCzziB7MNNo90zSbH+xj9URuC1S4U4eF8aPRs1yaeuJ0n5ZrWm9cfrAby47q92SRBi5ntw4gRUD8hhqRFz76bhYdN+Zv1war8qsyR950B4OC5ooepLgddWpQgl16kHAMX9Iu4aYFBVHyfv9RWtV8gr8JybCCG2EeETl5ceIeXS8fvkpQcDPssXS1/OR+NJmqLXun379mg7kS++vHI9PoGnrHJ+GmjGQSQtjU8z/1dlpDICLwOiSTNWdVRM0oSlZq1F44YSYt3o/QxKifUJerAyrYDqgTo3lhtwa+gusn44dagaD7zr7+ThF/cH8DBnLV8ecLu4/lzXmmXg0HU9uFZ6kesrUq+QV+BBuzUIPXTPzUCzuF50w8egtOS7fv163XmJiZf9OvqmyLXqRtTtAVC/2p/uE3jQPS1BxleMZCoj8CLcjfzraRqCZgk8f3DtpuFhZJALax5LRQ/CEqKmp9+nFVDS6VmE+EN5IMFdPsB9OCmffrgoHxOI6HkQzSL+aWmg9MPZlwIP2mIEJuPo/TSWej9+W9dqLXp9eesVigg8DZWeXMQSAPxncJMgmLpc/L8kH9aw9rkj1lwrA6R86ph/Gc8oeq3E1rsNsdQvbiA3r0/g9QCuEBdWbNRSGYFvV3hw3VmNLnRhscp0viwCygJaScfXQuYKEeVzB8JcED9mJeYtXx4Is9NlcNeeQTS1CGqha8b1Fa3XIgIPNGCNlhzg/PQCdT4s6kbRLAw4Y80361oR9aS61evw+AReD6wDjY0tLpYOE/g2AMuKh8KNaODPjxD4Vk/Uvvk067pg8bgLTNFwYEkxQ1O2uUsAACJBj0IPwuny+VZvzFq+rOgGBIvSl0bPAv75559jj5Xn+orWqwws6tmbceX/8OFDnVsEiClnXMYVTXorWPPM/PUdF9cU+dz1Yegx8j+MK0/ea0Wg6WFI9IuA+5GlFMRNQ337FokD7cqhl9vqZ7ZTMIFvI7DSiP1l8AiBdFdMLAoPmhyfFQOzhphRPvKRn6533KzGRiAGWKB5SIo2akb957m+ovVaFKxZ/i9Yv2mWChZoNLhO8rmWfl9dK3k5n2+wNgntCtIrTxrJmMAb/Q4DfEnd/SSwsltdfqN/YZattvot9j09JvBGv2MCbzQCEScSisF0PWbgGwsx4jGBN/odxhRYMjYPMpnJKDeMA7iN+x9//OEdizDiMYE3DKPtkLX6WaaDCChmtLa6TJ2ICbxhGEZJMYE3DMMoKSbwhmEYJcUE3jAMo6SYwBuGYZQUE3jDMIySYgJvGIZRUkzgDcMwSooJvGEYRkkxgTcMwygpJvCGYRglxQTeMAyjpJjAG4ZhlBQTeMMwjJJiAm8YhlFSTOCN8P2YvMgYVqxY0fLyNIshQ4YEJ0+eDK+LF0a3ujz9ycaNG8Pr5iUZed+da3Q+JvBGMG3atOitOQcOHGh5eZrFqFGjous6depUy8vTn/CiDLn2ESNGtLw8RmswgTc6VuB50w/v7Lx06ZJ3vwm8CXzVqbTAf7X7dfDF4b/Dzyz5yNOIVt/YLHSqwD969CgsMy9l9u03gTeBrzqVFfgBY6fVCPL3XfNT5zWBbw9M4OMxgTegsgL/7aqTNYLM77R5aQxcvpvZEx0ra49AmDFjRrB69epg69atwfr164MlS5aEA4W+tLxdfs6cOSEIGdt++umnoKenJ8w/c+bMujyTJk2Kjs8nws72tAI/a9as8Pjbtm0LX4LMuQcOHNi08mWpJ4775s2bqNxyrunTp0fpfAI/fPjwYPHixWEZGFAeO3as9xxDhw6NjkkeX5phw4Z502S9dupwypQp0b3p7u4OJk6cGFu3wuDBg8P/SG9vb7B58+bwu5QjjcCznTIyAE3+hQsXRuXVTJ48ObqepDJxXaSR/5XReior8F/++lckxnzyu0hFfrP2Yq7eAPAw3717N3ogNYiYLwIEsdWifOXKlZp8O3fujNISRUE0ie/458+fD5YuXZoo8Enlu3fvXthwFClfFhBPXzmET58+RWldgd+1a1do7bt5rl27Foq1Pg/iL/vjInAQZEmDeOe59tmzZwfPnz/3XgvjCxMmTPCeGzF+8eJFXZ7Xr1+HZUkSeP4P1AV1Ffef0PVx69ataN+8efO85RkzZkxUt69evWq5sBn/UEmB/8/U7hoxlu9Y4XkqUR8jS08ACFF88uRJomjx4Ljhi1pEfGgROXLkSGJajSvwI0eODB4/fpyYh/0//vhj7vJlAYH3ibTw8ePHKK0W+EYgwjqcsFkCn3Tt9CTiRFZ4+/ZtnVVNg8v2tNfmCvyZM2ca5kHU6SGQnl6FbD906JC3LjZs2BClOXr0aMuFzfiHSgq8WNtfb3sU/uaT32zPU4m6F/DfIen9nbhf7ty5Ez0YDx8+DB8U3Ax004lj1sJF91fyuiKC6PHwkY90CDPp1q5dW5OOh2/RokVhGoTm/fv3sQKP4GHdyr779+8Ha9asCcvHJ9a77CMd4pu1fHnArYLL4+XLl9Hx+Q3a5eIKPGXgmnElIJK7d++uaSwos+RtpsDHXbu2sk+cOBGMGzcudA1hnVPXsm/Hjh3RsbGs+Z+4/xncVitXrgwuX76cKPDaHUe5tm/fHrlWsOp1wyHWOnUq9USvweemuXr1qrcejdZSOYFHgMXa/ve8LeE2PmVbFoEO8y7eU3e8tPAgy0OBKwaB0vt5kM6dO1cjArJPiwgPH+LhO4duQA4fPly3XwuZK/ALFiyItj979izshuu8PPjaTTB16tTM5StClkFWQAjdNLp3o/c3S+Djrp3GkEZbGm93MhINEA0AIaD4x2X7smXLaqx79z/jGg2uwPOf45jgqw/uv9vTANK7wi/QC5UGgAan2ffZyE/lBF6L+YCR//g3+fSJdKPIGBoD8eVLbyALDFY2EhEeTunG64dHiwgPtC8voiF5Eei4GY34p30Cr7vmWIe+vLprjlWfpXxFySLw9FR8lidiJWl+++23aHuzBD7u2ikLvmpJx6B1o0FVwMpuVC4GReMEvhH0znwGBfdftrtuGv0foEfQF/fayEflBF7cMQjz1723IkTEtVA3EngdiZN1YBVOnz4dPRhJkQfSXUfIZPBLi4jPMgf9sOJ3jTs+URg+gdcuIvLv3bu3DgYCfQ9+mvIVJYvA42P3pcEC9glaswQ+6dp1/cLTp0+DgwcPhhZ/nAtLu3V0j8lFRxj5BF4idySyh3uJ+07fT10fuI7Enee6aWQQmfswfvz4PrnXRj4qJfDaUk9CLPsk9MDqv7qP5Kp8PbgqA1o+tIVN1AXbtIjs27fPm08LEA9w3PG1q0gLfKPBVRf8v5I3TfmK0ow4ePzefSnwSdeOiLvuFAG3DQ0AvvU8/5nr16/HCjxjML4IHBddH8DMYdknbhrtnolrRI3WUSmBR4gjS11Z764Vn0awdU8gq99e0IOUSd1obbWJpZ9GRLRIJcW3x4VJPnjwoMbVgHXnIiF0fNd5TeDTXTtuM/zq9OZ8kTFYzYyF+O5J0n/m9u3b3nS4WtwoJEIr6SUyUK7/k67Aa3eW9NaYryHbtIvOaA8qJfAS7RIXyijRNY0mKmk/ft7QStAWkY6QcRGrTQ/GpRGRrq6uKE3cei2gxwK0SPOAuw1LWsok8HqQU7Nly5bCAq/B7YFbjXvw7t276BhEqPjuSdx/Rg/gugJ/8eLFmut1B85x+8QJPOXDjcQ+cdOIe4aGyJ1LYLSeygi8dqkQB+9Lo2ejJvnU9SQp36zWtP54PTgV50LBTyppbt68GW1PIyI8gOI3xTqkO+2mQQy031ULvPbNb9q0yXsOGhyOC3rWbX8LvE9cigg8bgzZTqSNL692nWUVeO4NZQbf4CqTx7S7RtLQ2DQ6NvH12kIXgXeF3zdrVR/fFXggtFT20whKb8CX1mg9lRF4GRBNmrGqo2KSJiw1ay0aN5wOUdH7mXauY571gF1aAdVx7G6sOuzfv79GDLTAYyFqkXHD4xCdY8eORWl0BEV/CLx2JyBq7v4iAq/z4sJwlyugLrSrI6vAz58/P0qDv9xdkkKXC6tZtuvQVd9/hnw6OkcLPPeLa5HtMp4jYL1r37xPtHWvUOOWw2gPKiPwItyN/OtpGoJmCTwPnHbTYG0zsIY1j49TD6gR5qgn8aQVUNJpqw1RRNTBnULvCjzl0y4ByseSB/Q8sPT0FHbERsdk94fA6zkCTHqizlatWhXtLyLwoMWOAWeuGz8zFr3rx84q8Fju2udO48vxGfDmU5+be6XviR6T0f8ZGls9+csVeNBLVtBwUD7KTvSOOwYQZ5XrHh/ETX4yWk9lBL5dwcVx4cIFr1UkEPJGbLPOl0VAeYCTjq+F2h2MpXx6kosPxE4La9by5UUPcgpJa9H4jpEk8Aw+Jy2LoGcB5/HB4wJLOj4wuE0ZdT4aB917cUGoxX3lCjy9Mu3fdxEfe5LAM+is8+gGyGgvTODbAB5YhNW1oHj4EX83VA60bz7Nui48lO6iVjQcWOJ6YG3Pnj11eXFPYB27wiDl801Nz1q+PGA1shSDNFAfPnyoWYuGMESZ6EVPyXcMGgERWSxgdz9RJyy0poWY8+CL1pN/fv7551zXjuAytqJ7WUDvjf9EXCgk8eZE3rgNBKGqGANiqXNcd3yC+8059To4fMcFyAxaOWbcmjI0GPqcrvFhtA8m8G0E1jIPLn5ORKLZUQkIohyfVQqzdqspH/nIjxDkfdcnAoPPNg9xkSM0QtRX3PLKReHYuKC49r54xyljI9Qp54hbnjjuuhHYrPmAuuJ+kj8ppt5l7ty5NT2MvqhvozmYwBv9jp6EkxV6Ea0uf5WhcdOTs+KWsDDaAxN4o98xge88iN5hHENH4RDhZYOr7Y0JvNHvMKawfPnyXOhZnUb/QZSObmgR+qTJeUZ7YAJvGEZDWO2SNz0RmkpkkLtMsdGemMAbhmGUFBN4wzCMkmICbxiGUVJM4A3DMEqKCbxhGEZJMYE3DMMoKSbwhmEYJcUE3jAMo6SYwBuGYZQUE3jDMIySYgJvGIZRUkzgDcMwSooJvGEYRkkxgTcMwygpJvCGYRglxQTeCEaPHh38+eefIStWrGh5ebLAi7W3bt0avm3o9u3bwdWrV8P3jGY5Rm9vb/Ds2bPg4sWL4Uu4s5Zh48aNYd398ccfffK+VsPIiwm8EUybNi16U8+BAwdaXp60IO76/aACL/VOewxePP3x48co7+bNmzOX4+zZs1H+ESNGtLxeDEMwgTc6VuARYy3sWPBHjhwJfvzxx9THwOJ+8eJFdIw1a9ZkLocJvNGuVFrgv9r9Ovji8N/hZ5Z85GlEq29sFjpV4E+ePBmVm1fK5T3OrFmzgsOHD4cNRh4Xiwm80a5UVuAHjJ1WI8jfd81PndcEvj24detWWObPnz+H7ppWlcME3mhXKivw3646WSPI/E6bl8bA5buZPdGxsvYIhBkzZgSrV68OBw3Xr18fLFmyJPQR+9IOGjQofKs9yMAgL0Lu6ekJ88+cObMuz6RJk6Lj84mwsz2twGPpcvxt27aFFjPnHjhwYNPKlxbKwXGfP38elVvOxb6sZRg/fnxdXpfBgweH94MBWSx9vg8fPjzcl0bg2c451q1bF+ZfuHChd0B38uTJUZnj6hYoO2nkHhqGj8oK/Je//hWJMZ/8LlKR36y9mKs3ABMnTgzu3r1bN1gIb968CUXBzYMYaVG+cuVKTb6dO3dGaXE7aHeG5vz588HSpUsTBT6pfPfu3QsbjiLlywL+dV85NCKyactABI5s84kuYqz99MLr16/DxiJJ4Kn7Xbt2BZ8+fYqt/2HDhkXppVcC8+bN89bBmDFjwl4LaV69etVyETHal0oK/H+mdteIsXzHCs9TifoYWXoCQIjikydPEgWLh9kNX9Ti5UMLKAOPjUQxTuBxfTx+/DgxD/vdgc0s5csC5Wl0DWJZpy1DksDTuL19+zZ1/bkCf+bMmYZ5EHV6CKSnZyHbDx065K2DDRs2RGmOHj3achEx2pdKCrxY219vexT+5pPfbM9TiboX8N8h6X2wuF90mN/Dhw/Dh3f69OlBd3d3GFst+wjlo0sueV3xohFAEMhHOvFJr127tiYdgrBo0aIwDQL3/v37WIHH+rx27Vq07/79+2GUCeXjE+td9pEOl0jW8uVh3LhxoatFNzz8BvZlLUOcwGNZc0/c+4MrbeXKlcHly5cTBV67vjj39u3bI9cKVr1uOMRaHzt2bGSd02vwuWmI9Zd8SW4lw6icwCPAYm3/e96WcBufsi2LQId5F++pO15a6PrLg4orBoHS+3m4z507F6U5ceJEtE+LF4KAaPnOoRsQIkXc/fQM4gR+wYIF0XYmAuEa0HkRI+260PHnactXBMIiOT6NlG9/2jLECfyyZcui7Yixe3/cBtoVeO7vpUuXQmgY3PNS174eDeld4Rfo8UkDQIPTKuEwOoPKCbwW8wEj/5nxyKdPpBtFxtAYiC9fegNZYLBSHmSfnx0QDPHf6gdaixci48uLBS55Eei4EEAtcFrgtbsAi9WXV7sLdAx5mvIVJYvAJ5UhTuCxshvdHwZFk1w0SdAT8jXe1HWcm0bXNz2CvqhXozxUTuDFHYMwf917K0JEXAt1I4HXkThZB1bh9OnT0cOaFA2Ba0SsUBmQ0+Lls8xBCwi+4LjjExniE3jtIiL/3r1767hx44ZXjNKUryhZBD6pDHECrwdPk2bH0vtKEnh6YlOmTImid6g3XGW67rTADx06NHKduW4aGSjmv0D0T6sFxGhvKiXw2lJPQiz7JPTA6r+6j+SqfD24KoNsPrQAzZ49O9ymxWvfvn3efIRCShpEJe742lWkBb7R4KoLPmnJm6Z8Rcki8ElliBP4tPfn+vXrsQLPeIcvAsdFCzwcP368zk2j3TMIfSuFw+gMKiXwCHFkqSvr3bXi0wi27glk9dsLepAyqWuvLUmx9NOIl/avJ8W3x4VJPnjwoMbFgcXpImF9fNd5yyDw+vqT7o+Uw02Hq0UEWSC0kh4Zg9L6/rsCj6i7PSPmRvjcYYYRR6UEXqJd4kIZJbqm0UQl7cfPG1oJ2krTETIuYkkSSSN+9DTi1dXVFaVh4C7u+HosQIs0opPGheSjDAKvrz/u/hA5pBcr0wLP6pRawN1Batw+cQKPW+bp06c1bhpxz3C9OnbeMOKojMBrlwpx8L40ejZqkk9dT5LyzWpN64/XA2ZxLhR8t5Lm5s2b0fY04oUoiC+XKBC6+G4aBEr7grXAa9/8pk2bvOegweG4oGfdlkHg9WJmcfkXL15cY6GLwLvC75tApY/vCjzs3r072k9vTHoDvrSG4aMyAi8DokkzVnVUTNKEpWatReOG8eGv1fuZsKPjsPVAYVrx0nHsbqw67N+/v0agtMBjtcp2xMoN2aMBOXbsWJRGR3WUQeB1mKjv/hBzz0xSn8BTN7hjZLuMnQhY79o37xNt3QPTuOUwjDgqI/Ai3I3862kagmYJPCKg3TQIFZErWPP4XfUgH2GOxJ1L3rTiRTptSeL3RdTBnbrvCjzl024KyseSB/Q8sD71tHoEUMeJl0HguX49/qHvDw3by5cv6+pPu2j08hC4WygDkTQHDx6smx0bZ5Xr3pV217RaOIzOoDIC367g4rhw4YLXUhMIwyPeWufLIqCIStLxtVC7g7GUT0+88YG4r1q1Knf58tLXAg/4uvVgqAtC/ejRI6/A0wN69+5dbF7xsScJPPH3Og8Nc6v/s0bnYALfBiAiCKtr1SGciD9T49082jefZl0XhEKvvigNB5a4Huzbs2dPXV5cRfQoXLGS8vmmy2ctXx7E/RS34FbaMkgviklhviUUiDdnzoIbEUNYKA2vWOr0lNzBT+qWsRO92Bjfcbexzo0cM25NGRoMfU63oTeMJEzg2wisZcQE3yvi1OxICbr2cnzeW5q1q0/5yEd+xCnv+0cRPfzIeUiKNupraOgQWFxRsqBZWhiApu7InxRT7zJ37txI3PtqRrBRXkzgjX5HTwzKCr2IVpe/v6AB1WvdxC0XYRhxmMAb/Y4JfDJE7zAuoKNwiKaywVUjKybwRr/DmMLy5ctzgfi1uvx9DVE6ulFD6FvpmjI6FxN4w2gzeB0ib3piqWiif9xlig0jLSbwhmEYJcUE3jAMo6SYwBuGYZQUE3jDMIySYgJvGIZRUkzgDcMwSooJvGEYRkkxgTcMwygpJvCGYRglxQTeMAyjpJjAG4ZhlBQTeMMwjJJiAm8YhlFSTOANwzBKigm8YRhGSTGBN4LRo0cHf/75Z8iKFStaXh6jGBs3bgzv5R9//JH7vblGOTCBN4Jp06ZFbw86cOBAy8tjFOPs2bPR/RwxYkTLy2O0DhN4wwQ+Bbwy78aNGyHt3ssxgTeESgv8V7tfB18c/jv8zJKPPI1o9Y3Nggl8Y1auXBnV0bZt21peniRM4A2hsgI/YOy0GkH+vmt+6rwm8NXDBN7oRCor8N+uOlkjyPxOm5fGwOW7mT3RsbL2CIQZM2YEq1evDrZu3RqsX78+WLJkSTBkyBBv2kGDBoVuAxg1alS4jZcz9/T0hPlnzpxZl2fSpEnR8flE2NmeVuBnzZoVHh+B48XQnHvgwIFNK18eOP+UKVOi6+ru7g4mTpwYWy4B4aNs69atCzZv3hwsXLgwKqfmxx9/DNPt378/qqMTJ05E1zZy5Mia+mXb1KlTY89LWUkzefLkmu0TJkwIt0u9cN8XLFgQXlNvb2/d9QwePDj8f7CP8vN9+PDh4b5GAs+xKCt1xfHXrFkTltk3IEs55VqT6pRyk0b+U0Z7UFmB//LXvyIx5pPfRSrym7UXc/UGAEG6e/du9FBq3rx5E4qQmwex1aJ85cqVmnw7d+6M0vLgnjx50nv88+fPB0uXLk0U+KTy3bt3LxSLIuXLy+zZs4Pnz597y4WvHNF081AXu3btCj59+hRbH8OGDYvSk9aXzmfNP3z4MNz26tWr2DI/efIkTEO59fYLFy5Ex8TH//Hjx5rzaHGlMXrx4kVdWV6/fh02oEkCjwDH3cv379+H/wWd/tatW9H+efPmea9pzJgxwefPnxteu9H/VFLg/zO1u0aM5TtWeJ5K1MfI0hMAQhTloY+Dh8cd2NMC6kML6JEjRxLTalyBx0J9/PhxYh72Y+nmLV8eFi9eHCvSwtu3b+us8jNnzjSsA0QNC5n0lDMp7ZYtW6JjN0vgRSx9Ak9jy3WlvZ9a4Okhug1Ho/8aFr7sO3TokPeaNmzYEKU5evRoy0XN+P9UUuDF2v5626PwN5/8ZnueStS9gP8OSe/zpBt+586d6OFAIHhYpk+fHnafiWWWfTyYdIElryugPJg8gOTTroO1a9fWpOMBXLRoUZgG8cJqixN4rN1r165F++7fvx925ykfn1jvso90uGWyli8v2krFZTJu3Lhg6NChoXVLOWXfjh07ojzaFUV5tm/fHrkWsNS1cIq1yj3CtYSlroWObaBdaM0SeOB/QTz73LlzQ2EmDT0LOYf+v7CfMYLLly8nCvzp06ej7Tdv3gyWL18eumBWrVoVXLp0KdpHb0vyjB07Nmpw6DX43DRXr16N8nLfWy1qxv+ncgKPAIu1/e95/1hffMq2LAId5l28p+54aUGM5MHAFYNg6P08TOfOnasRMtmnBZQHEOH0nUM3IIcPH67bj7UWJ/D4gGX7s2fPwq64zsvDr10F2vectnx5oCERS5RP13eMlUsDgGjhn9b1zTZAGN3jcu1xPYw0g6zNEngaS+0mEpYtW1bTO3H/L67B4Ao8/x+unf+U27Pht65T6cGAFn/XTUMPVBoArr9Z99hoDpUTeC3mA0b+46Pl0yfSjSJjaAzEly+9gSxoq9DnZwceUHFF6AdICygPtS8vwid5Eei4WY2nTp3yCrzuniNwvry6e45Vn6V8eaHhQ0Tl+Az4NhpUTQM9E19jCv0p8K4fXNDjAXH/FyzyOIFvhO4V6cZDX7vrptH3nx5RM++zUZzKCby4YxDmr3tvRYiIa6FuJPA6EifrwCroLnNS9IG4HLCUxLLTAuqzzEELFr7nuOMTieETeO0iIv/evXvrYDDT9/CnKV8RdNng6dOnwcGDB8OeQiP3j0TeSEQP14HrSl9LKwXeHc8QtAAnRerQG0wSeKJtJAKHngr3/Pjx4zX1qQUe15e48lw3jQye898cP3580++zUYxKCby21JMQyz4JPbD6r+4juSpfD67qLrGLtrCJHGGbFtB9+/Z58xE6KGkQsbjja1eRFvhGg6su+IAlb5ryFQERd90RAi4GGgDxXWsYf/BFoLi0UuDjQmPT/l+uX7/uFXiMA67LN4jr4rp/dAMgbhrtntF+e6N9qJTAI8SRpa6sd9eKTyPYuieQ1W8v6EHKpK60ttzE0k8joNq/nhTfHhcm+eDBgxo3i0zV10gYHd913r4WeMDlhF+anpAvsgSrk3EESY9Iu+JGaCE9JPze+n60o8Dr+5H0f7l9+3ZdOqxufX2A+45GnPTaz+4TeETd7akxV0O2afec0T5USuAl2iUulFGiaxpNVNJ+/LyhlaCtIh0h4yKioAcU0whoV1dXlIYHOO74eixAizQi5zYsaekPgdcgYLikKP+7d++icxPhIWkuXrxYI+DuoDFuj2YIPA1LXBnF1ZFH4PX9iPu/6AFoLfD6flA/9GR01BNol6FvwB83GPvETSPuGa7JNyhstJ7KCLx2qRAH70ujZ6Mm+dT1JCnfrNa0/ng9QBXnQsFXLGkIbZPtaQRUCwoWLl1qNw0PufY9a4HXvvlNmzZ5z0GDw3FBC1NfCjzXhaCAb3CViVfaXUMaV/h8s1aJuEkj8HHXo+vRd3w9AJpH4HX54srA/ABtiYvAMwAq25gX4fsfaN+9K/Cwe/fuaD+9Q+kNuXVltA+VEXgZEE2asaqjYpImLDVrLRo3lBCrSu9nMEzHPevByrQCquPY3Vh10FPwXYHHStRC6YbIIZzHjh2L0ugoir4U+Pnz50fHxt/sCiIx8bIfq1PKijtGtstYhoD1rn3zrmgxeOtraDV6QpmOvwcaQi3ieQReh636/i9ct44u0gKvG2u3N0fd8N9KctGA7hFq3HIY7UNlBF6Eu5F/PU1D0CyB58HSbhqsbQYHsebxc+pBNcIciTuXvGkFlHTacsUPi6iDu3yAK/CUT7sFKB9LHtDzwJrU09gRHC0KfSnwWO7a507DRZkYLOZTCzXXKfn0cg0IP+UikoboG9eH7wo8A7b6WhlQJgJHXzPH0mmIzME3Te/H9X/nEXjuhx6P0f8XGtqXL1/W3U8ReOYG6O1ERcl91BOVkgQedC8F4iY/Ge1BZQS+XXEtOx90nd3FqbIIqBYeH1qo3cFYyucOwLkgZsyGzFu+PGCRNooGYWAYq1by0CPR/nkX8TH7BJ560L0pQfvjEWafWAq6Eckj8EDj5jYW7jkePXpUJ/CQtEwDdal7OHECT/y9zqcbUKP9MIFvA3hoEVbXiuSh48H3hftp33yadV14MN2FuWg4sOD04OKePXvq8uIqokfhiqOUzzc9PWv58oBg4y5x11eh50N9+kIJuVby6HVs+I6LAitXGg3fmirsx1KmHjgnabHi3brCqtZiCUSqUE8izu6sTxngdGeR+iDenPRuA0evAkNAeiocSw9+Ymlj7buWPmXBdy9uGo6re4saGgyd1zU8jPbCBL6NwErk4cXXiUA2OzKBB1yOz0qLWbvWlI985Efs8r7vE5HFb5sHX/QI4wqUB6tTlsxtBFYy14JANRJUXz1wbxC7uDpku6xXU3TdnTi4Vsqf5boF/gfk8w28J8HaOLqH1BfXZTQPE3ij39ETcbKC9dzq8lcVGjY9uSxu+QqjfTCBN/odE/jOgugdZlNrtxNuHRtcbX9M4I1+hzEFlqrNg56ZavQP+O11I4vQJ03MM9oHE3jDMBJhtU7edMUyw0RExUXYGO2HCbxhGEZJMYE3DMMoKSbwhmEYJcUE3jAMo6SYwBuGYZQUE3jDMIySYgJvGIZRUkzgDcMwSooJvGEYRkkxgTcMwygpJvCGYRglxQTeMAyjpJjAG4ZhlBQTeMMwjJJiAm8YhlFSTOANox/hvbIHDx4Mrl69Gty6davmheS8Ao8XdvP2pB9//LHlZTU6HxN4w+gneHHG58+fa96OdObMmWj/kSNHou28TLvV5TU6HxN4o1TwKrkbN26ErFixouXlEXh/6fv37yMBf/v2bXDy5MmaF1ebwBvNptIC/9Xu18EXh/8OP7PkI08jWn1jqwqCKSK5bdu2lpdHmDhxYlSux48fBz/88ENdGhN4o9lUVuAHjJ1WI8jfd81PndcEvn1pV4FfsmRJVK4DBw5405jAG82msgL/7aqTNYLM77R5aQxcvpvZEx0ra48ABg8eHIrAxo0bg82bN4ffR4wYEe4bP3586HqYNWtWbP6RI0cG3d3dwaZNm0L4HjdQN2jQoPB4MGrUqHAbaZcvXx5s3bo1FMlp06alKjdl6unpCcUUHzPHxB2R9ry8wJn8nHfmzJk16TnOpEmTwmth/5o1a4KpU6d6rV/Kz3H3798fieSJEyei81E/Rcufh9GjR4fH3L17d1Su48ePR+Viv6RNI/BF/ydGtaiswH/561+RGPPJ7yIV+c3ai7l6A7B06dLg5cuXNYNv8Pr161DUzp49G22Th1lDJIb27wofP34MhcVNjwBIGgQRwXHzwunTp2MbCVwOd+/e9ea7d+9eKMxJ58WKvXLlSk0+HVFCAxN3fK6VOtPH3rVrlzdtnDWfp/x5OHz4cGK5tDXfSOCL/k+M6lFJgf/P1O4aMZbvWOF5KlEfI0tPAGbMmOEVZ8GNunAf3N7e3kQBAdLoPFpoG0HYnltmrGH8yEn52O82Do3OKwJPndA4JaWlXvQgKnmT0m/ZsqVw+fOAgCed59dff43SJgl80f+JUU0qKfBibX+97VH4m09+sz1PJepewH+HpH+wcFO8ePEieiixKNeuXRtar4jXhQsX6h5k/eDSPdcPNmIyb968EC0spFm8eHGUzxXaDx8+hI0A7o8pU6YER48erdnPNsmLe+TatWvRvvv374fW4/Tp08NPrF/ZRzrcMnHnpVyHDh0KXTDajULPQdLcvHkzdB0heKtWrQouXboU7aMHIMceMmRI6O7BUpf9HJttwP6i5c/DsGHDwvPjUtH3ScrFfkkbJ/BF/ydGdamcwCPAYm3/e94/Vh2fsi2LQId5F++pO15a9IDg8+fPgzFjxtTsR4wuX74c++BqodqxY0fd8bXfF9GU7VpoEVkaCjfvxYsXozQ6lG/BggXR9mfPntWVeezYsTViRKMRd16E3Vcv+M4R8nPnzkW+eoHfYt3ziU86rk59g6xFyl8E3CtyTHznvjRxAl/0f2JUl8oJvBbzASMnhNv49Il0o8gYGgPx5UtvIAvayv7555+9aRA034Or46ofPfKfmzT4Z0nz9OnTaLsWWixYX14GHH2NB4OdPuHXbNiwIUqDVew77507d3L/abWvGStY72sk8EXKX4QiAl/kf2JUm8oJvLhjEOave29FiIhroW4k8DoSJ+vAKly/fj16ICdMmBCbTvuL5cHFbaIf6L1793rRacQa1kLLAKvvnNrS1QO1+ORlO7MwfedkkpF2k0hefV4GHxvVz/Dhw8PeBe4jfOwInTsgnFXgi5S/CEUEvsj/xKg2lRJ4baknIZZ9Enpg9V/dR3JVPt1teSB9oX+C7n7Lg6uFLC34ucmrhXbfvn3ec5LWJ/CNBiddKLvkTXNewC+Nm8YdOPSRVeCLlL8IRQS+yP/EqDaVEniEOLLUlfXuWvFpBFv3BLL67QX9QCZNbNEPuDy4DK5pIZLp+S7sw5XDdwn9KyLwDx48iLbjZvGdk0W0pEw6DDDNeXEr6YFO+PTpUyjMt2/frhlkzSPwRcpfhCICX+R/YlSbSgm8RLvEhTJKdE2jiUraj583tBIQOXkg8fv60iDKWtDkwUXYtKshy3mLCDyWtWxPOxkqy3l1mnfv3oWrL7qRLDrKJqvAFyl/EYoIfJH/iVFtKiPw2qVCHLwvjZ6NmuRT15OkfLNa0/rjiSKRBxIr243YIGzw4cOH3gcXS/fNmzfhNqI+JAzQhfTMltQx3UUEXsfdM2PWlxc3AucEXa40592+fXuUBsFz9yP2ct2NBN53jiLlL0IRgS/yPzGqTWUEXgZEk2as6qiYpAlLzVqLBl+znk356tWr8CEn0oMZpj5/sX5wtbuCkELX0kUkWLVQhEH8t0UEXm8nTJGYe52PhufYsWNRGgRb9qU5rxZgrs89tjsz1BV4LYbE0CddV9byF6GIwBf9nxjVpTICL8LdyL+epiFo5mJj48aNq4m7dkGE9H794OJi0LMbEQGiQHBNIIR6NqiOliki8AigdnNwfpa9xXWAcIn/Ghgk1QKc5rx61UVxP8mxeUmGWz+uwDPjU58f/zVCKOmKlL8IRQS+6P/EqC6VEfh2hi63nrQkMKiI0OrQPvfBxUfNIGTcgw+IFiGHkqeIwAM9AXew0wVxZOapzpc2igZRTzquxPb7BJ6yue4K0P74vOUvQlGBL/o/MaqJCXwbwSxKHlTcBnyXVQ31olxaqAVixXFHuA8+C1MhbEOHDq1Jr2Po9QJfGm0J+wYrKQcx4gyEusLI1HnfioZpzgtcNz0Rd2EthJslF8RNw7moJzc/vQDcLJQNy5Z0WPFFy18EPa9g3bp13jSyEiZlSIp3z/s/MaqHCXwLIfIB8YS4GYoMoIkfHV9r0vFIi4hi1fbXOz2xhhGjrq6uUFiT4rTzwBK4XI9eVjdL2fBfY83GLQHcqPwMstJLyou71EI7/E+M6mAC30IQFT2Zh3XJtcAgbNoq80WVGH3LwoULE105jXBX8rT/idGfmMC3GB3TLYNlTMBhso9+qBkMtBc59D/tIPD2PzHyYgLfYnClnDp1KlEkWCisWasaGtnAxcNyxXlxV360/4nRn5jAtwlYiryViEgIluploI+BRpYkiHvdnFE97H9iZMEE3jAMo6SYwBuGYZQUE3jDMIySYgJvGIZRUkzgDcMwSooJvGEYRkkxgTcMwygpJvCGYRglxQTeMAyjpJjAG4ZhlBQTeMMwjJJiAm8YhlFSTOANwzBKigm8YRhGSTGBNwzDKCkm8B0I7wk9efJkuCZ43AucjebBOuu8tJsXbty+fTu4evVq9FLslStXhveBff31HlzDSIsJfAfCi5zlLT4IS6vLU2YQd16N5749Sd6cxPtPZdvkyZNbXl7D0JjAdyAm8P3H5s2ba4QdCx5RF2vdBN5oZyot8F/tfh18cfjv8DNLPvI0oi9vmgl8/4ErTOr6l19+qdtvAm+0M5UV+AFjp9UI8vdd81PnNYGvDrdu3Qrr+fPnz953nprAG+1MZQX+21UnawSZ32nz0hi4fDezJzpW1h6BMGPGjGD16tXhgN6qVauCSZMmBQMHDqxL5xP44cOHB4sXLw7z8gLmsWPHNjwfx+Yc3d3dYb41a9aEvuUffvjBm56BxTlz5gQzZ86M8k+fPj3YsGFD0NvbGyxatCgYMWJEw/NOnDgxuk6sYo4hx+P4MHr06Nj8s2bNCnp6eoJt27aF+Unvq6cicA6O+/z586iupWzsk3RpBH7w4MHBkiVLgo0bN4YuH75LPY0fP77umIbRLCor8F/++lckxnzyu0hFfrP2Yq7eAPz000/egTx48+ZNKMA6vSvwu3btCi1MN++1a9eCYcOGec85bdq04O7du95zvn//Pli6dGldngsXLtSI3evXr+vyvnr1KmxgfOdE6M6cOeM95/nz50Phk98HDhyoy0/DEFfme/fuhY1VMx4K/Ou+c2hEoBsJPPX48uXLuvzUHQ3q2bNn645pGM2ikgL/n6ndNWIs37HC81SiPkaWngAg1o8fP24oKFi7Ok+j9MKVK1fqLHJ6Ch8/fkzMR4PhCrUWeBqBpLwSZSJgYWt/to9Pnz7FCjzukUb1xP5mhCpyrkb1So+JtEkCTz03qidfo2EYzaKSAi/W9tfbHoW/+eQ32/NUou4F/HdI+oeUeHaiMrRA4epAGIiv1tYdgoywk88VeIRi586doesEK3f37t014uF2/0+fPh3tu3nzZrB8+fJQnHALXbp0qaZx0Pm0wMPFixdDq5seCMd4+vRptI9z6Lzbt2+vKS8CvmDBgmD27Nnhvrdv39YcWws8DRS9Edl3//790PrFtcMn1rvsI92gQYMKPxjjxo0Lr0s3KvwG9km6OIHnHr148SLaR89j7dq1Yc+JhtOtSxN4oy+onMAjwGJt/3velnAbn7Iti0CHeRfvqTteWhYuXBg93O/evQvFWe/H6r18+XKUBiFkuyvw+MDdY2vhcfefOHEiFPJz585FjYbAb7Hu+cStIvu0KCGkeh/QkOjGSu/TQklj5JYX/71ulLTA0xDI9mfPngVjxoypyct4gxZTt/dQBGmAscR9++MEngZatuPHd8tMo6XvrQm80RdUTuC1mA8Y+c9sRD59It0oMobGQHz50hvIgrZqfSINDMIhiDBv3rxwmxZ4hMc3wEhaSfPbb79lKpfuOWCxynYt8P/73/+8eRFgsdKlXNrl8fDhw9gBUS2WWuBxT8l2hNOXl/qTNFj1zXpA8go85ZftP//8szev21CbwBvNpnICL+4YhPnr3lsRIuJaqBsJvI7EyTqwCnrAka572nxaGFw3ioAwSxosdl8a/Mi4WHAL0YAgSsePH68RnTiBp+HxHVO7UsT3r3sqHD/uurTVqwWepQBkO3W2d+/eOm7cuBGlOXToUNMekLwCf/369Wi7LGvgQ/dsTOCNZlMpgdeWehJi2SehB1b/1X0kV+Vrn7Xr7kgiTRw8fuI4gSeyhm2+yBuXOIFn/MB3Xu12EIEnlFG2MT4Qd11E5vgEPs0gtIYyNOsBySvwOrwyLuzUrS8TeKPZVErgEeLIUlfWu2vFpxFs3RPI6rcX9OCgbxJNHEUEHveIPi8QvYKIImZ6kLVZAq+FO2lilm4ItMA/ePAg2k44Kda6i0xI4rsvxDIveQVe10PSBCjdEJjAG82mUgIv0S5xoYwSXdNoopL24+cNrYTff/89erjFv56GIgKvB0IZ2GVw04060VE2zRB4egzSW8BHH5dXh1Fqkab8eVxZzSCvwO/bty/aHje+Qty++eCNvqQyAq9dKsTB+9Lo2ahJPnU9Sco3qzWtP56lfuXhPnz4sDcNIZMILr5nZqqyrYjA64FdxMnNh9gzuaqZAg+61+AbE9CDpK7AM0Yg2zdt2uQ9L+di9ivElS0PeQWeyWmynbxuZA89NgacTeCNvqQyAi8DokkzVnVUTNKEpWatRYN46wfcnViE5av9z0zPZ3sRgddiiTtG58F9Q0PTbBcNENmij8vgMI0N0IC54wFa4LWLh9BNt7dDuY8dOxalkXDSZpBX4Ll3etYtM3xJS0TQ/v37veMKJvBGs6mMwItwN/Kvp2kImrnYmBYIxIsQRdYrOXjwYI0IMN1dBmKLCDyx9lpU6BlgPXNOXmThik6zBB727NlTd3yNvl4t8Ai4dtMgtrhzpNzifwcaCl3mouQVeLkHOj7fhfut95vAG82mMgLfriBeOu7cB7M88ZVLnqJRNHHrwYhA6jVmminwXCvr5rizVhE6Qh2ZiesTeOBY7gCwr+zMxm3m/Ski8IBrRoeOChyXnokOATWBN5qNCXwbgFjSbde+b+A3otrV1VWTHv+trNsSF1dOIyBuD9wXeh9Ci6C6i2DhE8bPL24a8utVKWXw1Z3hqmF2LGk+fPgQu2QA14sYEh/PoKk0FnPnzo0VeCBunxh3BoddYaee+mJFRhFnXCy+/dw3KUNSvDv1iKDjXuK7TPbCVSXXIevbGEazMIFvI7BSmUCEoMdNJGo2nAcrPWl53mYgy/tC3FLGxMiL2CVZ4tQTYko94XLyxZljOdPryQNCXPR6iZCR642byUpDLb0Zd2kHw2gGJvBGv6B96LgntMhj6dMA6NUkizY4eiZpVughFL1eGh89cMz16YaIRlVb776IJsMoigm80S9gUbtCyiQfJia5riLGCIqer9UCD3o+gbi2mKhFyKgWf/z79sIPoy8wgTf6DWLD8WUniSu+92a8nYkQVJYwzgOrVzbjelmbnkHwpOtluYpmrn5pGBoTeKNfQfQIb8QlgYuCwVEGinmdXVmtWAaTiR4iYoY19LlmBrmZ95BliQrDyIoJvGEYRkkxgTcMwygpJvCGYRglxQTeMAyjpJjAG4ZhlBQTeMMwjJJiAm8YhlFSTOANwzBKigm8YRhGSTGBNwzDKCkm8IZhGCXFBN4wDKOkmMAbhmGUFBN4wzCMkmICbxiGUVJM4I2OhbXUt27dGr5Ug9cAXr16NXrxNS/yPnnyZLgG+7p161peVsNoBSbwRkeCuPP6O/cNSfJ2pFGjRkXbaABaXV7DaAUm8EYivG2J96ZeunSp5WXRbN68uUbYseB5SxRvjGK/CbxhVFzgv9r9Ovji8N/hZ5Z85GlEq29ss3j06FEokrwkutVl0eB+EQH/5Zdf6vabwBtGhQV+wNhpNYL8fdf81HlN4FvPrVu3onL53mtqAm8YFRb4b1edrBFkfqfNS2Pg8t3MnuhYaXsEgwYNCubMmROCILHtp59+Cnp6esLBw5kzZ9blmTFjRrB69epw//r164MlS5aEA4px55g0aVJ4fPFN+5gyZUqYZvLkyTXnYdubN28ioZSyTp8+3XschLa7uzvYtGlTCN/FZdIseDE3ZXj+/HldufRLu9MK/MSJE6P6pCcg1zZw4MDouKNHj275g2oYeaiswH/561+RGPPJ7yIV+c3ai5l7AwiSiNCBAweCK1eu1PiVd+7cGaVFiO7evVs3qAiIcFykyMOHD8M0r169ii3HkydPwjSIJr9peHznET59+lR3DMr6/v37urQfP34Mdu/e3ZQ/K41FUrlgxIgRYdpGAj948ODgzJkz3mOcP38+bDj1vWn1g2oYeaikwP9naneNGMt3rPA8laiPkaUnoAXehwg8FqSIcBy4KlasWFF3jrwCz/HizoVo6/y9vb0NhZc0Rf+s9BAanWf48OFh2iSBxzrXPvy4RswE3uh0KinwYm1/ve1R+JtPfrM9TyXqXsB/h4xInc8VeET10KFDoWsD1wCChvtFhwMi2Bs2bAhdCaQjzlsLL/n0OfIIPIwdOzZ0F718+TI6Pr+BfZIOS1c3BojhvHnzQviur23x4sWF/7Djxo0Ly/D48eO6crFP0iUJ/Pbt22vKRTkXLFgQzJ49O9z39u3bmvtiAm90KpUTeARYrO1/z9sSbuNTtmUR6DDv4j11x0uLFniEBsF20yxcuLDGFYOQ6f1Yo+fOnYvSnDhxomZ/XoEXGg2yXrt2LTr3jh076vbjnpH9p0+fbtofl7BIjolbyLc/SeB146DdYMKiRYvqGq1WP6iGkYfKCbwW8wEj/5n1yKdPpBtFxtAYiC9fegNZ0AKPle5Ls23btihNnJ8dv7O4FBB0va8vBZ7GRfzupPMdmzSvX78O0zx9+rRpf9y8Aq/dPNQN5fPlJ6beBN7odCon8OKOQZi/7r0VISKuhbqRwOtInCxhloIW+MOHD3vTYPVKmmnTpsUe6/79+5EQDxs2LNrelwJP9I12Zezdu9eLTiPRQkXJK/C6R8Qkrrjjr1y50gTe6HgqJfDaUk9CLPsk9MDqv7qP5Kp8LfD79u3zptGDq0R+xB0LEZN0+JJle18KvBbBtLhjBHnJK/CEQsr2pOgeymkCb3Q6lRJ4hDiy1JX17lrxaQRb9wSy+u2FNAJ/7969KI2EAPo4e/as19LvS4EnakeLN0sa+BAh5jtx+c344+YVeC3cSfHxuiEwgTc6lUoJvES7xIUySnRNo4lK2o+fN7QS0gg8boQ01q+INJE0P/zwQ7RdBD5OCLUfPavAM+ArZSOmvD//uHkFHveVDKA+e/YsdpKYDqM0gTc6lcoIvHapEAfvS6Nnoyb51PUkKd+s1jwTneIEnpBI7eP2pdG+8Js3b9bsEws6zv/N7FXZ30jgtW8faBxkpuuLFy9ixZKeB7H8zZzVWiSKRveK3Kgjt85N4I1OpjICLwOiSTNWdVRM0oSlZq1Fk0bg3VBKQvj0fib2iJXuG6zV0SBuGCOW/oULFxIFXouhL46dVSZlP+GaTJLS+2lAJK4cMda9iyIUEfg1a9bUCDgziIl/Bwa13UleJvBGp1IZgRfhbuRfT9MQ9KfAYyVrNw2CxuQmrHkmRelBWFwOehISsK6NbiCOHj0aChxrxWjxjhN4HWPPpCfOuWrVqmg//n69RAHLKVA2wjtpbHAZpYlayUoRgYc9e/YkDgbrWHkTeKNTqYzAtyNpBB5cS9sHrhK9WJiA24Q3HcXl07M2fQLPQlxuHnctGnoVemq/D1Z/lGUEmkFRgafh3LVrV92sVRokGigWejOBNzodE/gWon3nvhmVGvzfCI0rSFjliD+rP8blRVix+mXCkYBI0siIJe9OkgKEcO3atdHyvB8+fKhbiwZYsgD/vyvsWP1Y80OHDm1q3ckM2rjoICY0SaOT1HOgAaRhJD6e3oiMI8ydO9cE3uh4TOA7DKz58ePHB11dXWED4Q58JoFYy7otvjXUG0FDwfmSlifmuJSLc/gGVVm2GIs/D82KocdtRaMDrktL0EssaJeUYXQSJvBGv3L9+vVEV04S7969a0oZiJzRvRgt8gwS0wBol5OtB290KibwRr/SDgJPL8I9NuMPhJTq1TOhv+P7DaOZmMAb/QpjBcuXL88FS/o2qxys3In/PqlBwfcetxiZYXQCJvBGZWGMgElNzBUgFp7BagZkN27cWPP6P8PoVEzgDcMwSooJvGEYRkkxgTcMwygpJvCGYRglxQTeMAyjpJjAG4ZhlBQTeMMwjJJiAm8YhlFSTOANwzBKigm8YRhGSTGBNwzDKCkm8IZhGCXFBN4wDKOkmMAbhmGUFBN4wzCMkmIC3wGwPjkvzf7jjz/Cd7K2ujyGYXQGJvAdwNmzZ6O3DI0YMaLl5TEMozMwge8A2k3geesR7y+9dOlSy8tiGEY8lRb4r3a/Dr44/Hf4mSUfeRrRzJvUbgL/6NGjsCyfP39ueVkMw4insgI/YOy0GkH+vmt+6rwm8CbwhtEJVFbgv111skaQ+Z02L42By3cze6JjZe0RwODBg4MlS5YEvb29webNm8Pvw4cPD/elEXi2L1u2LMy/adOmYMGCBU1vDGbMmBHMmTMnePPmTVQefsP06dPDNEOHDo22jR8/PvZYo0aNitKNHDky3DZo0KBoG/vZNnr06KC7uzvYsmVLsH79+mD+/PnBwIEDG5aVY5KPugC+85LtVj9whtGfVFbgv/z1r0iM+eR3kYr85v+1d55tUhxZGv1Ru9LsaGe0Cw8IhPDei2lhBcPgGYT3IEwDYgAJ7703wlvp2/6nXJ0cRepWVGRWZlY11Z35fjhPVWeYjIzqeuPGjRtRa86Xmg3AvHnzoqdPnyai6Xjx4kW0evXqlgK/bdu26M2bN03l4cyZMx0ResQ3VL/j/fv3cT4GJnft0qVLqfUdOnQoyYdwc2327NnJtb1790Zbt26N3r5923Sv+/fvR1OmTEmte/v27cH+ePfuXbRz586uf+mE+FjUUuD/Mm1Jgxi791jhZTrR1lFkJgCTJk2KXr16lSmeFl+ssfZblUEQx4wZ09Y/CgKPSybtHogn+YYOHZo8D/mdJW7BAn/27FmSZ/To0fF1K/CtePjwYXDgYgbTqix5uv3FE+JjUEuBd9b2p1sexH/zyt9cL9OJdhbwP0PzW8vDhg2LxdcK8bp162JXyLJly6KLFy9mCvzSpUsbRJfoFixoXBw7duxomBXs27ev7X8WBokJEyYk4gz8DXYAsdb52rVrm+rp6elJ0s+dO5dcDwn8iRMnYtcTaZs3b2649/nz5xvcNTy77Q+emXsB79118ixYsKDrXz4h+praCTwC7Kztz3o2xdd4ddeKCHRcdsGupvrygnA50cHqRShtOtbwrVu3UgWeUEV3/fDhw031I2xO8Kif+jrxT9NqkZUBJstN09vbm6QzkLnrvsCfPHmyyd9unwmYAbm0K1euJNdxW/n3xT1j6+72l0+IvqZ2Am/F/PMR4+NrvIZEulVkDIOB8+W72UARsLKzLF3A1xwSeHa0Ov80ljqLtKHyK1eujH3S+LNxs3Tin6aVwCPKuFBCbhrrnnn9+nXDoGMFHh86M5xQ/fv370/yMYtx9Tq/O+1LaxfrGuR5/Phx1798QvQ1tRN4545BmD9dfyPBibgV6lYCbyNxii6sgl08nTZtWmo+G7XiBJ787hr1fMx/mjxhkljQocHLumd++OGHhjJW4JmdpNWNqLt8e/bsia9NnTq1YSDcvXt3EJsntD4gRJWolcBbSz0LZ9lnYRdW/7ykt1TnP3r0KBGbNAscrl692iTwWOZWzD7mP00egSdE0rlSrJvm4MGDSbsRe1vGCvyRI0dS654+fXqS7+zZs/E1XD15F2gduJK6/QUUoi+plcAjxImlbqx334rPI9h2JlDUb++4d+9e0Lfuc/PmzaZ8xHW7a4jmx/ynybvRCWG3bhrrnsFF4vvXrcAfO3YstV6bz/nSrVXvZgAhnPuH95MnT+76F1CIvqRWAu+iXdJCGV10TauNStaPXza0EhCxVtYkfnNCEH2Bx0J21y5fvvxR/2nyCvyqVasa3DTWPROKR7fCfedO+mfJ3gB/MZUFanft1KlTXf9iCdEfqI3AW5cKcfChPHY3apZP3W6SCu1qzeuPtzHszpfsQzhfWhTN8+fPE4s0bdfo999/HwseLo9OHTVsBT5tIRRIcwufWPMHDhxInmPixIlN+a3As3HKRshYeB6Xb9GiRfE1ZgNurYJF57SIIfqP3bHa1SrqQG0E3i2IZu1YtVExWRuWOnUWDccJOKFCLOfPn9+QPnbs2ETEQwLPLlV3HTeO78dnh6hLxyXSqSgarGtXb6t4cjtLabWA6odJ3r17Nz76wObhbHybx8bfc7qlu07f+M9LRJLbhMXAo7P1RdWpjcA74W7lX88zEHRK4LE6bSQNosMPe7BoSly73dQTEngsXBf2B1jWbPHn3BYEzrp2Orl70w4stBHLfPny5cG8HMPgP0NaSGhooxPhlmxS4rlYUMWyd2lcs+VZfLVHFNy+fTvuyy1btsTrFLY/2BTW7S+fEH1NbQS+v4Ibw1rEPlicziUSWozFd2+FKwQujU5tcoIVK1Y03cOdRePDIPbzzz8n+WirO1zMx/fBZx2N4O9idTALsoNAiBs3biQHuQlRZSTw/QD850SD+ILGUQW4Fdiu78Qx5PPmhEW7i9O5fHBxsL0/z+mLRaC+NWvWxELJvdhw5c6iCWFDI5mhpOWzAs+aBM+FFW6fi/swu8mKOuLIguvXrzcJO7MNrHnf7SNEVZHA9yOwKhF0IkLKWJiIHht+KB+y2NkchYVbhrQoH9rJoJM1Q3DhknZRNIQv8O46Fj/PxLMVmYlQzvWHFlVFHZHA1wi7YaooHCtQ5p42Xp/D1LJmE2kCL4QohwS+RnwsgUfEOS+GaBnrdkpbiHVI4IXoLBL4GsExxIsXLy4FIZ1570O4pj9AHD9+vGWYpgReiM4igRcdh/hyFn0JASUckR2tecpxnAEhkVBkQBFChJHACyFERZHACyFERZHACyFERZHACyFERZHACyFERZHACyFERZHACyFERZHACyFERZHACyFERZHACyFERZHACyFERZHACyFERZHACyFERZHACyFERZHACyFERZHAi9wsW7Ys/tHsH3/8sdRvnLZbXghRDAm8yE1vb2/yi0v8OPjHLi+EKIYEXuRGAi/EwKLWAv/JzhfRfxz8v/i1SDnKtKLbH2xfIIEXYmBRW4H/fMz0BkH+68RvcpeVwEvghRgI1Fbg/2v5iQZB5u+8ZRkMfP571uqkrqIzAsfs2bOj1atXR1u2bIl/qHrOnDnRoEGDgnnHjx8fp8+aNSv+m3wzZsyI1q1bF61fvz6aP39+9OWXX2bejzKTJ0+OlixZEm3evDlauXJlNG3atPhHs0P5QwLNPWkr5ZcvXx5NnDgx9X55Bb5IPwgh0qmtwP/n978kYswrf7fTkX9ac77UbAAmTZoU3b59OxE/y507d2IR9sucO3cuyYMAvnjxoqns8+fPo6VLlwbvOX369NR7vnnzJlq0aFFTGSvQDCDnz59vKvvhw4fo2LFj0eDBgzPLhwS+TD8IIdKppcD/ZdqSBjF277HCy3SiraPITABGjBgRPXz4MChqDtL9sEIr8AhyWlkEF6vclp05c2b07t27zHtSzh8crECTnlV+3759Tc+aJfBl+0EIkU4tBd5Z259ueRD/zSt/c71MJ9pZwP8MzXaLWHCFXLlyJRGwu3fvxm4S3B68YrW6NPJZq9gKPGBNL1y4MJowYUK0ePHi6PHjx0nayZMnG+7L3y7t+vXrcX4EFxfLhQsXkrRLly41lLMCDa9evYq2bdsWzyAWLFgQHTlypCF9xYoVqeWtwLfTD0KIdGon8Aiws7Y/69kUX+PVXSsi0HHZBbua6svL3LlzE+F68uRJNHr06Ib0MWPGRE+fPk3yWEvcCjyiN2TIkIay+LGt5WvTcKEg5GfOnIlGjhzZkMbfzrrn1dbrCzwDg/9Mhw8fbhg8bFqawLfTD0KIdGon8FbMPx8xPr7Ga0ikW0XGMBg4X76bDRSBhUknWuzyDOVh0dTlwZp1163A//3vfw+WRSydO6XIIuXp06eTupkRuOtWoP/1r38FyzIgPHv2LM7z9u3bBms7TeDb6QchRDq1E3jnjkGYP11/I8GJuBXqVgJvI3GKLqwC2/adaJ06dSravXt3E9euXUvyHDhwIClrBX7cuHHB+q3bIxQZM3z48NitQ9TN9u3bY7/50aNHG6z0NIFfu3Zt6nPZtlkhTxP4dvpBCJFOrQTeWupZOMs+C7uw+uclvaU6v9Wios/FixeTslZEhw4dGqyf/CGBHzZsWOymabVQmiXwf/vb31Kfi4HC5bMLtWkC304/CCHSqZXAI8SJpW6sd9+KzyPYdiZQ1G/vuHfvXiJat27diq1Unxs3bsTpvLeRKWUFHleNXbSE9+/fxyJ78+bNhkXWLIGfN29e6nMdOnQoyWfDLdMEvp1+EEKkUyuBd9EuaaGMLrqm1UYl68cvG1oJWNFO2IhLL1K2rMDbxdfXr1/H8ex+VIqNskkT+I0bN6a2zbqGrPsoTeDb6QchRDq1EXjrUiEOPpTH7kbN8qnbTVKhXa15/fH4vp2wbdiwIZgHYR41alSMFfKyAr9169bkGoLrl0HsX7582VLgCaEMLdwS8eLi8tl8ZdPSBL6dfhBCpFMbgXcLolk7Vm1UTNaGpU6dRUP8uBM2QhJ7enoa0hFQG3aIOLu0sgJvxRR3jH+/gwcP5nLRwI4dOxrKcw+7GOrXnybw7fSDECKd2gi8E+5W/vU8A0GnBB7hsu4JLN8TJ07EIYG4QJzfGVgQtWJbVuA5DsCKNFEr7n6XL1/Ovcjq2sQ99u7dG8MGJSvU7Ji17UkT+Hb6QQiRTm0Evr+C8PoLmz6IGrtMbbl2omgQ9ax72XNt0gSeBdmsNvvt9cv7RxWU7QchRDoS+H4A8ejEdrPo6QsaQs7CqF/GLYT6u00t7FQlj7/hCIuZ2HK3Iclx//79+MgB56bh/vjUXTmsdHedmQCnPXJcga2DIxI4CTLUHlue0zA70Q9CiHQk8P0IrFiEjyN3EdC0Y3s7CVEuWOksXpYpz2BBedpMXZ041rcb/SBEFZHACyFERZHACyFERZHACyFERZHACyFERZHACyFERZHACyFERZHACyFERZHACyFERZHACyFERZHACyFERZHACyFERZHACyFERZHACyFERZHACyFERZHACyFERZHA/w6/x/pZz6boT2vOJz/vZ+EaaeQhb7c/OCGEaEXtBR6xdr/DWgTKSOiFEP2ZWgv8X6YtabLWnZX+14nfNOCse9+qp45uf4hCCBGitgL/5yW9DWL92YJduSzy2JXzW15blrq6/UEKIYRPLQXeivunWx5En4+ZXrjjKENZiXx1+O6776KffvopOn78uH4HVlSC2gk8LhUr7u340SlrRV7umoHN6dOno19++SXmyy+1viIGPrUSeATZ+dzziLsT7lZ1OpGnbi28/m909OjR6Nq1a9GFCxe63pYi9IXAz5kzJ+4LWLp0adefUdSLWgm8jZbJ45bJI/BAXTa6ptsfard58OBBLJIfPnzoeluK0BcCv2zZsqTOLVu2dP0ZRb2ojcBjWdsF1Tydk1fgwS681t2Kl8D/gQRedJPaCDxhjkUFuIjANwwgv92rzIcxc+bMaMWKFdHmzZuj5cuXR5MnT44GDRrUlG/w4MHx1B9GjhwZX5swYUK0evXquOysWbOayowYMSJasmRJtGHDhhjef/XVVy3bhNBxn7Vr10YbN26M5s2bl9wz1H7yvnz5MhE1184ZM2YEy5RtV1mGDBkSLVy4MFq/fn38PLwfPnx4nJZH4PP2B89Avr179yZ1Hjt2LOkPnjtU/+zZs+PPkcFg1apVcd7Q/4AQeaiNwLsYdl7zdk4RgS97D0Ccb926lQiBBbFE9Gx+RMCl79u3L7p06VJDme3btzfk5+83b9401f3u3bto586dwTYRRbJjx47o/fv3wXadPXs2GjZsWJKfQSeUz0E9/j3KtKsdEOOnT5823e/FixexqGYJfNH+IG9Wf/jW/KRJk6Lbt28H8965cyce7LstFmLgURuBd4urRazrogLvZgncK28ZrL+HDx9migFgmbsyVuBDWIHHUm1VN3n8dp06dapluRs3bsQWMfkReFwyaXkRbVt/2XaVBQF99epVy3umCXzR/uAzyMq7adMf/4dY863+B0jvy5mNqCa1EXgn1uxKzds5RQWeuouUGTp0aHTz5s2GLzGihqsD3621KBFI5wrwBR5hPXDgQGzp2+k/7gcrulj7PT09Mby35RcsWJC0a/r06Q1pW7dujd0+1I1laoWSuly5MWPGxLORZ8+eJen8DaS5fGXbVRYs6/v37yf18n7dunVJP1+8eDFT4Mv0B58tz42l7tL4jFx/kE4+ZgZXrlxJ8ty9ezdauXJl7NLiFevdpZGPgbTboiEGDhL4FGxkTN7OLCrwuAzcl/f169exlWnT8b1a8UFYuG4FHsHxXTgOKxzbtm1rSscN4tJPnjzZ0C5CHAEh9MtZEfbdQdBqkbVsu8ry7bffJvUhxgisTUdsfReZFfh2+qPVIuvcuXOT9CdPnkSjR49uSGdgtG6ladOmfVSBEAMbCXwAxN25dD7Z9Sp3ZxYVeATbfXFDwgHjxo2LRQOcdWgFHmEKlWNwcP5tBDctD/5n8jx+/Dj3c2JduvuzcOinZwl8X7YrDesPZ3E0lGfKlCmZLpqy/dFK4HG9uXTyhurnf8Plwapvtz9EfZDAe1hx57XIMQZFBd76dXED5L2PFfiDBw8G80ydOrVBsHbv3h3E5vGjQRBa6nHROeQ/dOhQvGmnrMB3ol1Fsa6uLAvYRv+EBL5Mf7QSeI5GcOn8P4T6wtaPm6fboiEGDrUR+DyLrO2IOxRdZMU6dV9ctziXByvwe/bsCeaxwpIXfMqu/Pz584MRJz5FBb7ddpXh0aNHufr56tWrqQJftj9aCXyeBXYLLrtui4YYONRG4FuFMLYr7nnu4WMX0NLiokPkEXi2xVthcNvlfUjDZcJ7F4qHKPkRMbhMWADEf27bXVTg22lXWe7du5fL9WIXvG2+dvqjlcDbtuFuC/UF0Tmur/D3d1s0xMChNgKftdGpE+JeZqPTDz/8kHy5bTRKK/IIPAuJdupf5FnOnz/fIFj+wh9ujrIC3067ykIbW80GiE4hUikk8O30RyuBt20r4qYTIg+1Efi0owo6Ie5Q5qgCFvzclzvNl04oH5EkiKELGcwj8PiLnU8Z14ILy/NByEaNGpXEWPtCF/J/s4Mzr8DbzT/ttKsdbHvT+ou+tRa6E/h2+8MKfOjedj8AO3lDbSOUkr6AtP4SIkRtBB78w8Y6Je5lDxtDvK2o+KcNIo7WR8viHtfzCDwQ1ufynTlzpimGmsgRF8ONOwQhsREs8PXXXzeUwVq1vuiQwFuXRSiOvUy72vknt6GIDDr402362LFjo+fPnwcFvt3+IITVpV2/fr2pbcwoXDoDiT+T4/6HDx9O8rhQWSHyUCuBt8cFf7L96W/vf21b3Ns9Lri3t7fhC07EBxbh/v37G8SdzUNugTCvwDPlt0cBsBWeqAxcBcwYrGXKEb+u3IkTJ5LrLARzDwYX2uTvBg0JPKJt203kB2frtNuusiCSNpKGexO9wj0RT7sxK+Siaac/7CDO4MIiKRE4Lhaftlk3DW3jfoRG8n/g/O+uvB/DL0QWtRJ4sD/48W9R/rUj4l72Bz988QmBiFirM6/AA+XSzk9xICLuwC3AqmTjVVp+G/0TEngOTPPL+GfRlGlXOzAbsjOLUB8715Iv8O30B7MPu4vWYf3x5LGzmhCIux0khchD7QQe7E/2Ycl3+yf78Kty6qCNwwb+PnfuXDRx4sSG/DaWPLST1IejAXAP+KKB5YrQfPHFF01lcD1Qxoow77Gw2XHrokqIA/fLMmitWbMmsT7fvn3bdBZN2Xa1A5vGWM/wI2KwqnELOUudtvprB+30B+nMFBgkqJu89mwhYCBjpuMPJOTlf4BBvdtiIQYetRR46I8/uo0lhwgh6Lx2+sMmFJPBgWl+3sVLBp/x48fHAlgkVt+BcCGWWYuDrdqFuGLxlyEUNUObeB7uV3SG0E5/8PnSF8wO0o4AJg/18z/AwKDfhhXtUFuBB1wqzifvIIadMEd2pQKWOq9cc3Huf7h3ftHvsH4E7AakomARd7v9QnSLWgs8YJHb6Jq8UKbuv9z0sZDAC1GO2gu8I3a9/G6l+1a9s9addS9h/7gQibJ48eJSECLZ7fYL0S0k8EIIUVEk8EIIUVEk8EIIUVEk8EIIUVEk8EIIUVEk8EIIUVEk8EIIUVEk8EIIUVEk8EIIUVEk8EIIUVEk8EIIUVEk8EIIUVEk8L+jw8aEEFWj9gKv44KFEFWl1gKf5wc/HPrBDyHEQKO2At8ff7JPCCE6SS0F3oo7P5zd7R/d7q+MGjUq+umnn2KWLl3a9fZ0m++++y7ui+PHj+u3UsWAoHYCj0vFins7fnTKWpGvmrtm+vTpyU/f7du3r+vt6TanT59O+oMfzu52e4RoRa0EHkF2Pvc84u6Eu1WdTuSpu0oLr30l8EePHo2uXbsWXbhwoevPWIS+EPg5c+bEfQGaJYlOUyuBt9EyedwyeQQeqMtG13T7Q+0UfSXwDx48iOv88OFD15+xCH0h8MuWLUvq3LJlS9efUVSL2gg8lrVdUM3TOXkFHuzCa1WseAl8IxJ4MdCojcAT5lhUgIsIfMMA8tu98pT54osv4ik6DB8+PJhn2LBhwTyDBw9Oro8cOTK+xqLokiVLok2bNkX//Oc/o2+++SYaNGhQy3ZMnjw5WrFiRbR58+b4FWHneh6Bp37Kc1/Kr1y5Mpo2bVpwEXLmzJlxe1++fJnU655hxowZwfpHjBgR171hw4YY3n/11Vd99oUYMmRItHDhwmj9+vXRxo0b4/eu3/MIPNd5nrVr18bl582bl3w+Fp6BfHv37k3qPHbsWNIfPHeo/tmzZ0erV6+OB4NVq1bFefN8xqKe1EbgXQw7r3k7p4jAl7kHPlf35UYQQnkQXJeHL7a7zhfdXUcktm7dGr19+za55rh//340ZcqUYN2I8IkTJ5rKwNmzZ6NFixZlCjwDwO3bt4Pl37x5E5d3eRmQQvkc79+/b6p/+/btcT1+3nfv3kU7d+7s+JcBMX769GnT/V68eBH3fZbA05c7duyInyOtPxmsXX7yZvWHb81PmjQpta/v3LkTD7LdFhPR/6iNwLvF1bzWNRQVeDdL4F558ndK4Fvx8OHDoMXZ29ubuw5f4LHGEdqsMrhg3MIhAs/faXmpy9aPBd2qTeTp1BcBAX316lXu/vD789SpUy3L3LhxI54hkJ/BKysvszBXN9Y8n2Grz7gvZzZiYFIbgXdiza7UvJ1TVOCpu0iZTgs81vi3334bp+EuefbsWZJ2/vz5hqn8mjVrGsoeOnQomj9/fjzlD1nOvsCfPHkySbt+/Xq0ePHieKawfPnyODrGpV26dCkpM2bMmGjChAkN7eJvIM3lwy1iBwPu3dPTE8N7O4AsWLCg7S8BljUzHVcv79etWxcPYvjIL168mCnw1pVFm5hNzZo1K+5LLHU7cPAMlBk6dGj83FjqLu3AgQNJf5BOPmYGV65cSfLcvXs3doPh0uIV692lkY+BtNuiIvoPEvgUbGRM3s7spsAjuL4vFjGxQomV6tJu3bqVXD948GBm20ICj78YIT9z5kyTj5m/nXXPq7NaHa0WWa2gbdu2rSkd94x97na/BAyKrj7EGIG16Yit7S9f4HHt0BfAwODXbwclBk+b1mqRde7cuUn6kydPotGjRzekMzBatxLrHx9DOMTAQAIfAHF3Lp1Pdr3K3ZndEnisbevftezfvz/J59wlWIXOV4xopO3K/PHHH1MFvhXWX+0LZpbAM0i52QP5QnWTB784eR4/ftz2l8D6w9M+B2YnWS6aLLC2XTkGRpvWSuCZibl08obqZ1BxebDq2+0PUR0k8B5W3HktcoxBtwSeTTJ57rFnz574mhUcfMdpZa0fPE3giTBxUSdYp+RjI5MVwyICP3Xq1Iayu3fvDmLzhKJUimAHoywL2Eb/hASegYf28zkhzLQT1xefT1mB52gE+1mF+sLWj5un26Ii+g+1Efg8i6ztiDt0a5H1yJEjqfew/mEiOfw6EYi0srge0gSeGQNilbVwWkbgreDlBV93O1+CR48eJXX57iTL1atXUwWe9YtQBI5PUYFvtbjqw3pBt0VF9B9qI/CtQhjbFfc89/DplMD7omGx+Zy/2t43y/WSFiaJpWoX9wCXD2J08+bNhkXWogLv+/7dNn4f0nDl8L7dEMF79+7lcr3wbKF8iLQ/0OFCYkGU9QTbV0UF3raNdYBQXxCd4/pKZwYJS20EPmujUyfEvcxGJytmbIoJ5SFcrpXAIyBp96CMy+cWLCdOnJhcyzoPxkZ4WOGw9379+nVsvfrRGzbKpojAk9e6JD7GlwDRbTUb4PlsWKgVeCKUrID7C6G4fcoKvG2b24AmRF5qI/BpRxV0QtyhzFEFCKP78hKTHspjFzrTBB7r2UbIWGx8ttt4ZBcyiRphB6xfDkGzvl0r8IQBZrWbstZfnSXw/uIwbXNlcXm4cEEfBJZ2dyL2m8HVtdWtU/gQjmktdCfwvvCH1gNs/VkCH7q3XQdhJ2+obSyS0xeQ1l+intRG4ME/bKxT4l72sDHEwE7p/eMK/DDHrDBJ3AEcfWDLc365zWNjzW0oYih+2m6h9wXeio4/A0CgCbvMctFYl0Uojt26eAjD9NtGRIuLLWegavdsdhuKSH8z8Nr0sWPHRs+fPw8KvI3oga+//rqhLNa79c37As/RCy6N/QR+25hRuHQGEhdHb/v78OHDSR4G326Liug/1Erg7XHBn2x/+tv7X9sW93aPC7ZffnzYhLwR6oZl7Pt1W210ojxCjDizoGq3zXPN3pfy1vJEdMkDbE7y67YCz2zBpjFLoN1YqpcvX24q6ws8ou3S2PRE5AcbpFw6rgi70Yot+iwG48Jg8LDtJmKn3S8BImkjabg30SvcE/G0G7NCLhp73ANhm1jifFaEqPq7Y32BZzOVHVxYJCUCx/UZbbNuGtrG/Vx/O/+7K+/3tag3tRJ4sD/48W9R/rUj4l72Bz9wm2RFolihy/LBZ9Xh72J1WP98CCse/uJd1tZ82mKtWl907MKxwz+LBis67VwX2760Q9qKgqvIXzi2INTOteQLPFY2axFpZRH9NIFn9mF30TqsP548/sJ1qM/tICkE1E7gwf5kH5Z8t3+yDz8sVqoVaQ4OY8em9dH+4x//SMpYgcdi5ORI/zAqLF0s0KzIEKJ3fv7554Zy+MCxDu3i4K5djUcsM2Bg4frWLWKF28W5aXgm6xpyZTkqwQ0gPKt/Fg0QX4/bwhcz7okA+i6pdhk3bly8OOwPlljVuIWcpU5b/bUD+oq22kGJ9/QDMx5XJ3Hx/n1J53NikKBu8mLF2zwMZMx0/IGEvOfOnYv/H7otJqL/UUuBh/74o9uIBtYuUS6t/Mq+wLvrHExFHWy4ybvghuAibtx3/PjxhY+fpSz3DC3WtgLh4rmz2soz8TzcI7SoSlks/rL4C6O0CUHnfkVnCLSFPqR8Vkx9CD5z+oIBOe0zIA/181kxMOi3YUUWtRV4wKXifPIOYtgJc2RXKmCp88o1F+f+h3vnl679DmuawNcRuyGrDJ08lVKI/kStBR6wyG10TV4o081fbpLA/4EEXogwtRd4R+x6+d1K9616Z607674//CSfBP4PcGtwXHFZ/I1JQlQFCfwABb8xkS1AHHe32yOE6H9I4IUQoqJI4IUQoqJI4IUQoqJI4IUQoqJI4IUQoqJUTuCFEEJkI4EXQoiKIoEXQoiKIoEXQoiKIoEXQoiKIoEXQoiK0u8FXgghRP9AAi+EEBVFAi+EEBVFAi+EEBVFAi+EEBVFAi+EEBVFAi+EEBVFAi+EEBVFAi+EEBVFAi+EEBVFAi+EEBVFAi+EEBVFAi+EEBVFAi+EEBVFAi+EEBVFAi+EEBVFAi+EEBVFAi+EEBVFAi+EEBVFAi+EEBXl/wHyoghDRZr9mAAAAABJRU5ErkJggg==;" vertex="1" parent="WIyWlLk6GJQsqaUBKTNV-1">
          <mxGeometry x="1500" y="43.27999999999997" width="203.11" height="598.53" as="geometry" />
        </mxCell>
      </root>
    </mxGraphModel>
  </diagram>
</mxfile>
